PragatiNarrow-Regular.ufo
<glyph name="exclam" format="1">
  <advance width="210"/>
  <unicode hex="0021"/>
  <outline>
    <contour>
      <point x="55" y="630" type="line"/>
      <point x="64" y="473"/>
      <point x="71" y="314"/>
      <point x="78" y="157" type="curve"/>
      <point x="135" y="157" type="line"/>
      <point x="144" y="323"/>
      <point x="155" y="578"/>
      <point x="159" y="630" type="curve"/>
    </contour>
    <contour>
      <point x="154" y="99" type="line"/>
      <point x="61" y="99" type="line"/>
      <point x="61" y="0" type="line"/>
      <point x="154" y="0" type="line"/>
    </contour>
  </outline>
</glyph>
<glyph name="quotedbl" format="1">
  <advance width="169"/>
  <unicode hex="0022"/>
  <outline>
    <contour>
      <point x="147" y="399" type="line"/>
      <point x="99" y="399" type="line"/>
      <point x="99" y="314" type="line"/>
      <point x="111" y="237" type="line"/>
      <point x="134" y="237" type="line"/>
      <point x="147" y="314" type="line"/>
    </contour>
    <contour>
      <point x="69" y="399" type="line"/>
      <point x="22" y="399" type="line"/>
      <point x="22" y="314" type="line"/>
      <point x="34" y="237" type="line"/>
      <point x="57" y="237" type="line"/>
      <point x="69" y="314" type="line"/>
    </contour>
  </outline>
</glyph>
<glyph name="numbersign" format="1">
  <advance width="419"/>
  <unicode hex="0023"/>
  <outline>
    <contour>
      <point x="353" y="447" type="line"/>
      <point x="395" y="640" type="line"/>
      <point x="326" y="640" type="line"/>
      <point x="282" y="447" type="line"/>
      <point x="200" y="447" type="line"/>
      <point x="242" y="640" type="line"/>
      <point x="173" y="640" type="line"/>
      <point x="130" y="447" type="line"/>
      <point x="44" y="447" type="line"/>
      <point x="44" y="376" type="line"/>
      <point x="114" y="376" type="line"/>
      <point x="83" y="234" type="line"/>
      <point x="8" y="234" type="line"/>
      <point x="8" y="164" type="line"/>
      <point x="68" y="164" type="line"/>
      <point x="30" y="0" type="line"/>
      <point x="100" y="0" type="line"/>
      <point x="137" y="164" type="line"/>
      <point x="219" y="164" type="line"/>
      <point x="183" y="0" type="line"/>
      <point x="253" y="0" type="line"/>
      <point x="289" y="164" type="line"/>
      <point x="370" y="164" type="line"/>
      <point x="370" y="234" type="line"/>
      <point x="305" y="234" type="line"/>
      <point x="337" y="376" type="line"/>
      <point x="408" y="376" type="line"/>
      <point x="408" y="447" type="line"/>
    </contour>
    <contour>
      <point x="184" y="376" type="line"/>
      <point x="266" y="376" type="line"/>
      <point x="235" y="234" type="line"/>
      <point x="153" y="234" type="line"/>
    </contour>
  </outline>
</glyph>
<glyph name="dollar" format="1">
  <advance width="266"/>
  <unicode hex="0024"/>
  <outline>
    <contour>
      <point x="146" y="421" type="line"/>
      <point x="118" y="421" type="line"/>
      <point x="118" y="359" type="line"/>
      <point x="68" y="353"/>
      <point x="38" y="321"/>
      <point x="38" y="273" type="curve" smooth="yes"/>
      <point x="38" y="215"/>
      <point x="78" y="199"/>
      <point x="118" y="186" type="curve"/>
      <point x="118" y="82" type="line"/>
      <point x="95" y="87"/>
      <point x="79" y="103"/>
      <point x="79" y="136" type="curve" smooth="yes"/>
      <point x="79" y="142" type="line"/>
      <point x="32" y="142" type="line"/>
      <point x="32" y="141"/>
      <point x="31" y="138"/>
      <point x="31" y="129" type="curve" smooth="yes"/>
      <point x="31" y="87"/>
      <point x="55" y="45"/>
      <point x="118" y="40" type="curve"/>
      <point x="118" y="-28" type="line"/>
      <point x="146" y="-28" type="line"/>
      <point x="146" y="40" type="line"/>
      <point x="197" y="44"/>
      <point x="233" y="73"/>
      <point x="233" y="134" type="curve" smooth="yes"/>
      <point x="233" y="196"/>
      <point x="187" y="213"/>
      <point x="146" y="226" type="curve"/>
      <point x="146" y="318" type="line"/>
      <point x="171" y="312"/>
      <point x="179" y="291"/>
      <point x="179" y="270" type="curve" smooth="yes"/>
      <point x="179" y="265" type="line"/>
      <point x="227" y="265" type="line"/>
      <point x="227" y="266"/>
      <point x="227" y="272"/>
      <point x="227" y="276" type="curve" smooth="yes"/>
      <point x="227" y="319"/>
      <point x="198" y="355"/>
      <point x="146" y="359" type="curve"/>
    </contour>
    <contour>
      <point x="146" y="175" type="line"/>
      <point x="168" y="165"/>
      <point x="185" y="153"/>
      <point x="185" y="127" type="curve" smooth="yes"/>
      <point x="185" y="100"/>
      <point x="168" y="84"/>
      <point x="146" y="81" type="curve"/>
    </contour>
    <contour>
      <point x="118" y="237" type="line"/>
      <point x="99" y="245"/>
      <point x="86" y="256"/>
      <point x="86" y="276" type="curve" smooth="yes"/>
      <point x="86" y="291"/>
      <point x="92" y="313"/>
      <point x="118" y="318" type="curve"/>
    </contour>
  </outline>
</glyph>
<glyph name="percent" format="1">
  <advance width="424"/>
  <unicode hex="0025"/>
  <outline>
    <contour>
      <point x="358" y="399" type="line"/>
      <point x="316" y="399" type="line"/>
      <point x="72" y="0" type="line"/>
      <point x="113" y="0" type="line"/>
    </contour>
    <contour>
      <point x="54" y="407"/>
      <point x="26" y="382"/>
      <point x="26" y="301" type="curve" smooth="yes"/>
      <point x="26" y="221"/>
      <point x="54" y="196"/>
      <point x="101" y="196" type="curve" smooth="yes"/>
      <point x="148" y="196"/>
      <point x="175" y="220"/>
      <point x="175" y="301" type="curve" smooth="yes"/>
      <point x="175" y="382"/>
      <point x="148" y="407"/>
      <point x="101" y="407" type="curve" smooth="yes"/>
    </contour>
    <contour>
      <point x="129" y="372"/>
      <point x="135" y="345"/>
      <point x="135" y="306" type="curve" smooth="yes"/>
      <point x="135" y="297" type="line" smooth="yes"/>
      <point x="135" y="258"/>
      <point x="129" y="231"/>
      <point x="101" y="231" type="curve" smooth="yes"/>
      <point x="72" y="231"/>
      <point x="67" y="258"/>
      <point x="67" y="297" type="curve" smooth="yes"/>
      <point x="67" y="306" type="line" smooth="yes"/>
      <point x="67" y="345"/>
      <point x="72" y="372"/>
      <point x="101" y="372" type="curve" smooth="yes"/>
    </contour>
    <contour>
      <point x="283" y="204"/>
      <point x="254" y="179"/>
      <point x="254" y="98" type="curve" smooth="yes"/>
      <point x="254" y="18"/>
      <point x="283" y="-7"/>
      <point x="329" y="-7" type="curve" smooth="yes"/>
      <point x="376" y="-7"/>
      <point x="404" y="17"/>
      <point x="404" y="98" type="curve" smooth="yes"/>
      <point x="404" y="179"/>
      <point x="376" y="204"/>
      <point x="329" y="204" type="curve" smooth="yes"/>
    </contour>
    <contour>
      <point x="357" y="169"/>
      <point x="364" y="142"/>
      <point x="364" y="103" type="curve" smooth="yes"/>
      <point x="364" y="94" type="line" smooth="yes"/>
      <point x="364" y="55"/>
      <point x="357" y="28"/>
      <point x="329" y="28" type="curve" smooth="yes"/>
      <point x="301" y="28"/>
      <point x="295" y="55"/>
      <point x="295" y="94" type="curve" smooth="yes"/>
      <point x="295" y="103" type="line" smooth="yes"/>
      <point x="295" y="142"/>
      <point x="301" y="169"/>
      <point x="329" y="169" type="curve" smooth="yes"/>
    </contour>
  </outline>
</glyph>
<glyph name="ampersand" format="1">
  <advance width="319"/>
  <unicode hex="0026"/>
  <outline>
    <contour>
      <point x="76" y="407"/>
      <point x="28" y="368"/>
      <point x="28" y="297" type="curve" smooth="yes"/>
      <point x="28" y="250"/>
      <point x="49" y="224"/>
      <point x="79" y="208" type="curve"/>
      <point x="79" y="205" type="line"/>
      <point x="45" y="192"/>
      <point x="20" y="160"/>
      <point x="20" y="107" type="curve" smooth="yes"/>
      <point x="20" y="36"/>
      <point x="72" y="-7"/>
      <point x="144" y="-7" type="curve" smooth="yes"/>
      <point x="227" y="-7"/>
      <point x="270" y="40"/>
      <point x="270" y="113" type="curve" smooth="yes"/>
      <point x="270" y="181" type="line"/>
      <point x="311" y="181" type="line"/>
      <point x="311" y="224" type="line"/>
      <point x="223" y="224" type="line"/>
      <point x="223" y="111" type="line" smooth="yes"/>
      <point x="223" y="62"/>
      <point x="198" y="37"/>
      <point x="148" y="37" type="curve" smooth="yes"/>
      <point x="103" y="37"/>
      <point x="72" y="58"/>
      <point x="72" y="111" type="curve" smooth="yes"/>
      <point x="72" y="167"/>
      <point x="105" y="182"/>
      <point x="141" y="182" type="curve" smooth="yes"/>
      <point x="169" y="182" type="line"/>
      <point x="169" y="224" type="line"/>
      <point x="140" y="224" type="line" smooth="yes"/>
      <point x="107" y="224"/>
      <point x="78" y="247"/>
      <point x="78" y="294" type="curve" smooth="yes"/>
      <point x="78" y="344"/>
      <point x="111" y="363"/>
      <point x="148" y="363" type="curve" smooth="yes"/>
      <point x="191" y="363"/>
      <point x="223" y="341"/>
      <point x="223" y="292" type="curve" smooth="yes"/>
      <point x="223" y="287" type="line"/>
      <point x="270" y="287" type="line"/>
      <point x="270" y="297" type="line" smooth="yes"/>
      <point x="270" y="364"/>
      <point x="220" y="407"/>
      <point x="149" y="407" type="curve" smooth="yes"/>
    </contour>
  </outline>
</glyph>
<glyph name="quotesingle" format="1">
  <advance width="145"/>
  <unicode hex="0027"/>
  <outline>
    <contour>
      <point x="107" y="630" type="line"/>
      <point x="32" y="630" type="line"/>
      <point x="32" y="495" type="line"/>
      <point x="52" y="374" type="line"/>
      <point x="88" y="374" type="line"/>
      <point x="107" y="495" type="line"/>
    </contour>
  </outline>
</glyph>
<glyph name="parenleft" format="1">
  <advance width="159"/>
  <unicode hex="0028"/>
  <outline>
    <contour>
      <point x="119" y="428" type="line"/>
      <point x="58" y="357"/>
      <point x="23" y="264"/>
      <point x="23" y="168" type="curve" smooth="yes"/>
      <point x="23" y="72"/>
      <point x="58" y="-20"/>
      <point x="119" y="-92" type="curve"/>
      <point x="150" y="-92" type="line"/>
      <point x="107" y="-20"/>
      <point x="72" y="78"/>
      <point x="72" y="169" type="curve" smooth="yes"/>
      <point x="72" y="260"/>
      <point x="107" y="357"/>
      <point x="150" y="428" type="curve"/>
    </contour>
  </outline>
</glyph>
<glyph name="parenright" format="1">
  <advance width="159"/>
  <unicode hex="0029"/>
  <outline>
    <contour>
      <point x="9" y="428" type="line"/>
      <point x="53" y="357"/>
      <point x="86" y="260"/>
      <point x="86" y="169" type="curve" smooth="yes"/>
      <point x="86" y="78"/>
      <point x="53" y="-20"/>
      <point x="9" y="-92" type="curve"/>
      <point x="40" y="-92" type="line"/>
      <point x="101" y="-20"/>
      <point x="136" y="72"/>
      <point x="136" y="168" type="curve" smooth="yes"/>
      <point x="136" y="264"/>
      <point x="101" y="357"/>
      <point x="40" y="428" type="curve"/>
    </contour>
  </outline>
</glyph>
<glyph name="asterisk" format="1">
  <advance width="293"/>
  <unicode hex="002A"/>
  <outline>
    <contour>
      <point x="170" y="550" type="line"/>
      <point x="178" y="630" type="line"/>
      <point x="114" y="630" type="line"/>
      <point x="123" y="549" type="line"/>
      <point x="55" y="597" type="line"/>
      <point x="24" y="543" type="line"/>
      <point x="99" y="509" type="line"/>
      <point x="24" y="473" type="line"/>
      <point x="55" y="419" type="line"/>
      <point x="123" y="467" type="line"/>
      <point x="114" y="385" type="line"/>
      <point x="178" y="385" type="line"/>
      <point x="170" y="467" type="line"/>
      <point x="237" y="419" type="line"/>
      <point x="268" y="473" type="line"/>
      <point x="193" y="509" type="line"/>
      <point x="268" y="543" type="line"/>
      <point x="237" y="597" type="line"/>
    </contour>
  </outline>
</glyph>
<glyph name="plus" format="1">
  <advance width="279"/>
  <unicode hex="002B"/>
  <outline>
    <contour>
      <point x="163" y="173" type="line"/>
      <point x="163" y="298" type="line"/>
      <point x="115" y="298" type="line"/>
      <point x="115" y="173" type="line"/>
      <point x="25" y="173" type="line"/>
      <point x="25" y="124" type="line"/>
      <point x="115" y="124" type="line"/>
      <point x="115" y="0" type="line"/>
      <point x="163" y="0" type="line"/>
      <point x="163" y="124" type="line"/>
      <point x="254" y="124" type="line"/>
      <point x="254" y="173" type="line"/>
    </contour>
  </outline>
</glyph>
<glyph name="comma" format="1">
  <advance width="133"/>
  <unicode hex="002C"/>
  <outline>
    <contour>
      <point x="96" y="5" type="line"/>
      <point x="96" y="63" type="line"/>
      <point x="38" y="63" type="line"/>
      <point x="38" y="0" type="line"/>
      <point x="61" y="0" type="line"/>
      <point x="38" y="-72" type="line"/>
      <point x="68" y="-72" type="line"/>
    </contour>
  </outline>
</glyph>
<glyph name="hyphen" format="1">
  <advance width="159"/>
  <unicode hex="002D"/>
  <outline>
    <contour>
      <point x="153" y="129" type="line"/>
      <point x="153" y="186" type="line"/>
      <point x="6" y="186" type="line"/>
      <point x="6" y="129" type="line"/>
    </contour>
  </outline>
</glyph>
<glyph name="period" format="1">
  <advance width="133"/>
  <unicode hex="002E"/>
  <outline>
    <contour>
      <point x="96" y="0" type="line"/>
      <point x="96" y="63" type="line"/>
      <point x="38" y="63" type="line"/>
      <point x="38" y="0" type="line"/>
    </contour>
  </outline>
</glyph>
<glyph name="slash" format="1">
  <advance width="133"/>
  <unicode hex="002F"/>
  <outline>
    <contour>
      <point x="42" y="-28" type="line"/>
      <point x="133" y="428" type="line"/>
      <point x="92" y="428" type="line"/>
      <point x="1" y="-28" type="line"/>
    </contour>
  </outline>
</glyph>
<glyph name="zero" format="1">
  <advance width="266"/>
  <unicode hex="0030"/>
  <outline>
    <contour>
      <point x="64" y="407"/>
      <point x="23" y="362"/>
      <point x="23" y="200" type="curve" smooth="yes"/>
      <point x="23" y="38"/>
      <point x="64" y="-7"/>
      <point x="133" y="-7" type="curve" smooth="yes"/>
      <point x="201" y="-7"/>
      <point x="243" y="38"/>
      <point x="243" y="200" type="curve" smooth="yes"/>
      <point x="243" y="362"/>
      <point x="201" y="407"/>
      <point x="133" y="407" type="curve" smooth="yes"/>
    </contour>
    <contour>
      <point x="181" y="364"/>
      <point x="193" y="304"/>
      <point x="193" y="220" type="curve" smooth="yes"/>
      <point x="193" y="179" type="line" smooth="yes"/>
      <point x="193" y="96"/>
      <point x="181" y="36"/>
      <point x="133" y="36" type="curve" smooth="yes"/>
      <point x="85" y="36"/>
      <point x="72" y="96"/>
      <point x="72" y="179" type="curve" smooth="yes"/>
      <point x="72" y="220" type="line" smooth="yes"/>
      <point x="72" y="304"/>
      <point x="85" y="364"/>
      <point x="133" y="364" type="curve" smooth="yes"/>
    </contour>
  </outline>
</glyph>
<glyph name="one" format="1">
  <advance width="266"/>
  <unicode hex="0031"/>
  <outline>
    <contour>
      <point x="172" y="43" type="line"/>
      <point x="172" y="399" type="line"/>
      <point x="153" y="399" type="line"/>
      <point x="116" y="378"/>
      <point x="61" y="360"/>
      <point x="28" y="357" type="curve"/>
      <point x="28" y="327" type="line"/>
      <point x="124" y="327" type="line"/>
      <point x="124" y="43" type="line"/>
      <point x="29" y="43" type="line"/>
      <point x="29" y="0" type="line"/>
      <point x="259" y="0" type="line"/>
      <point x="259" y="43" type="line"/>
    </contour>
  </outline>
</glyph>
<glyph name="two" format="1">
  <advance width="419"/>
  <unicode hex="0032"/>
  <outline>
    <contour>
      <point x="121" y="642"/>
      <point x="42" y="586"/>
      <point x="42" y="450" type="curve" smooth="yes"/>
      <point x="42" y="428"/>
      <point x="44" y="414"/>
      <point x="44" y="414" type="curve"/>
      <point x="123" y="414" type="line"/>
      <point x="123" y="451" type="line" smooth="yes"/>
      <point x="123" y="517"/>
      <point x="146" y="572"/>
      <point x="210" y="572" type="curve" smooth="yes"/>
      <point x="278" y="572"/>
      <point x="296" y="521"/>
      <point x="296" y="479" type="curve" smooth="yes"/>
      <point x="296" y="350"/>
      <point x="155" y="259"/>
      <point x="80" y="149" type="curve" smooth="yes"/>
      <point x="52" y="107"/>
      <point x="35" y="61"/>
      <point x="35" y="11" type="curve" smooth="yes"/>
      <point x="35" y="0" type="line"/>
      <point x="379" y="0" type="line"/>
      <point x="379" y="77" type="line"/>
      <point x="129" y="77" type="line"/>
      <point x="132" y="87"/>
      <point x="138" y="99"/>
      <point x="146" y="109" type="curve" smooth="yes"/>
      <point x="216" y="218"/>
      <point x="376" y="320"/>
      <point x="376" y="478" type="curve" smooth="yes"/>
      <point x="376" y="594"/>
      <point x="303" y="642"/>
      <point x="211" y="642" type="curve" smooth="yes"/>
    </contour>
  </outline>
</glyph>
<glyph name="three" format="1">
  <advance width="266"/>
  <unicode hex="0033"/>
  <outline>
    <contour>
      <point x="71" y="407"/>
      <point x="28" y="364"/>
      <point x="28" y="297" type="curve" smooth="yes"/>
      <point x="28" y="287" type="line"/>
      <point x="76" y="287" type="line"/>
      <point x="76" y="292" type="line" smooth="yes"/>
      <point x="76" y="341"/>
      <point x="100" y="364"/>
      <point x="132" y="364" type="curve" smooth="yes"/>
      <point x="161" y="364"/>
      <point x="186" y="344"/>
      <point x="186" y="294" type="curve" smooth="yes"/>
      <point x="186" y="247"/>
      <point x="159" y="224"/>
      <point x="129" y="224" type="curve" smooth="yes"/>
      <point x="94" y="224" type="line"/>
      <point x="94" y="182" type="line"/>
      <point x="128" y="182" type="line" smooth="yes"/>
      <point x="161" y="182"/>
      <point x="193" y="167"/>
      <point x="193" y="111" type="curve" smooth="yes"/>
      <point x="193" y="58"/>
      <point x="167" y="36"/>
      <point x="129" y="36" type="curve" smooth="yes"/>
      <point x="90" y="36"/>
      <point x="69" y="62"/>
      <point x="69" y="111" type="curve" smooth="yes"/>
      <point x="69" y="118" type="line"/>
      <point x="20" y="118" type="line"/>
      <point x="20" y="113" type="line" smooth="yes"/>
      <point x="20" y="40"/>
      <point x="60" y="-7"/>
      <point x="133" y="-7" type="curve" smooth="yes"/>
      <point x="197" y="-7"/>
      <point x="243" y="36"/>
      <point x="243" y="107" type="curve" smooth="yes"/>
      <point x="243" y="160"/>
      <point x="217" y="192"/>
      <point x="183" y="205" type="curve"/>
      <point x="183" y="208" type="line"/>
      <point x="214" y="224"/>
      <point x="235" y="250"/>
      <point x="235" y="297" type="curve" smooth="yes"/>
      <point x="235" y="368"/>
      <point x="193" y="407"/>
      <point x="131" y="407" type="curve" smooth="yes"/>
    </contour>
  </outline>
</glyph>
<glyph name="four" format="1">
  <advance width="266"/>
  <unicode hex="0034"/>
  <outline>
    <contour>
      <point x="115" y="407" type="line"/>
      <point x="92" y="316"/>
      <point x="53" y="218"/>
      <point x="12" y="142" type="curve"/>
      <point x="12" y="98" type="line"/>
      <point x="166" y="98" type="line"/>
      <point x="166" y="0" type="line"/>
      <point x="214" y="0" type="line"/>
      <point x="214" y="98" type="line"/>
      <point x="254" y="98" type="line"/>
      <point x="254" y="141" type="line"/>
      <point x="214" y="141" type="line"/>
      <point x="214" y="347" type="line"/>
      <point x="190" y="347" type="line"/>
      <point x="183" y="316"/>
      <point x="178" y="295"/>
      <point x="166" y="267" type="curve"/>
      <point x="166" y="141" type="line"/>
      <point x="57" y="141" type="line"/>
      <point x="78" y="173"/>
      <point x="142" y="299"/>
      <point x="163" y="407" type="curve"/>
    </contour>
  </outline>
</glyph>
<glyph name="five" format="1">
  <advance width="266"/>
  <unicode hex="0035"/>
  <outline>
    <contour>
      <point x="229" y="351" type="line"/>
      <point x="229" y="399" type="line"/>
      <point x="47" y="399" type="line"/>
      <point x="34" y="179" type="line"/>
      <point x="80" y="171" type="line"/>
      <point x="92" y="198"/>
      <point x="113" y="217"/>
      <point x="139" y="217" type="curve" smooth="yes"/>
      <point x="173" y="217"/>
      <point x="197" y="186"/>
      <point x="197" y="130" type="curve" smooth="yes"/>
      <point x="197" y="66"/>
      <point x="171" y="35"/>
      <point x="135" y="35" type="curve" smooth="yes"/>
      <point x="100" y="35"/>
      <point x="72" y="69"/>
      <point x="72" y="124" type="curve"/>
      <point x="23" y="124" type="line"/>
      <point x="23" y="43"/>
      <point x="68" y="-7"/>
      <point x="135" y="-7" type="curve" smooth="yes"/>
      <point x="204" y="-7"/>
      <point x="246" y="43"/>
      <point x="246" y="130" type="curve" smooth="yes"/>
      <point x="246" y="218"/>
      <point x="204" y="260"/>
      <point x="152" y="260" type="curve" smooth="yes"/>
      <point x="118" y="260"/>
      <point x="94" y="242"/>
      <point x="82" y="229" type="curve"/>
      <point x="89" y="351" type="line"/>
    </contour>
  </outline>
</glyph>
<glyph name="six" format="1">
  <advance width="266"/>
  <unicode hex="0036"/>
  <outline>
    <contour>
      <point x="65" y="407"/>
      <point x="23" y="355"/>
      <point x="23" y="188" type="curve" smooth="yes"/>
      <point x="23" y="40"/>
      <point x="67" y="-7"/>
      <point x="138" y="-7" type="curve" smooth="yes"/>
      <point x="198" y="-7"/>
      <point x="243" y="43"/>
      <point x="243" y="123" type="curve" smooth="yes"/>
      <point x="243" y="194"/>
      <point x="210" y="251"/>
      <point x="143" y="251" type="curve" smooth="yes"/>
      <point x="113" y="251"/>
      <point x="89" y="237"/>
      <point x="72" y="214" type="curve"/>
      <point x="72" y="306"/>
      <point x="84" y="364"/>
      <point x="133" y="364" type="curve" smooth="yes"/>
      <point x="167" y="364"/>
      <point x="183" y="332"/>
      <point x="183" y="277" type="curve"/>
      <point x="232" y="277" type="line"/>
      <point x="232" y="351"/>
      <point x="204" y="407"/>
      <point x="135" y="407" type="curve" smooth="yes"/>
    </contour>
    <contour>
      <point x="175" y="209"/>
      <point x="193" y="170"/>
      <point x="193" y="123" type="curve" smooth="yes"/>
      <point x="193" y="74"/>
      <point x="175" y="36"/>
      <point x="135" y="36" type="curve" smooth="yes"/>
      <point x="95" y="36"/>
      <point x="76" y="74"/>
      <point x="76" y="123" type="curve" smooth="yes"/>
      <point x="76" y="170"/>
      <point x="95" y="209"/>
      <point x="135" y="209" type="curve" smooth="yes"/>
    </contour>
  </outline>
</glyph>
<glyph name="seven" format="1">
  <advance width="419"/>
  <unicode hex="0037"/>
  <outline>
    <contour>
      <point x="389" y="630" type="line"/>
      <point x="30" y="630" type="line"/>
      <point x="30" y="553" type="line"/>
      <point x="294" y="553" type="line"/>
      <point x="212" y="422"/>
      <point x="109" y="217"/>
      <point x="109" y="0" type="curve"/>
      <point x="194" y="0" type="line"/>
      <point x="194" y="22"/>
      <point x="194" y="29"/>
      <point x="194" y="47" type="curve" smooth="yes"/>
      <point x="194" y="251"/>
      <point x="303" y="451"/>
      <point x="389" y="582" type="curve"/>
    </contour>
  </outline>
</glyph>
<glyph name="eight" format="1">
  <advance width="266"/>
  <unicode hex="0038"/>
  <outline>
    <contour>
      <point x="66" y="407"/>
      <point x="32" y="357"/>
      <point x="32" y="295" type="curve" smooth="yes"/>
      <point x="32" y="258"/>
      <point x="46" y="224"/>
      <point x="74" y="205" type="curve"/>
      <point x="38" y="187"/>
      <point x="23" y="153"/>
      <point x="23" y="109" type="curve" smooth="yes"/>
      <point x="23" y="45"/>
      <point x="55" y="-7"/>
      <point x="133" y="-7" type="curve" smooth="yes"/>
      <point x="210" y="-7"/>
      <point x="243" y="45"/>
      <point x="243" y="109" type="curve" smooth="yes"/>
      <point x="243" y="153"/>
      <point x="227" y="187"/>
      <point x="190" y="205" type="curve"/>
      <point x="219" y="224"/>
      <point x="234" y="258"/>
      <point x="234" y="295" type="curve" smooth="yes"/>
      <point x="234" y="357"/>
      <point x="200" y="407"/>
      <point x="133" y="407" type="curve" smooth="yes"/>
    </contour>
    <contour>
      <point x="173" y="183"/>
      <point x="193" y="155"/>
      <point x="193" y="109" type="curve" smooth="yes"/>
      <point x="193" y="64"/>
      <point x="173" y="36"/>
      <point x="133" y="36" type="curve" smooth="yes"/>
      <point x="93" y="36"/>
      <point x="72" y="64"/>
      <point x="72" y="109" type="curve" smooth="yes"/>
      <point x="72" y="155"/>
      <point x="93" y="183"/>
      <point x="133" y="183" type="curve" smooth="yes"/>
    </contour>
    <contour>
      <point x="165" y="364"/>
      <point x="187" y="338"/>
      <point x="187" y="295" type="curve" smooth="yes"/>
      <point x="187" y="252"/>
      <point x="165" y="225"/>
      <point x="133" y="225" type="curve" smooth="yes"/>
      <point x="100" y="225"/>
      <point x="79" y="252"/>
      <point x="79" y="295" type="curve" smooth="yes"/>
      <point x="79" y="338"/>
      <point x="100" y="364"/>
      <point x="133" y="364" type="curve" smooth="yes"/>
    </contour>
  </outline>
</glyph>
<glyph name="nine" format="1">
  <advance width="266"/>
  <unicode hex="0039"/>
  <outline>
    <contour>
      <point x="68" y="407"/>
      <point x="23" y="357"/>
      <point x="23" y="277" type="curve" smooth="yes"/>
      <point x="23" y="206"/>
      <point x="55" y="148"/>
      <point x="123" y="148" type="curve" smooth="yes"/>
      <point x="152" y="148"/>
      <point x="176" y="163"/>
      <point x="193" y="186" type="curve"/>
      <point x="192" y="94"/>
      <point x="182" y="36"/>
      <point x="135" y="36" type="curve" smooth="yes"/>
      <point x="100" y="36"/>
      <point x="82" y="68"/>
      <point x="82" y="123" type="curve"/>
      <point x="34" y="123" type="line"/>
      <point x="34" y="49"/>
      <point x="63" y="-7"/>
      <point x="133" y="-7" type="curve" smooth="yes"/>
      <point x="202" y="-7"/>
      <point x="243" y="45"/>
      <point x="243" y="212" type="curve" smooth="yes"/>
      <point x="243" y="359"/>
      <point x="199" y="407"/>
      <point x="128" y="407" type="curve" smooth="yes"/>
    </contour>
    <contour>
      <point x="171" y="364"/>
      <point x="189" y="325"/>
      <point x="189" y="277" type="curve" smooth="yes"/>
      <point x="189" y="229"/>
      <point x="171" y="190"/>
      <point x="130" y="190" type="curve" smooth="yes"/>
      <point x="90" y="190"/>
      <point x="72" y="229"/>
      <point x="72" y="277" type="curve" smooth="yes"/>
      <point x="72" y="325"/>
      <point x="90" y="364"/>
      <point x="130" y="364" type="curve" smooth="yes"/>
    </contour>
  </outline>
</glyph>
<glyph name="colon" format="1">
  <advance width="133"/>
  <unicode hex="003A"/>
  <outline>
    <contour>
      <point x="96" y="0" type="line"/>
      <point x="96" y="63" type="line"/>
      <point x="38" y="63" type="line"/>
      <point x="38" y="0" type="line"/>
    </contour>
    <contour>
      <point x="96" y="244" type="line"/>
      <point x="96" y="306" type="line"/>
      <point x="38" y="306" type="line"/>
      <point x="38" y="244" type="line"/>
    </contour>
  </outline>
</glyph>
<glyph name="semicolon" format="1">
  <advance width="133"/>
  <unicode hex="003B"/>
  <outline>
    <contour>
      <point x="96" y="5" type="line"/>
      <point x="96" y="63" type="line"/>
      <point x="38" y="63" type="line"/>
      <point x="38" y="0" type="line"/>
      <point x="61" y="0" type="line"/>
      <point x="38" y="-72" type="line"/>
      <point x="68" y="-72" type="line"/>
    </contour>
    <contour>
      <point x="96" y="244" type="line"/>
      <point x="96" y="306" type="line"/>
      <point x="38" y="306" type="line"/>
      <point x="38" y="244" type="line"/>
    </contour>
  </outline>
</glyph>
<glyph name="less" format="1">
  <advance width="440"/>
  <unicode hex="003C"/>
  <outline>
    <contour>
      <point x="400" y="381" type="line"/>
      <point x="400" y="464" type="line"/>
      <point x="41" y="282" type="line"/>
      <point x="41" y="184" type="line"/>
      <point x="400" y="4" type="line"/>
      <point x="400" y="86" type="line"/>
      <point x="114" y="234" type="line"/>
    </contour>
  </outline>
</glyph>
<glyph name="equal" format="1">
  <advance width="279"/>
  <unicode hex="003D"/>
  <outline>
    <contour>
      <point x="254" y="185" type="line"/>
      <point x="254" y="234" type="line"/>
      <point x="25" y="234" type="line"/>
      <point x="25" y="185" type="line"/>
    </contour>
    <contour>
      <point x="254" y="62" type="line"/>
      <point x="254" y="110" type="line"/>
      <point x="25" y="110" type="line"/>
      <point x="25" y="62" type="line"/>
    </contour>
  </outline>
</glyph>
<glyph name="greater" format="1">
  <advance width="279"/>
  <unicode hex="003E"/>
  <outline>
    <contour>
      <point x="254" y="179" type="line"/>
      <point x="26" y="294" type="line"/>
      <point x="26" y="241" type="line"/>
      <point x="207" y="148" type="line"/>
      <point x="26" y="55" type="line"/>
      <point x="26" y="3" type="line"/>
      <point x="254" y="117" type="line"/>
    </contour>
  </outline>
</glyph>
<glyph name="question" format="1">
  <advance width="266"/>
  <unicode hex="003F"/>
  <outline>
    <contour>
      <point x="63" y="407"/>
      <point x="25" y="353"/>
      <point x="25" y="288" type="curve" smooth="yes"/>
      <point x="25" y="281"/>
      <point x="27" y="268"/>
      <point x="27" y="268" type="curve"/>
      <point x="78" y="268" type="line"/>
      <point x="78" y="268"/>
      <point x="78" y="273"/>
      <point x="78" y="283" type="curve" smooth="yes"/>
      <point x="78" y="310"/>
      <point x="84" y="362"/>
      <point x="133" y="362" type="curve" smooth="yes"/>
      <point x="180" y="362"/>
      <point x="185" y="313"/>
      <point x="185" y="297" type="curve" smooth="yes"/>
      <point x="185" y="220"/>
      <point x="112" y="215"/>
      <point x="112" y="138" type="curve" smooth="yes"/>
      <point x="112" y="105" type="line"/>
      <point x="163" y="105" type="line"/>
      <point x="163" y="129" type="line" smooth="yes"/>
      <point x="163" y="198"/>
      <point x="239" y="190"/>
      <point x="239" y="303" type="curve" smooth="yes"/>
      <point x="239" y="364"/>
      <point x="195" y="407"/>
      <point x="138" y="407" type="curve" smooth="yes"/>
    </contour>
    <contour>
      <point x="166" y="0" type="line"/>
      <point x="166" y="63" type="line"/>
      <point x="108" y="63" type="line"/>
      <point x="108" y="0" type="line"/>
    </contour>
  </outline>
</glyph>
<glyph name="at" format="1">
  <advance width="764"/>
  <unicode hex="0040"/>
  <outline>
    <contour>
      <point x="203" y="642"/>
      <point x="42" y="535"/>
      <point x="42" y="241" type="curve" smooth="yes"/>
      <point x="42" y="-25"/>
      <point x="164" y="-140"/>
      <point x="363" y="-140" type="curve" smooth="yes"/>
      <point x="399" y="-140"/>
      <point x="466" y="-131"/>
      <point x="501" y="-115" type="curve"/>
      <point x="501" y="-60" type="line"/>
      <point x="471" y="-77"/>
      <point x="401" y="-90"/>
      <point x="363" y="-90" type="curve" smooth="yes"/>
      <point x="180" y="-90"/>
      <point x="95" y="20"/>
      <point x="95" y="240" type="curve" smooth="yes"/>
      <point x="95" y="477"/>
      <point x="209" y="591"/>
      <point x="392" y="591" type="curve" smooth="yes"/>
      <point x="555" y="591"/>
      <point x="670" y="504"/>
      <point x="670" y="296" type="curve" smooth="yes"/>
      <point x="670" y="126"/>
      <point x="610" y="80"/>
      <point x="563" y="80" type="curve" smooth="yes"/>
      <point x="543" y="80"/>
      <point x="531" y="90"/>
      <point x="531" y="114" type="curve" smooth="yes"/>
      <point x="531" y="356" type="line" smooth="yes"/>
      <point x="531" y="434"/>
      <point x="488" y="479"/>
      <point x="399" y="479" type="curve" smooth="yes"/>
      <point x="316" y="479"/>
      <point x="258" y="438"/>
      <point x="258" y="357" type="curve" smooth="yes"/>
      <point x="258" y="349"/>
      <point x="258" y="344"/>
      <point x="258" y="338" type="curve"/>
      <point x="327" y="338" type="line"/>
      <point x="327" y="348" type="line" smooth="yes"/>
      <point x="327" y="383"/>
      <point x="342" y="418"/>
      <point x="393" y="418" type="curve" smooth="yes"/>
      <point x="449" y="418"/>
      <point x="464" y="389"/>
      <point x="464" y="346" type="curve" smooth="yes"/>
      <point x="464" y="289" type="line"/>
      <point x="336" y="289"/>
      <point x="241" y="264"/>
      <point x="241" y="142" type="curve" smooth="yes"/>
      <point x="241" y="36"/>
      <point x="313" y="20"/>
      <point x="356" y="20" type="curve" smooth="yes"/>
      <point x="401" y="20"/>
      <point x="440" y="42"/>
      <point x="464" y="77" type="curve"/>
      <point x="467" y="77" type="line"/>
      <point x="475" y="44"/>
      <point x="496" y="20"/>
      <point x="549" y="20" type="curve" smooth="yes"/>
      <point x="622" y="20"/>
      <point x="723" y="86"/>
      <point x="723" y="295" type="curve" smooth="yes"/>
      <point x="723" y="542"/>
      <point x="582" y="642"/>
      <point x="392" y="642" type="curve" smooth="yes"/>
    </contour>
    <contour>
      <point x="464" y="188" type="line"/>
      <point x="464" y="115"/>
      <point x="416" y="80"/>
      <point x="372" y="80" type="curve" smooth="yes"/>
      <point x="334" y="80"/>
      <point x="313" y="97"/>
      <point x="313" y="147" type="curve" smooth="yes"/>
      <point x="313" y="216"/>
      <point x="374" y="229"/>
      <point x="464" y="229" type="curve"/>
    </contour>
  </outline>
</glyph>
<glyph name="B" format="1">
  <advance width="319"/>
  <unicode hex="0042"/>
  <outline>
    <contour>
      <point x="38" y="399" type="line"/>
      <point x="38" y="0" type="line"/>
      <point x="189" y="0" type="line" smooth="yes"/>
      <point x="250" y="0"/>
      <point x="302" y="39"/>
      <point x="302" y="106" type="curve" smooth="yes"/>
      <point x="302" y="158"/>
      <point x="271" y="195"/>
      <point x="231" y="208" type="curve"/>
      <point x="231" y="210" type="line"/>
      <point x="266" y="222"/>
      <point x="293" y="256"/>
      <point x="293" y="302" type="curve" smooth="yes"/>
      <point x="293" y="360"/>
      <point x="248" y="399"/>
      <point x="189" y="399" type="curve" smooth="yes"/>
    </contour>
    <contour>
      <point x="89" y="181" type="line"/>
      <point x="179" y="181" type="line" smooth="yes"/>
      <point x="221" y="181"/>
      <point x="248" y="149"/>
      <point x="248" y="113" type="curve" smooth="yes"/>
      <point x="248" y="70"/>
      <point x="220" y="47"/>
      <point x="183" y="47" type="curve" smooth="yes"/>
      <point x="89" y="47" type="line"/>
    </contour>
    <contour>
      <point x="89" y="353" type="line"/>
      <point x="178" y="353" type="line" smooth="yes"/>
      <point x="214" y="353"/>
      <point x="239" y="333"/>
      <point x="239" y="291" type="curve" smooth="yes"/>
      <point x="239" y="257"/>
      <point x="214" y="228"/>
      <point x="174" y="228" type="curve" smooth="yes"/>
      <point x="89" y="228" type="line"/>
    </contour>
  </outline>
</glyph>
<glyph name="E" format="1">
  <advance width="319"/>
  <unicode hex="0045"/>
  <outline>
    <contour>
      <point x="41" y="0" type="line"/>
      <point x="291" y="0" type="line"/>
      <point x="291" y="47" type="line"/>
      <point x="92" y="47" type="line"/>
      <point x="92" y="181" type="line"/>
      <point x="262" y="181" type="line"/>
      <point x="262" y="228" type="line"/>
      <point x="92" y="228" type="line"/>
      <point x="92" y="353" type="line"/>
      <point x="287" y="353" type="line"/>
      <point x="287" y="399" type="line"/>
      <point x="41" y="399" type="line"/>
    </contour>
    <contour>
      <point x="287" y="6" type="move" name="ogonek"/>
    </contour>
    <contour>
      <point x="159" y="0" type="move" name="bottom"/>
    </contour>
    <contour>
      <point x="159" y="399" type="move" name="top"/>
    </contour>
  </outline>
</glyph>
<glyph name="F" format="1">
  <advance width="292"/>
  <unicode hex="0046"/>
  <outline>
    <contour>
      <point x="41" y="0" type="line"/>
      <point x="92" y="0" type="line"/>
      <point x="92" y="177" type="line"/>
      <point x="250" y="177" type="line"/>
      <point x="250" y="223" type="line"/>
      <point x="92" y="223" type="line"/>
      <point x="92" y="353" type="line"/>
      <point x="272" y="353" type="line"/>
      <point x="272" y="399" type="line"/>
      <point x="41" y="399" type="line"/>
    </contour>
  </outline>
</glyph>
<glyph name="G" format="1">
  <advance width="372"/>
  <unicode hex="0047"/>
  <outline>
    <contour>
      <point x="89" y="407"/>
      <point x="28" y="339"/>
      <point x="28" y="200" type="curve" smooth="yes"/>
      <point x="28" y="61"/>
      <point x="85" y="-7"/>
      <point x="186" y="-7" type="curve" smooth="yes"/>
      <point x="229" y="-7"/>
      <point x="264" y="8"/>
      <point x="289" y="44" type="curve"/>
      <point x="300" y="0" type="line"/>
      <point x="334" y="0" type="line"/>
      <point x="334" y="208" type="line"/>
      <point x="178" y="208" type="line"/>
      <point x="178" y="163" type="line"/>
      <point x="303" y="163" type="line"/>
      <point x="281" y="185" type="line"/>
      <point x="281" y="154" type="line" smooth="yes"/>
      <point x="281" y="78"/>
      <point x="252" y="40"/>
      <point x="186" y="40" type="curve" smooth="yes"/>
      <point x="119" y="40"/>
      <point x="82" y="88"/>
      <point x="82" y="185" type="curve" smooth="yes"/>
      <point x="82" y="214" type="line" smooth="yes"/>
      <point x="82" y="312"/>
      <point x="123" y="359"/>
      <point x="188" y="359" type="curve" smooth="yes"/>
      <point x="244" y="359"/>
      <point x="281" y="329"/>
      <point x="281" y="264" type="curve"/>
      <point x="334" y="264" type="line"/>
      <point x="334" y="360"/>
      <point x="272" y="407"/>
      <point x="188" y="407" type="curve" smooth="yes"/>
    </contour>
    <contour>
      <point x="186" y="399" type="move" name="top"/>
    </contour>
    <contour>
      <point x="186" y="0" type="move" name="bottom"/>
    </contour>
  </outline>
</glyph>
<glyph name="H" format="1">
  <advance width="345"/>
  <unicode hex="0048"/>
  <outline>
    <contour>
      <point x="304" y="399" type="line"/>
      <point x="253" y="399" type="line"/>
      <point x="253" y="228" type="line"/>
      <point x="92" y="228" type="line"/>
      <point x="92" y="399" type="line"/>
      <point x="41" y="399" type="line"/>
      <point x="41" y="0" type="line"/>
      <point x="92" y="0" type="line"/>
      <point x="92" y="181" type="line"/>
      <point x="253" y="181" type="line"/>
      <point x="253" y="0" type="line"/>
      <point x="304" y="0" type="line"/>
    </contour>
    <contour>
      <point x="173" y="200" type="move" name="center"/>
    </contour>
    <contour>
      <point x="173" y="399" type="move" name="top"/>
    </contour>
  </outline>
</glyph>
<glyph name="J" format="1">
  <advance width="376"/>
  <unicode hex="004A"/>
  <outline>
    <contour>
      <point x="317" y="630" type="line"/>
      <point x="236" y="630" type="line"/>
      <point x="236" y="146" type="line" smooth="yes"/>
      <point x="236" y="92"/>
      <point x="210" y="63"/>
      <point x="164" y="63" type="curve" smooth="yes"/>
      <point x="119" y="63"/>
      <point x="93" y="92"/>
      <point x="93" y="146" type="curve" smooth="yes"/>
      <point x="93" y="191" type="line"/>
      <point x="11" y="191" type="line"/>
      <point x="11" y="150" type="line" smooth="yes"/>
      <point x="11" y="45"/>
      <point x="68" y="-11"/>
      <point x="164" y="-11" type="curve" smooth="yes"/>
      <point x="261" y="-11"/>
      <point x="317" y="45"/>
      <point x="317" y="150" type="curve" smooth="yes"/>
    </contour>
    <contour>
      <point x="188" y="630" type="move" name="top"/>
    </contour>
  </outline>
</glyph>
<glyph name="K" format="1">
  <advance width="319"/>
  <unicode hex="004B"/>
  <outline>
    <contour>
      <point x="92" y="188" type="line"/>
      <point x="92" y="399" type="line"/>
      <point x="41" y="399" type="line"/>
      <point x="41" y="0" type="line"/>
      <point x="92" y="0" type="line"/>
      <point x="92" y="124" type="line"/>
      <point x="156" y="195" type="line"/>
      <point x="254" y="0" type="line"/>
      <point x="312" y="0" type="line"/>
      <point x="188" y="239" type="line"/>
      <point x="308" y="399" type="line"/>
      <point x="250" y="399" type="line"/>
    </contour>
    <contour>
      <point x="159" y="399" type="move" name="top"/>
    </contour>
    <contour>
      <point x="159" y="0" type="move" name="bottom"/>
    </contour>
  </outline>
</glyph>
<glyph name="L" format="1">
  <advance width="266"/>
  <unicode hex="004C"/>
  <outline>
    <contour>
      <point x="92" y="399" type="line"/>
      <point x="41" y="399" type="line"/>
      <point x="41" y="0" type="line"/>
      <point x="255" y="0" type="line"/>
      <point x="255" y="47" type="line"/>
      <point x="92" y="47" type="line"/>
    </contour>
    <contour>
      <point x="133" y="399" type="move" name="top"/>
    </contour>
    <contour>
      <point x="133" y="0" type="move" name="bottom"/>
    </contour>
  </outline>
</glyph>
<glyph name="M" format="1">
  <advance width="398"/>
  <unicode hex="004D"/>
  <outline>
    <contour>
      <point x="362" y="399" type="line"/>
      <point x="284" y="399" type="line"/>
      <point x="214" y="138" type="line" smooth="yes"/>
      <point x="206" y="109"/>
      <point x="200" y="47"/>
      <point x="200" y="47" type="curve" smooth="yes"/>
      <point x="198" y="47" type="line" smooth="yes"/>
      <point x="198" y="47"/>
      <point x="192" y="108"/>
      <point x="185" y="138" type="curve" smooth="yes"/>
      <point x="114" y="399" type="line"/>
      <point x="36" y="399" type="line"/>
      <point x="36" y="0" type="line"/>
      <point x="82" y="0" type="line"/>
      <point x="82" y="290" type="line" smooth="yes"/>
      <point x="82" y="302"/>
      <point x="78" y="352"/>
      <point x="78" y="352" type="curve"/>
      <point x="81" y="352" type="line"/>
      <point x="85" y="331"/>
      <point x="88" y="310"/>
      <point x="93" y="290" type="curve" smooth="yes"/>
      <point x="173" y="0" type="line"/>
      <point x="219" y="0" type="line"/>
      <point x="299" y="290" type="line" smooth="yes"/>
      <point x="304" y="310"/>
      <point x="308" y="331"/>
      <point x="312" y="352" type="curve"/>
      <point x="314" y="352" type="line"/>
      <point x="314" y="352"/>
      <point x="310" y="304"/>
      <point x="310" y="290" type="curve" smooth="yes"/>
      <point x="310" y="0" type="line"/>
      <point x="362" y="0" type="line"/>
    </contour>
  </outline>
</glyph>
<glyph name="P" format="1">
  <advance width="319"/>
  <unicode hex="0050"/>
  <outline>
    <contour>
      <point x="92" y="165" type="line"/>
      <point x="183" y="165" type="line" smooth="yes"/>
      <point x="258" y="165"/>
      <point x="303" y="213"/>
      <point x="303" y="283" type="curve" smooth="yes"/>
      <point x="303" y="353"/>
      <point x="262" y="399"/>
      <point x="183" y="399" type="curve" smooth="yes"/>
      <point x="41" y="399" type="line"/>
      <point x="41" y="0" type="line"/>
      <point x="92" y="0" type="line"/>
    </contour>
    <contour>
      <point x="92" y="353" type="line"/>
      <point x="182" y="353" type="line" smooth="yes"/>
      <point x="225" y="353"/>
      <point x="249" y="326"/>
      <point x="249" y="283" type="curve" smooth="yes"/>
      <point x="249" y="240"/>
      <point x="223" y="212"/>
      <point x="182" y="212" type="curve" smooth="yes"/>
      <point x="92" y="212" type="line"/>
    </contour>
  </outline>
</glyph>
<glyph name="R" format="1">
  <advance width="345"/>
  <unicode hex="0052"/>
  <outline>
    <contour>
      <point x="41" y="399" type="line"/>
      <point x="41" y="0" type="line"/>
      <point x="92" y="0" type="line"/>
      <point x="92" y="177" type="line"/>
      <point x="199" y="177" type="line"/>
      <point x="273" y="0" type="line"/>
      <point x="330" y="0" type="line"/>
      <point x="250" y="186" type="line"/>
      <point x="295" y="201"/>
      <point x="321" y="239"/>
      <point x="321" y="289" type="curve" smooth="yes"/>
      <point x="321" y="355"/>
      <point x="280" y="399"/>
      <point x="202" y="399" type="curve" smooth="yes"/>
    </contour>
    <contour>
      <point x="200" y="353" type="line"/>
      <point x="244" y="353"/>
      <point x="268" y="329"/>
      <point x="268" y="289" type="curve" smooth="yes"/>
      <point x="268" y="249"/>
      <point x="241" y="223"/>
      <point x="200" y="223" type="curve" smooth="yes"/>
      <point x="92" y="223" type="line"/>
      <point x="92" y="353" type="line"/>
    </contour>
    <contour>
      <point x="173" y="399" type="move" name="top"/>
    </contour>
    <contour>
      <point x="173" y="0" type="move" name="bottom"/>
    </contour>
  </outline>
</glyph>
<glyph name="S" format="1">
  <advance width="319"/>
  <unicode hex="0053"/>
  <outline>
    <contour>
      <point x="89" y="407"/>
      <point x="32" y="373"/>
      <point x="32" y="299" type="curve" smooth="yes"/>
      <point x="32" y="155"/>
      <point x="240" y="208"/>
      <point x="240" y="107" type="curve" smooth="yes"/>
      <point x="240" y="63"/>
      <point x="210" y="40"/>
      <point x="156" y="40" type="curve" smooth="yes"/>
      <point x="111" y="40"/>
      <point x="77" y="63"/>
      <point x="77" y="113" type="curve" smooth="yes"/>
      <point x="77" y="116"/>
      <point x="78" y="124"/>
      <point x="78" y="125" type="curve"/>
      <point x="24" y="125" type="line"/>
      <point x="24" y="123"/>
      <point x="24" y="117"/>
      <point x="24" y="113" type="curve" smooth="yes"/>
      <point x="24" y="25"/>
      <point x="86" y="-7"/>
      <point x="158" y="-7" type="curve" smooth="yes"/>
      <point x="236" y="-7"/>
      <point x="294" y="26"/>
      <point x="294" y="115" type="curve" smooth="yes"/>
      <point x="294" y="256"/>
      <point x="86" y="208"/>
      <point x="86" y="304" type="curve" smooth="yes"/>
      <point x="86" y="342"/>
      <point x="118" y="359"/>
      <point x="160" y="359" type="curve" smooth="yes"/>
      <point x="200" y="359"/>
      <point x="231" y="337"/>
      <point x="231" y="296" type="curve" smooth="yes"/>
      <point x="231" y="287" type="line"/>
      <point x="284" y="287" type="line"/>
      <point x="284" y="294" type="line" smooth="yes"/>
      <point x="284" y="374"/>
      <point x="229" y="407"/>
      <point x="159" y="407" type="curve" smooth="yes"/>
    </contour>
    <contour>
      <point x="159" y="399" type="move" name="top"/>
    </contour>
    <contour>
      <point x="159" y="0" type="move" name="bottom"/>
    </contour>
  </outline>
</glyph>
<glyph name="T" format="1">
  <advance width="292"/>
  <unicode hex="0054"/>
  <outline>
    <contour>
      <point x="280" y="399" type="line"/>
      <point x="11" y="399" type="line"/>
      <point x="11" y="353" type="line"/>
      <point x="120" y="353" type="line"/>
      <point x="120" y="0" type="line"/>
      <point x="171" y="0" type="line"/>
      <point x="171" y="353" type="line"/>
      <point x="280" y="353" type="line"/>
    </contour>
    <contour>
      <point x="146" y="200" type="move" name="center"/>
    </contour>
    <contour>
      <point x="146" y="0" type="move" name="bottom"/>
    </contour>
    <contour>
      <point x="146" y="399" type="move" name="top"/>
    </contour>
  </outline>
</glyph>
<glyph name="U" format="1">
  <advance width="345"/>
  <unicode hex="0055"/>
  <outline>
    <contour>
      <point x="304" y="399" type="line"/>
      <point x="253" y="399" type="line"/>
      <point x="253" y="127" type="line" smooth="yes"/>
      <point x="253" y="71"/>
      <point x="223" y="40"/>
      <point x="173" y="40" type="curve" smooth="yes"/>
      <point x="123" y="40"/>
      <point x="92" y="71"/>
      <point x="92" y="127" type="curve" smooth="yes"/>
      <point x="92" y="399" type="line"/>
      <point x="41" y="399" type="line"/>
      <point x="41" y="130" type="line" smooth="yes"/>
      <point x="41" y="40"/>
      <point x="90" y="-7"/>
      <point x="173" y="-7" type="curve" smooth="yes"/>
      <point x="254" y="-7"/>
      <point x="304" y="40"/>
      <point x="304" y="130" type="curve" smooth="yes"/>
    </contour>
    <contour>
      <point x="310" y="6" type="move" name="ogonek"/>
    </contour>
    <contour>
      <point x="173" y="399" type="move" name="top"/>
    </contour>
  </outline>
</glyph>
<glyph name="V" format="1">
  <advance width="319"/>
  <unicode hex="0056"/>
  <outline>
    <contour>
      <point x="192" y="0" type="line"/>
      <point x="314" y="399" type="line"/>
      <point x="264" y="399" type="line"/>
      <point x="163" y="57" type="line"/>
      <point x="160" y="57" type="line"/>
      <point x="61" y="399" type="line"/>
      <point x="5" y="399" type="line"/>
      <point x="127" y="0" type="line"/>
    </contour>
  </outline>
</glyph>
<glyph name="W" format="1">
  <advance width="451"/>
  <unicode hex="0057"/>
  <outline>
    <contour>
      <point x="353" y="0" type="line"/>
      <point x="445" y="399" type="line"/>
      <point x="399" y="399" type="line"/>
      <point x="337" y="123" type="line" smooth="yes"/>
      <point x="331" y="98"/>
      <point x="325" y="53"/>
      <point x="325" y="53" type="curve" smooth="yes"/>
      <point x="323" y="53" type="line" smooth="yes"/>
      <point x="323" y="53"/>
      <point x="318" y="94"/>
      <point x="312" y="123" type="curve" smooth="yes"/>
      <point x="263" y="399" type="line"/>
      <point x="192" y="399" type="line"/>
      <point x="146" y="123" type="line" smooth="yes"/>
      <point x="140" y="88"/>
      <point x="136" y="53"/>
      <point x="136" y="53" type="curve" smooth="yes"/>
      <point x="133" y="53" type="line" smooth="yes"/>
      <point x="133" y="53"/>
      <point x="127" y="100"/>
      <point x="121" y="123" type="curve" smooth="yes"/>
      <point x="60" y="399" type="line"/>
      <point x="6" y="399" type="line"/>
      <point x="98" y="0" type="line"/>
      <point x="165" y="0" type="line"/>
      <point x="213" y="271" type="line" smooth="yes"/>
      <point x="217" y="298"/>
      <point x="223" y="351"/>
      <point x="223" y="351" type="curve"/>
      <point x="226" y="351" type="line"/>
      <point x="226" y="351"/>
      <point x="233" y="298"/>
      <point x="237" y="271" type="curve" smooth="yes"/>
      <point x="286" y="0" type="line"/>
    </contour>
    <contour>
      <point x="225" y="399" type="move" name="top"/>
    </contour>
  </outline>
</glyph>
<glyph name="X" format="1">
  <advance width="319"/>
  <unicode hex="0058"/>
  <outline>
    <contour>
      <point x="304" y="399" type="line"/>
      <point x="248" y="399" type="line"/>
      <point x="159" y="254" type="line"/>
      <point x="163" y="254" type="line"/>
      <point x="74" y="399" type="line"/>
      <point x="14" y="399" type="line"/>
      <point x="130" y="208" type="line"/>
      <point x="3" y="0" type="line"/>
      <point x="57" y="0" type="line"/>
      <point x="159" y="165" type="line"/>
      <point x="156" y="165" type="line"/>
      <point x="256" y="0" type="line"/>
      <point x="316" y="0" type="line"/>
      <point x="188" y="212" type="line"/>
    </contour>
  </outline>
</glyph>
<glyph name="Y" format="1">
  <advance width="319"/>
  <unicode hex="0059"/>
  <outline>
    <contour>
      <point x="185" y="165" type="line"/>
      <point x="314" y="399" type="line"/>
      <point x="264" y="399" type="line"/>
      <point x="165" y="214" type="line"/>
      <point x="163" y="214" type="line"/>
      <point x="61" y="399" type="line"/>
      <point x="5" y="399" type="line"/>
      <point x="134" y="165" type="line"/>
      <point x="134" y="0" type="line"/>
      <point x="185" y="0" type="line"/>
    </contour>
    <contour>
      <point x="159" y="399" type="move" name="top"/>
    </contour>
  </outline>
</glyph>
<glyph name="Z" format="1">
  <advance width="292"/>
  <unicode hex="005A"/>
  <outline>
    <contour>
      <point x="275" y="399" type="line"/>
      <point x="24" y="399" type="line"/>
      <point x="24" y="353" type="line"/>
      <point x="202" y="353" type="line"/>
      <point x="12" y="22" type="line"/>
      <point x="12" y="0" type="line"/>
      <point x="279" y="0" type="line"/>
      <point x="279" y="47" type="line"/>
      <point x="84" y="47" type="line"/>
      <point x="275" y="378" type="line"/>
    </contour>
    <contour>
      <point x="146" y="399" type="move" name="top"/>
    </contour>
  </outline>
</glyph>
<glyph name="bracketleft" format="1">
  <advance width="133"/>
  <unicode hex="005B"/>
  <outline>
    <contour>
      <point x="121" y="390" type="line"/>
      <point x="121" y="428" type="line"/>
      <point x="28" y="428" type="line"/>
      <point x="28" y="-94" type="line"/>
      <point x="121" y="-94" type="line"/>
      <point x="121" y="-56" type="line"/>
      <point x="72" y="-56" type="line"/>
      <point x="72" y="390" type="line"/>
    </contour>
  </outline>
</glyph>
<glyph name="bracketright" format="1">
  <advance width="133"/>
  <unicode hex="005D"/>
  <outline>
    <contour>
      <point x="104" y="-94" type="line"/>
      <point x="104" y="428" type="line"/>
      <point x="12" y="428" type="line"/>
      <point x="12" y="390" type="line"/>
      <point x="60" y="390" type="line"/>
      <point x="60" y="-56" type="line"/>
      <point x="12" y="-56" type="line"/>
      <point x="12" y="-94" type="line"/>
    </contour>
  </outline>
</glyph>
<glyph name="asciicircum" format="1">
  <advance width="224"/>
  <unicode hex="005E"/>
  <outline>
    <contour>
      <point x="223" y="171" type="line"/>
      <point x="144" y="399" type="line"/>
      <point x="82" y="399" type="line"/>
      <point x="3" y="171" type="line"/>
      <point x="55" y="171" type="line"/>
      <point x="113" y="355" type="line"/>
      <point x="171" y="171" type="line"/>
    </contour>
  </outline>
</glyph>
<glyph name="grave" format="1">
  <advance width="159"/>
  <unicode hex="0060"/>
  <outline>
    <contour>
      <point x="119" y="344" type="line"/>
      <point x="69" y="421" type="line"/>
      <point x="16" y="421" type="line"/>
      <point x="16" y="419" type="line"/>
      <point x="78" y="344" type="line"/>
    </contour>
    <contour>
      <point x="68" y="306" type="move" name="_top"/>
    </contour>
  </outline>
</glyph>
<glyph name="a" format="1">
  <advance width="266"/>
  <unicode hex="0061"/>
  <outline>
    <contour>
      <point x="72" y="314"/>
      <point x="32" y="284"/>
      <point x="32" y="229" type="curve" smooth="yes"/>
      <point x="32" y="223"/>
      <point x="32" y="219"/>
      <point x="32" y="215" type="curve"/>
      <point x="79" y="215" type="line"/>
      <point x="79" y="223" type="line" smooth="yes"/>
      <point x="79" y="246"/>
      <point x="90" y="271"/>
      <point x="127" y="271" type="curve" smooth="yes"/>
      <point x="165" y="271"/>
      <point x="175" y="250"/>
      <point x="175" y="221" type="curve" smooth="yes"/>
      <point x="175" y="182" type="line"/>
      <point x="86" y="182"/>
      <point x="20" y="163"/>
      <point x="20" y="79" type="curve" smooth="yes"/>
      <point x="20" y="5"/>
      <point x="70" y="-7"/>
      <point x="100" y="-7" type="curve" smooth="yes"/>
      <point x="132" y="-7"/>
      <point x="159" y="8"/>
      <point x="175" y="33" type="curve"/>
      <point x="178" y="33" type="line"/>
      <point x="183" y="11"/>
      <point x="201" y="-5"/>
      <point x="226" y="-5" type="curve" smooth="yes"/>
      <point x="241" y="-5"/>
      <point x="252" y="-1"/>
      <point x="258" y="3" type="curve"/>
      <point x="258" y="36" type="line"/>
      <point x="239" y="36" type="line" smooth="yes"/>
      <point x="231" y="36"/>
      <point x="223" y="42"/>
      <point x="223" y="56" type="curve" smooth="yes"/>
      <point x="223" y="228" type="line" smooth="yes"/>
      <point x="223" y="282"/>
      <point x="192" y="314"/>
      <point x="130" y="314" type="curve" smooth="yes"/>
    </contour>
    <contour>
      <point x="175" y="111" type="line"/>
      <point x="175" y="61"/>
      <point x="142" y="36"/>
      <point x="111" y="36" type="curve" smooth="yes"/>
      <point x="84" y="36"/>
      <point x="70" y="47"/>
      <point x="70" y="82" type="curve" smooth="yes"/>
      <point x="70" y="130"/>
      <point x="113" y="139"/>
      <point x="175" y="139" type="curve"/>
    </contour>
    <contour>
      <point x="239" y="6" type="move" name="ogonek"/>
    </contour>
    <contour>
      <point x="133" y="306" type="move" name="top"/>
    </contour>
  </outline>
</glyph>
<glyph name="b" format="1">
  <advance width="266"/>
  <unicode hex="0062"/>
  <outline>
    <contour>
      <point x="83" y="421" type="line"/>
      <point x="35" y="421" type="line"/>
      <point x="35" y="0" type="line"/>
      <point x="71" y="0" type="line"/>
      <point x="78" y="36" type="line"/>
      <point x="80" y="36" type="line"/>
      <point x="95" y="7"/>
      <point x="119" y="-7"/>
      <point x="148" y="-7" type="curve" smooth="yes"/>
      <point x="206" y="-7"/>
      <point x="243" y="42"/>
      <point x="243" y="154" type="curve" smooth="yes"/>
      <point x="243" y="265"/>
      <point x="202" y="314"/>
      <point x="151" y="314" type="curve" smooth="yes"/>
      <point x="121" y="314"/>
      <point x="96" y="300"/>
      <point x="86" y="277" type="curve"/>
      <point x="83" y="277" type="line"/>
    </contour>
    <contour>
      <point x="174" y="271"/>
      <point x="192" y="241"/>
      <point x="192" y="164" type="curve" smooth="yes"/>
      <point x="192" y="142" type="line" smooth="yes"/>
      <point x="192" y="66"/>
      <point x="174" y="36"/>
      <point x="138" y="36" type="curve" smooth="yes"/>
      <point x="101" y="36"/>
      <point x="83" y="72"/>
      <point x="83" y="142" type="curve" smooth="yes"/>
      <point x="83" y="162" type="line" smooth="yes"/>
      <point x="83" y="234"/>
      <point x="101" y="271"/>
      <point x="138" y="271" type="curve" smooth="yes"/>
    </contour>
  </outline>
</glyph>
<glyph name="d" format="1">
  <advance width="266"/>
  <unicode hex="0064"/>
  <outline>
    <contour>
      <point x="231" y="0" type="line"/>
      <point x="231" y="421" type="line"/>
      <point x="183" y="421" type="line"/>
      <point x="183" y="277" type="line"/>
      <point x="180" y="277" type="line"/>
      <point x="169" y="300"/>
      <point x="144" y="314"/>
      <point x="115" y="314" type="curve" smooth="yes"/>
      <point x="64" y="314"/>
      <point x="23" y="265"/>
      <point x="23" y="154" type="curve" smooth="yes"/>
      <point x="23" y="42"/>
      <point x="60" y="-7"/>
      <point x="118" y="-7" type="curve" smooth="yes"/>
      <point x="146" y="-7"/>
      <point x="171" y="7"/>
      <point x="185" y="36" type="curve"/>
      <point x="188" y="36" type="line"/>
      <point x="194" y="0" type="line"/>
    </contour>
    <contour>
      <point x="165" y="271"/>
      <point x="183" y="234"/>
      <point x="183" y="162" type="curve" smooth="yes"/>
      <point x="183" y="142" type="line" smooth="yes"/>
      <point x="183" y="72"/>
      <point x="165" y="36"/>
      <point x="128" y="36" type="curve" smooth="yes"/>
      <point x="92" y="36"/>
      <point x="73" y="66"/>
      <point x="73" y="142" type="curve" smooth="yes"/>
      <point x="73" y="164" type="line" smooth="yes"/>
      <point x="73" y="241"/>
      <point x="92" y="271"/>
      <point x="128" y="271" type="curve" smooth="yes"/>
    </contour>
    <contour>
      <point x="133" y="153" type="move" name="center"/>
    </contour>
  </outline>
</glyph>
<glyph name="g" format="1">
  <advance width="419"/>
  <unicode hex="0067"/>
  <outline>
    <contour>
      <point x="335" y="562" type="line"/>
      <point x="330" y="531"/>
      <point x="318" y="500"/>
      <point x="275" y="477" type="curve"/>
      <point x="255" y="488"/>
      <point x="230" y="495"/>
      <point x="205" y="495" type="curve" smooth="yes"/>
      <point x="107" y="495"/>
      <point x="47" y="433"/>
      <point x="47" y="332" type="curve" smooth="yes"/>
      <point x="47" y="278"/>
      <point x="68" y="235"/>
      <point x="103" y="207" type="curve"/>
      <point x="62" y="192"/>
      <point x="35" y="162"/>
      <point x="35" y="123" type="curve" smooth="yes"/>
      <point x="35" y="95"/>
      <point x="50" y="67"/>
      <point x="75" y="51" type="curve"/>
      <point x="35" y="35"/>
      <point x="11" y="-5"/>
      <point x="11" y="-52" type="curve" smooth="yes"/>
      <point x="11" y="-115"/>
      <point x="52" y="-167"/>
      <point x="131" y="-167" type="curve" smooth="yes"/>
      <point x="268" y="-167" type="line" smooth="yes"/>
      <point x="361" y="-167"/>
      <point x="410" y="-107"/>
      <point x="410" y="-30" type="curve" smooth="yes"/>
      <point x="410" y="31"/>
      <point x="366" y="83"/>
      <point x="296" y="83" type="curve" smooth="yes"/>
      <point x="158" y="83" type="line" smooth="yes"/>
      <point x="134" y="83"/>
      <point x="114" y="102"/>
      <point x="114" y="126" type="curve" smooth="yes"/>
      <point x="114" y="150"/>
      <point x="133" y="170"/>
      <point x="158" y="170" type="curve" smooth="yes"/>
      <point x="209" y="170" type="line" smooth="yes"/>
      <point x="303" y="171"/>
      <point x="363" y="232"/>
      <point x="363" y="332" type="curve" smooth="yes"/>
      <point x="363" y="380"/>
      <point x="346" y="418"/>
      <point x="320" y="446" type="curve"/>
      <point x="370" y="459"/>
      <point x="400" y="503"/>
      <point x="400" y="562" type="curve"/>
    </contour>
    <contour>
      <point x="277" y="11" type="line"/>
      <point x="315" y="11"/>
      <point x="334" y="-14"/>
      <point x="334" y="-45" type="curve" smooth="yes"/>
      <point x="334" y="-76"/>
      <point x="309" y="-102"/>
      <point x="277" y="-102" type="curve" smooth="yes"/>
      <point x="144" y="-102" type="line" smooth="yes"/>
      <point x="106" y="-102"/>
      <point x="87" y="-76"/>
      <point x="87" y="-45" type="curve" smooth="yes"/>
      <point x="87" y="-14"/>
      <point x="105" y="11"/>
      <point x="144" y="11" type="curve" smooth="yes"/>
    </contour>
    <contour>
      <point x="258" y="432"/>
      <point x="287" y="396"/>
      <point x="287" y="332" type="curve" smooth="yes"/>
      <point x="287" y="270"/>
      <point x="258" y="232"/>
      <point x="204" y="232" type="curve" smooth="yes"/>
      <point x="151" y="232"/>
      <point x="123" y="267"/>
      <point x="123" y="332" type="curve" smooth="yes"/>
      <point x="123" y="393"/>
      <point x="151" y="432"/>
      <point x="204" y="432" type="curve" smooth="yes"/>
    </contour>
    <contour>
      <point x="210" y="484" type="move" name="top"/>
    </contour>
  </outline>
</glyph>
<glyph name="h" format="1">
  <advance width="419"/>
  <unicode hex="0068"/>
  <outline>
    <contour>
      <point x="131" y="433" type="line"/>
      <point x="131" y="665" type="line"/>
      <point x="55" y="665" type="line"/>
      <point x="55" y="0" type="line"/>
      <point x="131" y="0" type="line"/>
      <point x="131" y="295" type="line" smooth="yes"/>
      <point x="131" y="379"/>
      <point x="173" y="427"/>
      <point x="220" y="427" type="curve" smooth="yes"/>
      <point x="261" y="427"/>
      <point x="289" y="410"/>
      <point x="289" y="343" type="curve" smooth="yes"/>
      <point x="289" y="0" type="line"/>
      <point x="364" y="0" type="line"/>
      <point x="364" y="348" type="line" smooth="yes"/>
      <point x="364" y="456"/>
      <point x="317" y="495"/>
      <point x="244" y="495" type="curve" smooth="yes"/>
      <point x="197" y="495"/>
      <point x="161" y="476"/>
      <point x="136" y="433" type="curve"/>
    </contour>
    <contour>
      <point x="210" y="241" type="move" name="center"/>
    </contour>
    <contour>
      <point x="210" y="484" type="move" name="top"/>
    </contour>
  </outline>
</glyph>
<glyph name="i" format="1">
  <advance width="106"/>
  <unicode hex="0069"/>
  <outline>
    <contour>
      <point x="77" y="0" type="line"/>
      <point x="77" y="306" type="line"/>
      <point x="29" y="306" type="line"/>
      <point x="29" y="0" type="line"/>
    </contour>
    <contour>
      <point x="77" y="364" type="line"/>
      <point x="77" y="421" type="line"/>
      <point x="29" y="421" type="line"/>
      <point x="29" y="364" type="line"/>
    </contour>
  </outline>
</glyph>
<glyph name="j" format="1">
  <advance width="106"/>
  <unicode hex="006A"/>
  <outline>
    <contour>
      <point x="77" y="306" type="line"/>
      <point x="29" y="306" type="line"/>
      <point x="29" y="-38" type="line" smooth="yes"/>
      <point x="29" y="-56"/>
      <point x="20" y="-66"/>
      <point x="2" y="-66" type="curve" smooth="yes"/>
      <point x="-24" y="-66" type="line"/>
      <point x="-24" y="-99" type="line"/>
      <point x="-14" y="-103"/>
      <point x="3" y="-106"/>
      <point x="16" y="-106" type="curve" smooth="yes"/>
      <point x="63" y="-106"/>
      <point x="77" y="-71"/>
      <point x="77" y="-36" type="curve" smooth="yes"/>
    </contour>
    <contour>
      <point x="77" y="364" type="line"/>
      <point x="77" y="421" type="line"/>
      <point x="29" y="421" type="line"/>
      <point x="29" y="364" type="line"/>
    </contour>
  </outline>
</glyph>
<glyph name="k" format="1">
  <advance width="239"/>
  <unicode hex="006B"/>
  <outline>
    <contour>
      <point x="83" y="164" type="line"/>
      <point x="83" y="421" type="line"/>
      <point x="35" y="421" type="line"/>
      <point x="35" y="0" type="line"/>
      <point x="83" y="0" type="line"/>
      <point x="83" y="104" type="line"/>
      <point x="115" y="140" type="line"/>
      <point x="185" y="0" type="line"/>
      <point x="239" y="0" type="line"/>
      <point x="144" y="181" type="line"/>
      <point x="235" y="306" type="line"/>
      <point x="182" y="306" type="line"/>
    </contour>
    <contour>
      <point x="119" y="0" type="move" name="bottom"/>
    </contour>
  </outline>
</glyph>
<glyph name="m" format="1">
  <advance width="398"/>
  <unicode hex="006D"/>
  <outline>
    <contour>
      <point x="262" y="314"/>
      <point x="233" y="299"/>
      <point x="216" y="269" type="curve"/>
      <point x="205" y="301"/>
      <point x="181" y="314"/>
      <point x="151" y="314" type="curve" smooth="yes"/>
      <point x="122" y="314"/>
      <point x="98" y="301"/>
      <point x="81" y="271" type="curve"/>
      <point x="78" y="271" type="line"/>
      <point x="71" y="306" type="line"/>
      <point x="35" y="306" type="line"/>
      <point x="35" y="0" type="line"/>
      <point x="83" y="0" type="line"/>
      <point x="83" y="187" type="line" smooth="yes"/>
      <point x="83" y="240"/>
      <point x="107" y="271"/>
      <point x="136" y="271" type="curve" smooth="yes"/>
      <point x="158" y="271"/>
      <point x="175" y="260"/>
      <point x="175" y="217" type="curve" smooth="yes"/>
      <point x="175" y="0" type="line"/>
      <point x="223" y="0" type="line"/>
      <point x="223" y="187" type="line" smooth="yes"/>
      <point x="223" y="240"/>
      <point x="247" y="271"/>
      <point x="275" y="271" type="curve" smooth="yes"/>
      <point x="299" y="271"/>
      <point x="315" y="260"/>
      <point x="315" y="217" type="curve" smooth="yes"/>
      <point x="315" y="0" type="line"/>
      <point x="363" y="0" type="line"/>
      <point x="363" y="221" type="line" smooth="yes"/>
      <point x="363" y="289"/>
      <point x="334" y="314"/>
      <point x="291" y="314" type="curve" smooth="yes"/>
    </contour>
  </outline>
</glyph>
<glyph name="n" format="1">
  <advance width="266"/>
  <unicode hex="006E"/>
  <outline>
    <contour>
      <point x="125" y="314"/>
      <point x="98" y="301"/>
      <point x="81" y="271" type="curve"/>
      <point x="78" y="271" type="line"/>
      <point x="71" y="306" type="line"/>
      <point x="35" y="306" type="line"/>
      <point x="35" y="0" type="line"/>
      <point x="83" y="0" type="line"/>
      <point x="83" y="187" type="line" smooth="yes"/>
      <point x="83" y="240"/>
      <point x="109" y="271"/>
      <point x="140" y="271" type="curve" smooth="yes"/>
      <point x="165" y="271"/>
      <point x="183" y="260"/>
      <point x="183" y="217" type="curve" smooth="yes"/>
      <point x="183" y="0" type="line"/>
      <point x="231" y="0" type="line"/>
      <point x="231" y="221" type="line" smooth="yes"/>
      <point x="231" y="289"/>
      <point x="201" y="314"/>
      <point x="155" y="314" type="curve" smooth="yes"/>
    </contour>
    <contour>
      <point x="133" y="306" type="move" name="top"/>
    </contour>
    <contour>
      <point x="133" y="0" type="move" name="bottom"/>
    </contour>
  </outline>
</glyph>
<glyph name="p" format="1">
  <advance width="266"/>
  <unicode hex="0070"/>
  <outline>
    <contour>
      <point x="119" y="314"/>
      <point x="95" y="299"/>
      <point x="80" y="271" type="curve"/>
      <point x="78" y="271" type="line"/>
      <point x="71" y="306" type="line"/>
      <point x="35" y="306" type="line"/>
      <point x="35" y="-101" type="line"/>
      <point x="83" y="-101" type="line"/>
      <point x="83" y="27" type="line"/>
      <point x="86" y="27" type="line"/>
      <point x="96" y="6"/>
      <point x="121" y="-7"/>
      <point x="151" y="-7" type="curve" smooth="yes"/>
      <point x="202" y="-7"/>
      <point x="243" y="42"/>
      <point x="243" y="153" type="curve" smooth="yes"/>
      <point x="243" y="265"/>
      <point x="206" y="314"/>
      <point x="148" y="314" type="curve" smooth="yes"/>
    </contour>
    <contour>
      <point x="174" y="271"/>
      <point x="192" y="241"/>
      <point x="192" y="164" type="curve" smooth="yes"/>
      <point x="192" y="142" type="line" smooth="yes"/>
      <point x="192" y="66"/>
      <point x="174" y="36"/>
      <point x="138" y="36" type="curve" smooth="yes"/>
      <point x="101" y="36"/>
      <point x="83" y="72"/>
      <point x="83" y="142" type="curve" smooth="yes"/>
      <point x="83" y="164" type="line" smooth="yes"/>
      <point x="83" y="235"/>
      <point x="101" y="271"/>
      <point x="138" y="271" type="curve" smooth="yes"/>
    </contour>
  </outline>
</glyph>
<glyph name="q" format="1">
  <advance width="266"/>
  <unicode hex="0071"/>
  <outline>
    <contour>
      <point x="60" y="314"/>
      <point x="23" y="265"/>
      <point x="23" y="153" type="curve" smooth="yes"/>
      <point x="23" y="42"/>
      <point x="64" y="-7"/>
      <point x="115" y="-7" type="curve" smooth="yes"/>
      <point x="144" y="-7"/>
      <point x="169" y="6"/>
      <point x="180" y="27" type="curve"/>
      <point x="183" y="27" type="line"/>
      <point x="183" y="-101" type="line"/>
      <point x="231" y="-101" type="line"/>
      <point x="231" y="306" type="line"/>
      <point x="194" y="306" type="line"/>
      <point x="188" y="271" type="line"/>
      <point x="185" y="271" type="line"/>
      <point x="171" y="299"/>
      <point x="146" y="314"/>
      <point x="118" y="314" type="curve" smooth="yes"/>
    </contour>
    <contour>
      <point x="165" y="271"/>
      <point x="183" y="235"/>
      <point x="183" y="164" type="curve" smooth="yes"/>
      <point x="183" y="142" type="line" smooth="yes"/>
      <point x="183" y="72"/>
      <point x="165" y="36"/>
      <point x="128" y="36" type="curve" smooth="yes"/>
      <point x="92" y="36"/>
      <point x="73" y="66"/>
      <point x="73" y="142" type="curve" smooth="yes"/>
      <point x="73" y="164" type="line" smooth="yes"/>
      <point x="73" y="241"/>
      <point x="92" y="271"/>
      <point x="128" y="271" type="curve" smooth="yes"/>
    </contour>
  </outline>
</glyph>
<glyph name="s" format="1">
  <advance width="239"/>
  <unicode hex="0073"/>
  <outline>
    <contour>
      <point x="63" y="314"/>
      <point x="26" y="280"/>
      <point x="26" y="226" type="curve" smooth="yes"/>
      <point x="26" y="116"/>
      <point x="166" y="158"/>
      <point x="166" y="80" type="curve" smooth="yes"/>
      <point x="166" y="51"/>
      <point x="145" y="35"/>
      <point x="120" y="35" type="curve" smooth="yes"/>
      <point x="92" y="35"/>
      <point x="70" y="51"/>
      <point x="70" y="90" type="curve" smooth="yes"/>
      <point x="70" y="96" type="line"/>
      <point x="20" y="96" type="line"/>
      <point x="20" y="94"/>
      <point x="19" y="91"/>
      <point x="19" y="83" type="curve" smooth="yes"/>
      <point x="19" y="38"/>
      <point x="47" y="-7"/>
      <point x="118" y="-7" type="curve" smooth="yes"/>
      <point x="174" y="-7"/>
      <point x="215" y="22"/>
      <point x="215" y="88" type="curve" smooth="yes"/>
      <point x="215" y="202"/>
      <point x="76" y="163"/>
      <point x="76" y="229" type="curve" smooth="yes"/>
      <point x="76" y="246"/>
      <point x="83" y="272"/>
      <point x="117" y="272" type="curve" smooth="yes"/>
      <point x="150" y="272"/>
      <point x="159" y="248"/>
      <point x="159" y="223" type="curve" smooth="yes"/>
      <point x="159" y="218" type="line"/>
      <point x="209" y="218" type="line"/>
      <point x="209" y="219"/>
      <point x="210" y="225"/>
      <point x="210" y="229" type="curve" smooth="yes"/>
      <point x="210" y="275"/>
      <point x="179" y="314"/>
      <point x="122" y="314" type="curve" smooth="yes"/>
    </contour>
    <contour>
      <point x="119" y="306" type="move" name="top"/>
    </contour>
    <contour>
      <point x="119" y="0" type="move" name="bottom"/>
    </contour>
  </outline>
</glyph>
<glyph name="t" format="1">
  <advance width="133"/>
  <unicode hex="0074"/>
  <outline>
    <contour>
      <point x="82" y="306" type="line"/>
      <point x="82" y="391" type="line"/>
      <point x="45" y="391" type="line"/>
      <point x="34" y="306" type="line"/>
      <point x="8" y="306" type="line"/>
      <point x="8" y="264" type="line"/>
      <point x="34" y="264" type="line"/>
      <point x="34" y="65" type="line" smooth="yes"/>
      <point x="34" y="30"/>
      <point x="47" y="-6"/>
      <point x="89" y="-6" type="curve" smooth="yes"/>
      <point x="101" y="-6"/>
      <point x="115" y="-3"/>
      <point x="123" y="3" type="curve"/>
      <point x="123" y="36" type="line"/>
      <point x="109" y="36" type="line" smooth="yes"/>
      <point x="92" y="36"/>
      <point x="82" y="45"/>
      <point x="82" y="63" type="curve" smooth="yes"/>
      <point x="82" y="264" type="line"/>
      <point x="123" y="264" type="line"/>
      <point x="123" y="306" type="line"/>
    </contour>
    <contour>
      <point x="67" y="153" type="move" name="center"/>
    </contour>
    <contour>
      <point x="78" y="0" type="move" name="bottom"/>
    </contour>
  </outline>
</glyph>
<glyph name="u" format="1">
  <advance width="266"/>
  <unicode hex="0075"/>
  <outline>
    <contour>
      <point x="231" y="0" type="line"/>
      <point x="231" y="306" type="line"/>
      <point x="183" y="306" type="line"/>
      <point x="183" y="119" type="line" smooth="yes"/>
      <point x="183" y="67"/>
      <point x="156" y="36"/>
      <point x="126" y="36" type="curve" smooth="yes"/>
      <point x="100" y="36"/>
      <point x="83" y="47"/>
      <point x="83" y="89" type="curve" smooth="yes"/>
      <point x="83" y="306" type="line"/>
      <point x="35" y="306" type="line"/>
      <point x="35" y="86" type="line" smooth="yes"/>
      <point x="35" y="18"/>
      <point x="65" y="-7"/>
      <point x="111" y="-7" type="curve" smooth="yes"/>
      <point x="141" y="-7"/>
      <point x="168" y="5"/>
      <point x="185" y="36" type="curve"/>
      <point x="188" y="36" type="line"/>
      <point x="194" y="0" type="line"/>
    </contour>
    <contour>
      <point x="239" y="6" type="move" name="ogonek"/>
    </contour>
    <contour>
      <point x="133" y="306" type="move" name="top"/>
    </contour>
  </outline>
</glyph>
<glyph name="v" format="1">
  <advance width="239"/>
  <unicode hex="0076"/>
  <outline>
    <contour>
      <point x="233" y="306" type="line"/>
      <point x="185" y="306" type="line"/>
      <point x="143" y="148" type="line" smooth="yes"/>
      <point x="136" y="123"/>
      <point x="129" y="98"/>
      <point x="123" y="73" type="curve"/>
      <point x="121" y="73" type="line"/>
      <point x="113" y="99"/>
      <point x="107" y="124"/>
      <point x="100" y="150" type="curve" smooth="yes"/>
      <point x="58" y="306" type="line"/>
      <point x="6" y="306" type="line"/>
      <point x="94" y="0" type="line"/>
      <point x="146" y="0" type="line"/>
    </contour>
  </outline>
</glyph>
<glyph name="w" format="1">
  <advance width="345"/>
  <unicode hex="0077"/>
  <outline>
    <contour>
      <point x="268" y="0" type="line"/>
      <point x="344" y="306" type="line"/>
      <point x="295" y="306" type="line"/>
      <point x="257" y="134" type="line" smooth="yes"/>
      <point x="249" y="99"/>
      <point x="244" y="61"/>
      <point x="244" y="61" type="curve" smooth="yes"/>
      <point x="243" y="61" type="line" smooth="yes"/>
      <point x="243" y="61"/>
      <point x="239" y="103"/>
      <point x="233" y="134" type="curve" smooth="yes"/>
      <point x="202" y="306" type="line"/>
      <point x="146" y="306" type="line"/>
      <point x="115" y="134" type="line" smooth="yes"/>
      <point x="110" y="103"/>
      <point x="106" y="61"/>
      <point x="106" y="61" type="curve" smooth="yes"/>
      <point x="103" y="61" type="line" smooth="yes"/>
      <point x="103" y="61"/>
      <point x="98" y="109"/>
      <point x="92" y="134" type="curve" smooth="yes"/>
      <point x="53" y="306" type="line"/>
      <point x="1" y="306" type="line"/>
      <point x="77" y="0" type="line"/>
      <point x="130" y="0" type="line"/>
      <point x="161" y="175" type="line" smooth="yes"/>
      <point x="167" y="207"/>
      <point x="171" y="245"/>
      <point x="171" y="245" type="curve"/>
      <point x="173" y="245" type="line"/>
      <point x="173" y="245"/>
      <point x="177" y="206"/>
      <point x="183" y="175" type="curve" smooth="yes"/>
      <point x="214" y="0" type="line"/>
    </contour>
    <contour>
      <point x="173" y="306" type="move" name="top"/>
    </contour>
  </outline>
</glyph>
<glyph name="x" format="1">
  <advance width="239"/>
  <unicode hex="0078"/>
  <outline>
    <contour>
      <point x="231" y="306" type="line"/>
      <point x="178" y="306" type="line"/>
      <point x="119" y="198" type="line"/>
      <point x="122" y="198" type="line"/>
      <point x="65" y="306" type="line"/>
      <point x="7" y="306" type="line"/>
      <point x="93" y="155" type="line"/>
      <point x="3" y="0" type="line"/>
      <point x="56" y="0" type="line"/>
      <point x="119" y="115" type="line"/>
      <point x="117" y="115" type="line"/>
      <point x="178" y="0" type="line"/>
      <point x="235" y="0" type="line"/>
      <point x="146" y="159" type="line"/>
    </contour>
  </outline>
</glyph>
<glyph name="z" format="1">
  <advance width="239"/>
  <unicode hex="007A"/>
  <outline>
    <contour>
      <point x="215" y="284" type="line"/>
      <point x="215" y="306" type="line"/>
      <point x="24" y="306" type="line"/>
      <point x="24" y="264" type="line"/>
      <point x="150" y="264" type="line"/>
      <point x="15" y="22" type="line"/>
      <point x="15" y="0" type="line"/>
      <point x="223" y="0" type="line"/>
      <point x="223" y="43" type="line"/>
      <point x="80" y="43" type="line"/>
    </contour>
    <contour>
      <point x="119" y="306" type="move" name="top"/>
    </contour>
  </outline>
</glyph>
<glyph name="braceleft" format="1">
  <advance width="159"/>
  <unicode hex="007B"/>
  <outline>
    <contour>
      <point x="148" y="428" type="line"/>
      <point x="100" y="428"/>
      <point x="57" y="415"/>
      <point x="57" y="342" type="curve" smooth="yes"/>
      <point x="57" y="227" type="line" smooth="yes"/>
      <point x="57" y="201"/>
      <point x="33" y="192"/>
      <point x="12" y="192" type="curve"/>
      <point x="12" y="143" type="line"/>
      <point x="33" y="143"/>
      <point x="57" y="134"/>
      <point x="57" y="108" type="curve" smooth="yes"/>
      <point x="57" y="-7" type="line" smooth="yes"/>
      <point x="57" y="-80"/>
      <point x="100" y="-93"/>
      <point x="148" y="-93" type="curve"/>
      <point x="148" y="-59" type="line"/>
      <point x="127" y="-59"/>
      <point x="102" y="-53"/>
      <point x="102" y="-18" type="curve" smooth="yes"/>
      <point x="102" y="22"/>
      <point x="100" y="61"/>
      <point x="98" y="102" type="curve" smooth="yes"/>
      <point x="97" y="142"/>
      <point x="84" y="165"/>
      <point x="47" y="165" type="curve"/>
      <point x="47" y="171" type="line"/>
      <point x="84" y="171"/>
      <point x="97" y="194"/>
      <point x="98" y="233" type="curve" smooth="yes"/>
      <point x="100" y="274"/>
      <point x="102" y="314"/>
      <point x="102" y="354" type="curve" smooth="yes"/>
      <point x="102" y="388"/>
      <point x="127" y="395"/>
      <point x="148" y="395" type="curve"/>
    </contour>
  </outline>
</glyph>
<glyph name="bar" format="1">
  <advance width="196"/>
  <unicode hex="007C"/>
  <outline>
    <contour>
      <point x="134" y="-159" type="line"/>
      <point x="134" y="665" type="line"/>
      <point x="61" y="665" type="line"/>
      <point x="61" y="-159" type="line"/>
    </contour>
  </outline>
</glyph>
<glyph name="braceright" format="1">
  <advance width="159"/>
  <unicode hex="007D"/>
  <outline>
    <contour>
      <point x="12" y="395" type="line"/>
      <point x="33" y="395"/>
      <point x="58" y="388"/>
      <point x="58" y="354" type="curve" smooth="yes"/>
      <point x="58" y="314"/>
      <point x="60" y="274"/>
      <point x="62" y="233" type="curve" smooth="yes"/>
      <point x="63" y="194"/>
      <point x="76" y="171"/>
      <point x="113" y="171" type="curve"/>
      <point x="113" y="165" type="line"/>
      <point x="76" y="165"/>
      <point x="63" y="142"/>
      <point x="62" y="102" type="curve" smooth="yes"/>
      <point x="60" y="61"/>
      <point x="58" y="22"/>
      <point x="58" y="-18" type="curve" smooth="yes"/>
      <point x="58" y="-53"/>
      <point x="33" y="-59"/>
      <point x="12" y="-59" type="curve"/>
      <point x="12" y="-93" type="line"/>
      <point x="60" y="-93"/>
      <point x="103" y="-80"/>
      <point x="103" y="-7" type="curve" smooth="yes"/>
      <point x="103" y="108" type="line" smooth="yes"/>
      <point x="103" y="134"/>
      <point x="127" y="143"/>
      <point x="148" y="143" type="curve"/>
      <point x="148" y="192" type="line"/>
      <point x="127" y="192"/>
      <point x="103" y="201"/>
      <point x="103" y="227" type="curve" smooth="yes"/>
      <point x="103" y="342" type="line" smooth="yes"/>
      <point x="103" y="415"/>
      <point x="60" y="428"/>
      <point x="12" y="428" type="curve"/>
    </contour>
  </outline>
</glyph>
<glyph name="asciitilde" format="1">
  <advance width="279"/>
  <unicode hex="007E"/>
  <outline>
    <contour>
      <point x="258" y="226" type="line"/>
      <point x="258" y="226"/>
      <point x="230" y="183"/>
      <point x="190" y="183" type="curve" smooth="yes"/>
      <point x="153" y="183"/>
      <point x="125" y="219"/>
      <point x="89" y="219" type="curve" smooth="yes"/>
      <point x="43" y="219"/>
      <point x="20" y="177"/>
      <point x="20" y="177" type="curve"/>
      <point x="20" y="123" type="line"/>
      <point x="20" y="123"/>
      <point x="49" y="165"/>
      <point x="89" y="165" type="curve" smooth="yes"/>
      <point x="127" y="165"/>
      <point x="154" y="130"/>
      <point x="190" y="130" type="curve" smooth="yes"/>
      <point x="236" y="130"/>
      <point x="258" y="173"/>
      <point x="258" y="173" type="curve"/>
    </contour>
  </outline>
</glyph>
<glyph name="exclamdown" format="1">
  <advance width="159"/>
  <unicode hex="00A1"/>
  <outline>
    <contour>
      <point x="72" y="207" type="line"/>
      <point x="68" y="107"/>
      <point x="64" y="7"/>
      <point x="58" y="-93" type="curve"/>
      <point x="124" y="-93" type="line"/>
      <point x="121" y="-60"/>
      <point x="114" y="101"/>
      <point x="109" y="207" type="curve"/>
    </contour>
    <contour>
      <point x="121" y="306" type="line"/>
      <point x="63" y="306" type="line"/>
      <point x="63" y="244" type="line"/>
      <point x="121" y="244" type="line"/>
    </contour>
  </outline>
</glyph>
<glyph name="cent" format="1">
  <advance width="266"/>
  <unicode hex="00A2"/>
  <outline>
    <contour>
      <point x="151" y="421" type="line"/>
      <point x="123" y="421" type="line"/>
      <point x="123" y="359" type="line"/>
      <point x="58" y="353"/>
      <point x="28" y="302"/>
      <point x="28" y="200" type="curve" smooth="yes"/>
      <point x="28" y="98"/>
      <point x="58" y="47"/>
      <point x="123" y="40" type="curve"/>
      <point x="123" y="-28" type="line"/>
      <point x="151" y="-28" type="line"/>
      <point x="151" y="40" type="line"/>
      <point x="213" y="47"/>
      <point x="237" y="100"/>
      <point x="237" y="160" type="curve"/>
      <point x="190" y="160" type="line"/>
      <point x="190" y="115"/>
      <point x="179" y="89"/>
      <point x="151" y="83" type="curve"/>
      <point x="151" y="316" type="line"/>
      <point x="179" y="310"/>
      <point x="188" y="286"/>
      <point x="188" y="239" type="curve"/>
      <point x="237" y="239" type="line"/>
      <point x="237" y="312"/>
      <point x="212" y="354"/>
      <point x="151" y="359" type="curve"/>
    </contour>
    <contour>
      <point x="123" y="84" type="line"/>
      <point x="91" y="93"/>
      <point x="78" y="128"/>
      <point x="78" y="188" type="curve" smooth="yes"/>
      <point x="78" y="211" type="line" smooth="yes"/>
      <point x="78" y="272"/>
      <point x="92" y="307"/>
      <point x="123" y="315" type="curve"/>
    </contour>
  </outline>
</glyph>
<glyph name="sterling" format="1">
  <advance width="266"/>
  <unicode hex="00A3"/>
  <outline>
    <contour>
      <point x="88" y="407"/>
      <point x="53" y="368"/>
      <point x="53" y="291" type="curve" smooth="yes"/>
      <point x="53" y="219" type="line"/>
      <point x="11" y="219" type="line"/>
      <point x="11" y="177" type="line"/>
      <point x="53" y="177" type="line"/>
      <point x="53" y="46" type="line"/>
      <point x="18" y="46" type="line"/>
      <point x="18" y="0" type="line"/>
      <point x="241" y="0" type="line"/>
      <point x="241" y="46" type="line"/>
      <point x="96" y="46" type="line"/>
      <point x="101" y="177" type="line"/>
      <point x="179" y="177" type="line"/>
      <point x="179" y="219" type="line"/>
      <point x="101" y="219" type="line"/>
      <point x="101" y="300" type="line" smooth="yes"/>
      <point x="101" y="344"/>
      <point x="117" y="364"/>
      <point x="147" y="364" type="curve" smooth="yes"/>
      <point x="177" y="364"/>
      <point x="193" y="343"/>
      <point x="193" y="295" type="curve" smooth="yes"/>
      <point x="193" y="286" type="line"/>
      <point x="241" y="286" type="line"/>
      <point x="241" y="294" type="line" smooth="yes"/>
      <point x="241" y="377"/>
      <point x="204" y="407"/>
      <point x="147" y="407" type="curve" smooth="yes"/>
    </contour>
  </outline>
</glyph>
<glyph name="currency" format="1">
  <advance width="266"/>
  <unicode hex="00A4"/>
  <outline>
    <contour>
      <point x="101" y="343"/>
      <point x="72" y="330"/>
      <point x="51" y="309" type="curve"/>
      <point x="26" y="334" type="line"/>
      <point x="-2" y="306" type="line"/>
      <point x="27" y="277" type="line"/>
      <point x="14" y="254"/>
      <point x="7" y="228"/>
      <point x="7" y="199" type="curve" smooth="yes"/>
      <point x="7" y="170"/>
      <point x="14" y="143"/>
      <point x="27" y="121" type="curve"/>
      <point x="-2" y="93" type="line"/>
      <point x="26" y="65" type="line"/>
      <point x="51" y="90" type="line"/>
      <point x="73" y="69"/>
      <point x="101" y="56"/>
      <point x="133" y="56" type="curve" smooth="yes"/>
      <point x="163" y="56"/>
      <point x="192" y="69"/>
      <point x="214" y="90" type="curve"/>
      <point x="239" y="65" type="line"/>
      <point x="268" y="93" type="line"/>
      <point x="239" y="121" type="line"/>
      <point x="252" y="143"/>
      <point x="259" y="170"/>
      <point x="259" y="199" type="curve" smooth="yes"/>
      <point x="259" y="228"/>
      <point x="252" y="254"/>
      <point x="239" y="277" type="curve"/>
      <point x="268" y="306" type="line"/>
      <point x="239" y="334" type="line"/>
      <point x="214" y="309" type="line"/>
      <point x="192" y="330"/>
      <point x="163" y="343"/>
      <point x="133" y="343" type="curve" smooth="yes"/>
    </contour>
    <contour>
      <point x="181" y="303"/>
      <point x="219" y="257"/>
      <point x="219" y="199" type="curve" smooth="yes"/>
      <point x="219" y="142"/>
      <point x="181" y="96"/>
      <point x="133" y="96" type="curve" smooth="yes"/>
      <point x="84" y="96"/>
      <point x="46" y="142"/>
      <point x="46" y="199" type="curve" smooth="yes"/>
      <point x="46" y="257"/>
      <point x="84" y="303"/>
      <point x="133" y="303" type="curve" smooth="yes"/>
    </contour>
  </outline>
</glyph>
<glyph name="yen" format="1">
  <advance width="266"/>
  <unicode hex="00A5"/>
  <outline>
    <contour>
      <point x="177" y="215" type="line"/>
      <point x="264" y="399" type="line"/>
      <point x="215" y="399" type="line"/>
      <point x="138" y="229" type="line"/>
      <point x="136" y="229" type="line"/>
      <point x="57" y="399" type="line"/>
      <point x="1" y="399" type="line"/>
      <point x="89" y="215" type="line"/>
      <point x="14" y="215" type="line"/>
      <point x="14" y="177" type="line"/>
      <point x="107" y="177" type="line"/>
      <point x="107" y="136" type="line"/>
      <point x="14" y="136" type="line"/>
      <point x="14" y="98" type="line"/>
      <point x="107" y="98" type="line"/>
      <point x="107" y="0" type="line"/>
      <point x="158" y="0" type="line"/>
      <point x="158" y="98" type="line"/>
      <point x="251" y="98" type="line"/>
      <point x="251" y="136" type="line"/>
      <point x="158" y="136" type="line"/>
      <point x="158" y="177" type="line"/>
      <point x="251" y="177" type="line"/>
      <point x="251" y="215" type="line"/>
    </contour>
  </outline>
</glyph>
<glyph name="brokenbar" format="1">
  <advance width="196"/>
  <unicode hex="00A6"/>
  <outline>
    <contour>
      <point x="134" y="315" type="line"/>
      <point x="134" y="665" type="line"/>
      <point x="61" y="665" type="line"/>
      <point x="61" y="315" type="line"/>
    </contour>
    <contour>
      <point x="134" y="-159" type="line"/>
      <point x="134" y="190" type="line"/>
      <point x="61" y="190" type="line"/>
      <point x="61" y="-159" type="line"/>
    </contour>
  </outline>
</glyph>
<glyph name="section" format="1">
  <advance width="266"/>
  <unicode hex="00A7"/>
  <outline>
    <contour>
      <point x="80" y="407"/>
      <point x="45" y="374"/>
      <point x="45" y="319" type="curve" smooth="yes"/>
      <point x="45" y="281"/>
      <point x="60" y="257"/>
      <point x="80" y="239" type="curve"/>
      <point x="60" y="225"/>
      <point x="40" y="199"/>
      <point x="40" y="161" type="curve" smooth="yes"/>
      <point x="40" y="43"/>
      <point x="179" y="65"/>
      <point x="179" y="-22" type="curve" smooth="yes"/>
      <point x="179" y="-39"/>
      <point x="171" y="-64"/>
      <point x="138" y="-64" type="curve" smooth="yes"/>
      <point x="105" y="-64"/>
      <point x="96" y="-40"/>
      <point x="96" y="-16" type="curve" smooth="yes"/>
      <point x="96" y="-11" type="line"/>
      <point x="46" y="-11" type="line"/>
      <point x="46" y="-13"/>
      <point x="45" y="-18"/>
      <point x="45" y="-22" type="curve" smooth="yes"/>
      <point x="45" y="-68"/>
      <point x="76" y="-106"/>
      <point x="133" y="-106" type="curve" smooth="yes"/>
      <point x="194" y="-106"/>
      <point x="229" y="-73"/>
      <point x="229" y="-18" type="curve" smooth="yes"/>
      <point x="229" y="20"/>
      <point x="214" y="43"/>
      <point x="194" y="61" type="curve"/>
      <point x="214" y="75"/>
      <point x="235" y="101"/>
      <point x="235" y="139" type="curve" smooth="yes"/>
      <point x="235" y="257"/>
      <point x="95" y="236"/>
      <point x="95" y="323" type="curve" smooth="yes"/>
      <point x="95" y="339"/>
      <point x="103" y="364"/>
      <point x="136" y="364" type="curve" smooth="yes"/>
      <point x="169" y="364"/>
      <point x="179" y="341"/>
      <point x="179" y="317" type="curve" smooth="yes"/>
      <point x="179" y="312" type="line"/>
      <point x="229" y="312" type="line"/>
      <point x="229" y="313"/>
      <point x="229" y="319"/>
      <point x="229" y="323" type="curve" smooth="yes"/>
      <point x="229" y="368"/>
      <point x="198" y="407"/>
      <point x="141" y="407" type="curve" smooth="yes"/>
    </contour>
    <contour>
      <point x="145" y="197"/>
      <point x="188" y="180"/>
      <point x="188" y="127" type="curve" smooth="yes"/>
      <point x="188" y="105"/>
      <point x="180" y="89"/>
      <point x="168" y="79" type="curve"/>
      <point x="129" y="103"/>
      <point x="86" y="121"/>
      <point x="86" y="173" type="curve" smooth="yes"/>
      <point x="86" y="195"/>
      <point x="94" y="212"/>
      <point x="106" y="221" type="curve"/>
    </contour>
  </outline>
</glyph>
<glyph name="dieresis" format="1">
  <advance width="159"/>
  <unicode hex="00A8"/>
  <outline>
    <contour>
      <point x="148" y="366" type="line"/>
      <point x="148" y="421" type="line"/>
      <point x="98" y="421" type="line"/>
      <point x="98" y="366" type="line"/>
    </contour>
    <contour>
      <point x="61" y="366" type="line"/>
      <point x="61" y="421" type="line"/>
      <point x="11" y="421" type="line"/>
      <point x="11" y="366" type="line"/>
    </contour>
    <contour>
      <point x="80" y="306" type="move" name="_top"/>
    </contour>
  </outline>
</glyph>
<glyph name="copyright" format="1">
  <advance width="352"/>
  <unicode hex="00A9"/>
  <outline>
    <contour>
      <point x="74" y="407"/>
      <point x="13" y="326"/>
      <point x="13" y="200" type="curve" smooth="yes"/>
      <point x="13" y="74"/>
      <point x="74" y="-7"/>
      <point x="176" y="-7" type="curve" smooth="yes"/>
      <point x="278" y="-7"/>
      <point x="339" y="74"/>
      <point x="339" y="200" type="curve" smooth="yes"/>
      <point x="339" y="326"/>
      <point x="278" y="407"/>
      <point x="176" y="407" type="curve" smooth="yes"/>
    </contour>
    <contour>
      <point x="116" y="325"/>
      <point x="84" y="285"/>
      <point x="84" y="203" type="curve" smooth="yes"/>
      <point x="84" y="121"/>
      <point x="116" y="81"/>
      <point x="177" y="81" type="curve" smooth="yes"/>
      <point x="225" y="81"/>
      <point x="259" y="109"/>
      <point x="259" y="169" type="curve"/>
      <point x="227" y="169" type="line"/>
      <point x="227" y="130"/>
      <point x="207" y="111"/>
      <point x="177" y="111" type="curve" smooth="yes"/>
      <point x="138" y="111"/>
      <point x="119" y="139"/>
      <point x="119" y="194" type="curve" smooth="yes"/>
      <point x="119" y="212" type="line" smooth="yes"/>
      <point x="119" y="268"/>
      <point x="138" y="295"/>
      <point x="177" y="295" type="curve" smooth="yes"/>
      <point x="206" y="295"/>
      <point x="225" y="275"/>
      <point x="225" y="236" type="curve"/>
      <point x="259" y="236" type="line"/>
      <point x="259" y="296"/>
      <point x="225" y="325"/>
      <point x="177" y="325" type="curve" smooth="yes"/>
    </contour>
    <contour>
      <point x="261" y="379"/>
      <point x="313" y="309"/>
      <point x="313" y="200" type="curve" smooth="yes"/>
      <point x="313" y="91"/>
      <point x="261" y="20"/>
      <point x="176" y="20" type="curve" smooth="yes"/>
      <point x="91" y="20"/>
      <point x="39" y="91"/>
      <point x="39" y="200" type="curve" smooth="yes"/>
      <point x="39" y="309"/>
      <point x="91" y="379"/>
      <point x="176" y="379" type="curve" smooth="yes"/>
    </contour>
  </outline>
</glyph>
<glyph name="ordfeminine" format="1">
  <advance width="177"/>
  <unicode hex="00AA"/>
  <outline>
    <contour>
      <point x="47" y="428"/>
      <point x="20" y="409"/>
      <point x="20" y="370" type="curve" smooth="yes"/>
      <point x="20" y="366"/>
      <point x="20" y="364"/>
      <point x="20" y="360" type="curve"/>
      <point x="54" y="360" type="line"/>
      <point x="54" y="366" type="line" smooth="yes"/>
      <point x="54" y="382"/>
      <point x="62" y="398"/>
      <point x="85" y="398" type="curve" smooth="yes"/>
      <point x="109" y="398"/>
      <point x="116" y="384"/>
      <point x="116" y="365" type="curve" smooth="yes"/>
      <point x="116" y="340" type="line"/>
      <point x="56" y="340"/>
      <point x="12" y="328"/>
      <point x="12" y="270" type="curve" smooth="yes"/>
      <point x="12" y="219"/>
      <point x="46" y="211"/>
      <point x="67" y="211" type="curve" smooth="yes"/>
      <point x="89" y="211"/>
      <point x="108" y="221"/>
      <point x="119" y="239" type="curve"/>
      <point x="117" y="240" type="line"/>
      <point x="121" y="223"/>
      <point x="134" y="213"/>
      <point x="152" y="213" type="curve" smooth="yes"/>
      <point x="161" y="213"/>
      <point x="169" y="215"/>
      <point x="173" y="218" type="curve"/>
      <point x="173" y="242" type="line"/>
      <point x="160" y="242" type="line" smooth="yes"/>
      <point x="156" y="242"/>
      <point x="150" y="245"/>
      <point x="150" y="254" type="curve" smooth="yes"/>
      <point x="150" y="370" type="line" smooth="yes"/>
      <point x="150" y="407"/>
      <point x="129" y="428"/>
      <point x="87" y="428" type="curve" smooth="yes"/>
    </contour>
    <contour>
      <point x="116" y="291" type="line"/>
      <point x="116" y="258"/>
      <point x="94" y="242"/>
      <point x="74" y="242" type="curve" smooth="yes"/>
      <point x="57" y="242"/>
      <point x="47" y="249"/>
      <point x="47" y="272" type="curve" smooth="yes"/>
      <point x="47" y="303"/>
      <point x="76" y="309"/>
      <point x="116" y="309" type="curve"/>
    </contour>
  </outline>
</glyph>
<glyph name="guillemotleft" format="1">
  <advance width="419"/>
  <unicode hex="00AB"/>
  <outline>
    <contour>
      <point x="281" y="300" type="line"/>
      <point x="384" y="484" type="line"/>
      <point x="319" y="484" type="line"/>
      <point x="188" y="300" type="line"/>
      <point x="319" y="115" type="line"/>
      <point x="384" y="115" type="line"/>
    </contour>
    <contour>
      <point x="140" y="300" type="line"/>
      <point x="244" y="484" type="line"/>
      <point x="179" y="484" type="line"/>
      <point x="50" y="300" type="line"/>
      <point x="179" y="115" type="line"/>
      <point x="244" y="115" type="line"/>
    </contour>
  </outline>
</glyph>
<glyph name="logicalnot" format="1">
  <advance width="279"/>
  <unicode hex="00AC"/>
  <outline>
    <contour>
      <point x="254" y="115" type="line"/>
      <point x="254" y="264" type="line"/>
      <point x="22" y="264" type="line"/>
      <point x="22" y="210" type="line"/>
      <point x="204" y="210" type="line"/>
      <point x="204" y="115" type="line"/>
    </contour>
  </outline>
</glyph>
<glyph name="registered" format="1">
  <advance width="352"/>
  <unicode hex="00AE"/>
  <outline>
    <contour>
      <point x="74" y="407"/>
      <point x="13" y="326"/>
      <point x="13" y="200" type="curve" smooth="yes"/>
      <point x="13" y="74"/>
      <point x="74" y="-7"/>
      <point x="176" y="-7" type="curve" smooth="yes"/>
      <point x="278" y="-7"/>
      <point x="339" y="74"/>
      <point x="339" y="200" type="curve" smooth="yes"/>
      <point x="339" y="326"/>
      <point x="278" y="407"/>
      <point x="176" y="407" type="curve" smooth="yes"/>
    </contour>
    <contour>
      <point x="261" y="379"/>
      <point x="313" y="309"/>
      <point x="313" y="200" type="curve" smooth="yes"/>
      <point x="313" y="91"/>
      <point x="261" y="20"/>
      <point x="176" y="20" type="curve" smooth="yes"/>
      <point x="91" y="20"/>
      <point x="39" y="91"/>
      <point x="39" y="200" type="curve" smooth="yes"/>
      <point x="39" y="309"/>
      <point x="91" y="379"/>
      <point x="176" y="379" type="curve" smooth="yes"/>
    </contour>
    <contour>
      <point x="101" y="320" type="line"/>
      <point x="101" y="86" type="line"/>
      <point x="134" y="86" type="line"/>
      <point x="134" y="188" type="line"/>
      <point x="182" y="188" type="line" smooth="yes"/>
      <point x="198" y="188"/>
      <point x="219" y="177"/>
      <point x="219" y="129" type="curve" smooth="yes"/>
      <point x="219" y="94"/>
      <point x="235" y="84"/>
      <point x="253" y="84" type="curve" smooth="yes"/>
      <point x="259" y="84"/>
      <point x="267" y="86"/>
      <point x="270" y="88" type="curve"/>
      <point x="270" y="98" type="line"/>
      <point x="259" y="101"/>
      <point x="254" y="109"/>
      <point x="254" y="142" type="curve" smooth="yes"/>
      <point x="254" y="187"/>
      <point x="225" y="202"/>
      <point x="218" y="204" type="curve"/>
      <point x="218" y="207" type="line"/>
      <point x="239" y="214"/>
      <point x="255" y="233"/>
      <point x="255" y="262" type="curve" smooth="yes"/>
      <point x="255" y="297"/>
      <point x="229" y="320"/>
      <point x="195" y="320" type="curve" smooth="yes"/>
    </contour>
    <contour>
      <point x="134" y="289" type="line"/>
      <point x="185" y="289" type="line" smooth="yes"/>
      <point x="206" y="289"/>
      <point x="221" y="277"/>
      <point x="221" y="255" type="curve" smooth="yes"/>
      <point x="221" y="234"/>
      <point x="206" y="219"/>
      <point x="183" y="219" type="curve" smooth="yes"/>
      <point x="134" y="219" type="line"/>
    </contour>
  </outline>
</glyph>
<glyph name="degree" format="1">
  <advance width="233"/>
  <unicode hex="00B0"/>
  <outline>
    <contour>
      <point x="72" y="407"/>
      <point x="37" y="372"/>
      <point x="37" y="328" type="curve" smooth="yes"/>
      <point x="37" y="284"/>
      <point x="72" y="249"/>
      <point x="115" y="249" type="curve" smooth="yes"/>
      <point x="159" y="249"/>
      <point x="194" y="284"/>
      <point x="194" y="328" type="curve" smooth="yes"/>
      <point x="194" y="372"/>
      <point x="159" y="407"/>
      <point x="115" y="407" type="curve" smooth="yes"/>
    </contour>
    <contour>
      <point x="142" y="375"/>
      <point x="163" y="354"/>
      <point x="163" y="328" type="curve" smooth="yes"/>
      <point x="163" y="302"/>
      <point x="142" y="280"/>
      <point x="115" y="280" type="curve" smooth="yes"/>
      <point x="89" y="280"/>
      <point x="68" y="302"/>
      <point x="68" y="328" type="curve" smooth="yes"/>
      <point x="68" y="354"/>
      <point x="89" y="375"/>
      <point x="115" y="375" type="curve" smooth="yes"/>
    </contour>
  </outline>
</glyph>
<glyph name="plusminus" format="1">
  <advance width="320"/>
  <unicode hex="00B1"/>
  <outline>
    <contour>
      <point x="183" y="229" type="line"/>
      <point x="183" y="337" type="line"/>
      <point x="135" y="337" type="line"/>
      <point x="135" y="229" type="line"/>
      <point x="45" y="229" type="line"/>
      <point x="45" y="181" type="line"/>
      <point x="135" y="181" type="line"/>
      <point x="135" y="74" type="line"/>
      <point x="183" y="74" type="line"/>
      <point x="183" y="181" type="line"/>
      <point x="273" y="181" type="line"/>
      <point x="273" y="229" type="line"/>
    </contour>
    <contour>
      <point x="273" y="0" type="line"/>
      <point x="273" y="48" type="line"/>
      <point x="45" y="48" type="line"/>
      <point x="45" y="0" type="line"/>
    </contour>
  </outline>
</glyph>
<glyph name="twosuperior" format="1">
  <advance width="251"/>
  <unicode hex="00B2"/>
  <outline>
    <contour>
      <point x="75" y="676"/>
      <point x="26" y="642"/>
      <point x="26" y="560" type="curve" smooth="yes"/>
      <point x="26" y="548"/>
      <point x="28" y="532"/>
      <point x="28" y="532" type="curve"/>
      <point x="85" y="532" type="line"/>
      <point x="85" y="561" type="line" smooth="yes"/>
      <point x="85" y="594"/>
      <point x="98" y="622"/>
      <point x="129" y="622" type="curve" smooth="yes"/>
      <point x="162" y="622"/>
      <point x="171" y="596"/>
      <point x="171" y="575" type="curve" smooth="yes"/>
      <point x="171" y="519"/>
      <point x="122" y="478"/>
      <point x="80" y="432" type="curve" smooth="yes"/>
      <point x="49" y="397"/>
      <point x="22" y="360"/>
      <point x="22" y="311" type="curve" smooth="yes"/>
      <point x="22" y="296" type="line"/>
      <point x="232" y="296" type="line"/>
      <point x="232" y="354" type="line"/>
      <point x="93" y="354" type="line"/>
      <point x="104" y="379"/>
      <point x="127" y="399"/>
      <point x="145" y="418" type="curve" smooth="yes"/>
      <point x="184" y="462"/>
      <point x="231" y="515"/>
      <point x="231" y="575" type="curve" smooth="yes"/>
      <point x="231" y="647"/>
      <point x="185" y="676"/>
      <point x="130" y="676" type="curve" smooth="yes"/>
    </contour>
  </outline>
</glyph>
<glyph name="uni00B2" format="1">
  <advance width="159"/>
  <unicode hex="00B2"/>
  <outline>
    <contour>
      <point x="47" y="428"/>
      <point x="16" y="407"/>
      <point x="16" y="355" type="curve" smooth="yes"/>
      <point x="16" y="347"/>
      <point x="18" y="337"/>
      <point x="18" y="337" type="curve"/>
      <point x="54" y="337" type="line"/>
      <point x="54" y="355" type="line" smooth="yes"/>
      <point x="54" y="376"/>
      <point x="62" y="394"/>
      <point x="82" y="394" type="curve" smooth="yes"/>
      <point x="103" y="394"/>
      <point x="108" y="378"/>
      <point x="108" y="364" type="curve" smooth="yes"/>
      <point x="108" y="329"/>
      <point x="77" y="303"/>
      <point x="51" y="273" type="curve" smooth="yes"/>
      <point x="31" y="252"/>
      <point x="14" y="228"/>
      <point x="14" y="197" type="curve" smooth="yes"/>
      <point x="14" y="188" type="line"/>
      <point x="147" y="188" type="line"/>
      <point x="147" y="224" type="line"/>
      <point x="59" y="224" type="line"/>
      <point x="66" y="240"/>
      <point x="80" y="253"/>
      <point x="92" y="265" type="curve" smooth="yes"/>
      <point x="117" y="293"/>
      <point x="146" y="326"/>
      <point x="146" y="364" type="curve" smooth="yes"/>
      <point x="146" y="410"/>
      <point x="117" y="428"/>
      <point x="82" y="428" type="curve" smooth="yes"/>
    </contour>
  </outline>
</glyph>
<glyph name="threesuperior" format="1">
  <advance width="251"/>
  <unicode hex="00B3"/>
  <outline>
    <contour>
      <point x="69" y="676"/>
      <point x="28" y="634"/>
      <point x="28" y="570" type="curve" smooth="yes"/>
      <point x="28" y="553" type="line"/>
      <point x="85" y="553" type="line"/>
      <point x="85" y="566" type="line" smooth="yes"/>
      <point x="85" y="605"/>
      <point x="105" y="623"/>
      <point x="129" y="623" type="curve" smooth="yes"/>
      <point x="151" y="623"/>
      <point x="171" y="606"/>
      <point x="171" y="567" type="curve" smooth="yes"/>
      <point x="171" y="529"/>
      <point x="150" y="512"/>
      <point x="126" y="512" type="curve" smooth="yes"/>
      <point x="93" y="512" type="line"/>
      <point x="93" y="460" type="line"/>
      <point x="125" y="460" type="line" smooth="yes"/>
      <point x="152" y="460"/>
      <point x="177" y="448"/>
      <point x="177" y="402" type="curve" smooth="yes"/>
      <point x="177" y="361"/>
      <point x="156" y="343"/>
      <point x="126" y="343" type="curve" smooth="yes"/>
      <point x="96" y="343"/>
      <point x="80" y="363"/>
      <point x="80" y="404" type="curve" smooth="yes"/>
      <point x="80" y="416" type="line"/>
      <point x="21" y="416" type="line"/>
      <point x="21" y="406" type="line" smooth="yes"/>
      <point x="21" y="335"/>
      <point x="59" y="290"/>
      <point x="130" y="290" type="curve" smooth="yes"/>
      <point x="191" y="290"/>
      <point x="234" y="331"/>
      <point x="234" y="400" type="curve" smooth="yes"/>
      <point x="234" y="443"/>
      <point x="213" y="473"/>
      <point x="185" y="488" type="curve"/>
      <point x="212" y="505"/>
      <point x="229" y="528"/>
      <point x="229" y="570" type="curve" smooth="yes"/>
      <point x="229" y="638"/>
      <point x="188" y="676"/>
      <point x="128" y="676" type="curve" smooth="yes"/>
    </contour>
  </outline>
</glyph>
<glyph name="uni00B3" format="1">
  <advance width="159"/>
  <unicode hex="00B3"/>
  <outline>
    <contour>
      <point x="43" y="428"/>
      <point x="18" y="402"/>
      <point x="18" y="361" type="curve" smooth="yes"/>
      <point x="18" y="351" type="line"/>
      <point x="54" y="351" type="line"/>
      <point x="54" y="358" type="line" smooth="yes"/>
      <point x="54" y="384"/>
      <point x="67" y="395"/>
      <point x="82" y="395" type="curve" smooth="yes"/>
      <point x="96" y="395"/>
      <point x="108" y="384"/>
      <point x="108" y="359" type="curve" smooth="yes"/>
      <point x="108" y="335"/>
      <point x="95" y="324"/>
      <point x="80" y="324" type="curve" smooth="yes"/>
      <point x="59" y="324" type="line"/>
      <point x="59" y="291" type="line"/>
      <point x="79" y="291" type="line" smooth="yes"/>
      <point x="96" y="291"/>
      <point x="112" y="284"/>
      <point x="112" y="255" type="curve" smooth="yes"/>
      <point x="112" y="229"/>
      <point x="99" y="217"/>
      <point x="80" y="217" type="curve" smooth="yes"/>
      <point x="61" y="217"/>
      <point x="51" y="230"/>
      <point x="51" y="256" type="curve" smooth="yes"/>
      <point x="51" y="264" type="line"/>
      <point x="13" y="264" type="line"/>
      <point x="13" y="257" type="line" smooth="yes"/>
      <point x="13" y="212"/>
      <point x="38" y="184"/>
      <point x="82" y="184" type="curve" smooth="yes"/>
      <point x="121" y="184"/>
      <point x="148" y="210"/>
      <point x="148" y="254" type="curve" smooth="yes"/>
      <point x="148" y="281"/>
      <point x="135" y="300"/>
      <point x="117" y="309" type="curve"/>
      <point x="134" y="320"/>
      <point x="145" y="335"/>
      <point x="145" y="361" type="curve" smooth="yes"/>
      <point x="145" y="404"/>
      <point x="119" y="428"/>
      <point x="81" y="428" type="curve" smooth="yes"/>
    </contour>
  </outline>
</glyph>
<glyph name="acute" format="1">
  <advance width="159"/>
  <unicode hex="00B4"/>
  <outline>
    <contour>
      <point x="143" y="419" type="line"/>
      <point x="142" y="421" type="line"/>
      <point x="90" y="421" type="line"/>
      <point x="40" y="344" type="line"/>
      <point x="80" y="344" type="line"/>
    </contour>
    <contour>
      <point x="92" y="306" type="move" name="_top"/>
    </contour>
  </outline>
</glyph>
<glyph name="paragraph" format="1">
  <advance width="256"/>
  <unicode hex="00B6"/>
  <outline>
    <contour>
      <point x="244" y="364" type="line"/>
      <point x="244" y="399" type="line"/>
      <point x="123" y="399" type="line" smooth="yes"/>
      <point x="60" y="399"/>
      <point x="11" y="343"/>
      <point x="11" y="272" type="curve" smooth="yes"/>
      <point x="11" y="206"/>
      <point x="53" y="153"/>
      <point x="109" y="146" type="curve"/>
      <point x="109" y="-101" type="line"/>
      <point x="147" y="-101" type="line"/>
      <point x="147" y="364" type="line"/>
      <point x="178" y="364" type="line"/>
      <point x="178" y="-101" type="line"/>
      <point x="216" y="-101" type="line"/>
      <point x="216" y="364" type="line"/>
    </contour>
  </outline>
</glyph>
<glyph name="periodcentered" format="1">
  <advance width="133"/>
  <unicode hex="00B7"/>
  <outline>
    <contour>
      <point x="96" y="168" type="line"/>
      <point x="96" y="233" type="line"/>
      <point x="37" y="233" type="line"/>
      <point x="37" y="168" type="line"/>
    </contour>
  </outline>
</glyph>
<glyph name="cedilla" format="1">
  <advance width="159"/>
  <unicode hex="00B8"/>
  <outline>
    <contour>
      <point x="88" y="7" type="line"/>
      <point x="55" y="7" type="line"/>
      <point x="47" y="-45" type="line"/>
      <point x="67" y="-45" type="line" smooth="yes"/>
      <point x="82" y="-45"/>
      <point x="86" y="-49"/>
      <point x="86" y="-59" type="curve" smooth="yes"/>
      <point x="86" y="-70"/>
      <point x="78" y="-73"/>
      <point x="65" y="-73" type="curve" smooth="yes"/>
      <point x="21" y="-73" type="line"/>
      <point x="21" y="-101" type="line"/>
      <point x="35" y="-104"/>
      <point x="53" y="-106"/>
      <point x="70" y="-106" type="curve" smooth="yes"/>
      <point x="94" y="-106"/>
      <point x="130" y="-98"/>
      <point x="130" y="-59" type="curve" smooth="yes"/>
      <point x="130" y="-32"/>
      <point x="108" y="-22"/>
      <point x="83" y="-21" type="curve"/>
    </contour>
    <contour>
      <point x="76" y="0" type="move" name="_bottom"/>
    </contour>
  </outline>
</glyph>
<glyph name="uni00B9" format="1">
  <advance width="159"/>
  <unicode hex="00B9"/>
  <outline>
    <contour>
      <point x="105" y="221" type="line"/>
      <point x="105" y="422" type="line"/>
      <point x="88" y="422" type="line"/>
      <point x="71" y="409"/>
      <point x="41" y="399"/>
      <point x="22" y="397" type="curve"/>
      <point x="22" y="372" type="line"/>
      <point x="69" y="372" type="line"/>
      <point x="69" y="221" type="line"/>
      <point x="23" y="221" type="line"/>
      <point x="23" y="188" type="line"/>
      <point x="148" y="188" type="line"/>
      <point x="148" y="221" type="line"/>
    </contour>
  </outline>
</glyph>
<glyph name="ordmasculine" format="1">
  <advance width="275"/>
  <unicode hex="00BA"/>
  <outline>
    <contour>
      <point x="60" y="676"/>
      <point x="20" y="622"/>
      <point x="20" y="503" type="curve" smooth="yes"/>
      <point x="20" y="386"/>
      <point x="60" y="332"/>
      <point x="137" y="332" type="curve" smooth="yes"/>
      <point x="214" y="332"/>
      <point x="255" y="386"/>
      <point x="255" y="503" type="curve" smooth="yes"/>
      <point x="255" y="622"/>
      <point x="214" y="676"/>
      <point x="137" y="676" type="curve" smooth="yes"/>
    </contour>
    <contour>
      <point x="178" y="627"/>
      <point x="199" y="590"/>
      <point x="199" y="516" type="curve" smooth="yes"/>
      <point x="199" y="492" type="line" smooth="yes"/>
      <point x="199" y="418"/>
      <point x="178" y="381"/>
      <point x="137" y="381" type="curve" smooth="yes"/>
      <point x="96" y="381"/>
      <point x="76" y="418"/>
      <point x="76" y="492" type="curve" smooth="yes"/>
      <point x="76" y="516" type="line" smooth="yes"/>
      <point x="76" y="590"/>
      <point x="96" y="627"/>
      <point x="137" y="627" type="curve" smooth="yes"/>
    </contour>
  </outline>
</glyph>
<glyph name="guillemotright" format="1">
  <advance width="266"/>
  <unicode hex="00BB"/>
  <outline>
    <contour>
      <point x="234" y="190" type="line"/>
      <point x="152" y="306" type="line"/>
      <point x="111" y="306" type="line"/>
      <point x="177" y="190" type="line"/>
      <point x="111" y="73" type="line"/>
      <point x="152" y="73" type="line"/>
    </contour>
    <contour>
      <point x="146" y="190" type="line"/>
      <point x="63" y="306" type="line"/>
      <point x="22" y="306" type="line"/>
      <point x="88" y="190" type="line"/>
      <point x="22" y="73" type="line"/>
      <point x="63" y="73" type="line"/>
    </contour>
  </outline>
</glyph>
<glyph name="onequarter" format="1">
  <advance width="399"/>
  <unicode hex="00BC"/>
  <outline>
    <contour>
      <point x="103" y="-7" type="line"/>
      <point x="345" y="407" type="line"/>
      <point x="309" y="407" type="line"/>
      <point x="67" y="-7" type="line"/>
    </contour>
    <contour>
      <point x="101" y="199" type="line"/>
      <point x="101" y="399" type="line"/>
      <point x="84" y="399" type="line"/>
      <point x="66" y="387"/>
      <point x="36" y="377"/>
      <point x="18" y="374" type="curve"/>
      <point x="18" y="349" type="line"/>
      <point x="65" y="349" type="line"/>
      <point x="65" y="199" type="line"/>
      <point x="18" y="199" type="line"/>
      <point x="18" y="165" type="line"/>
      <point x="143" y="165" type="line"/>
      <point x="143" y="199" type="line"/>
    </contour>
    <contour>
      <point x="287" y="241" type="line"/>
      <point x="273" y="187"/>
      <point x="251" y="130"/>
      <point x="227" y="86" type="curve"/>
      <point x="227" y="56" type="line"/>
      <point x="314" y="56" type="line"/>
      <point x="314" y="0" type="line"/>
      <point x="351" y="0" type="line"/>
      <point x="351" y="56" type="line"/>
      <point x="374" y="56" type="line"/>
      <point x="374" y="89" type="line"/>
      <point x="351" y="89" type="line"/>
      <point x="351" y="207" type="line"/>
      <point x="335" y="207" type="line"/>
      <point x="330" y="184"/>
      <point x="320" y="156"/>
      <point x="314" y="142" type="curve"/>
      <point x="314" y="89" type="line"/>
      <point x="265" y="89" type="line"/>
      <point x="280" y="115"/>
      <point x="310" y="181"/>
      <point x="324" y="241" type="curve"/>
    </contour>
  </outline>
</glyph>
<glyph name="onehalf" format="1">
  <advance width="399"/>
  <unicode hex="00BD"/>
  <outline>
    <contour>
      <point x="98" y="-7" type="line"/>
      <point x="339" y="407" type="line"/>
      <point x="303" y="407" type="line"/>
      <point x="61" y="-7" type="line"/>
    </contour>
    <contour>
      <point x="101" y="199" type="line"/>
      <point x="101" y="399" type="line"/>
      <point x="84" y="399" type="line"/>
      <point x="66" y="387"/>
      <point x="36" y="377"/>
      <point x="18" y="374" type="curve"/>
      <point x="18" y="349" type="line"/>
      <point x="65" y="349" type="line"/>
      <point x="65" y="199" type="line"/>
      <point x="18" y="199" type="line"/>
      <point x="18" y="165" type="line"/>
      <point x="143" y="165" type="line"/>
      <point x="143" y="199" type="line"/>
    </contour>
    <contour>
      <point x="273" y="241"/>
      <point x="243" y="219"/>
      <point x="243" y="167" type="curve" smooth="yes"/>
      <point x="243" y="159"/>
      <point x="244" y="150"/>
      <point x="244" y="150" type="curve"/>
      <point x="281" y="150" type="line"/>
      <point x="281" y="168" type="line" smooth="yes"/>
      <point x="281" y="188"/>
      <point x="289" y="206"/>
      <point x="308" y="206" type="curve" smooth="yes"/>
      <point x="329" y="206"/>
      <point x="334" y="190"/>
      <point x="334" y="177" type="curve" smooth="yes"/>
      <point x="334" y="143"/>
      <point x="306" y="118"/>
      <point x="281" y="90" type="curve" smooth="yes"/>
      <point x="260" y="67"/>
      <point x="241" y="42"/>
      <point x="241" y="9" type="curve" smooth="yes"/>
      <point x="241" y="0" type="line"/>
      <point x="374" y="0" type="line"/>
      <point x="374" y="37" type="line"/>
      <point x="285" y="37" type="line"/>
      <point x="293" y="53"/>
      <point x="307" y="65"/>
      <point x="318" y="78" type="curve" smooth="yes"/>
      <point x="343" y="105"/>
      <point x="373" y="138"/>
      <point x="373" y="177" type="curve" smooth="yes"/>
      <point x="373" y="223"/>
      <point x="344" y="241"/>
      <point x="309" y="241" type="curve" smooth="yes"/>
    </contour>
  </outline>
</glyph>
<glyph name="threequarters" format="1">
  <advance width="399"/>
  <unicode hex="00BE"/>
  <outline>
    <contour>
      <point x="99" y="-7" type="line"/>
      <point x="341" y="407" type="line"/>
      <point x="304" y="407" type="line"/>
      <point x="63" y="-7" type="line"/>
    </contour>
    <contour>
      <point x="46" y="407"/>
      <point x="20" y="380"/>
      <point x="20" y="339" type="curve" smooth="yes"/>
      <point x="20" y="329" type="line"/>
      <point x="57" y="329" type="line"/>
      <point x="57" y="337" type="line" smooth="yes"/>
      <point x="57" y="362"/>
      <point x="69" y="374"/>
      <point x="84" y="374" type="curve" smooth="yes"/>
      <point x="98" y="374"/>
      <point x="111" y="363"/>
      <point x="111" y="338" type="curve" smooth="yes"/>
      <point x="111" y="314"/>
      <point x="98" y="303"/>
      <point x="82" y="303" type="curve" smooth="yes"/>
      <point x="61" y="303" type="line"/>
      <point x="61" y="270" type="line"/>
      <point x="82" y="270" type="line" smooth="yes"/>
      <point x="98" y="270"/>
      <point x="114" y="262"/>
      <point x="114" y="233" type="curve" smooth="yes"/>
      <point x="114" y="208"/>
      <point x="101" y="196"/>
      <point x="82" y="196" type="curve" smooth="yes"/>
      <point x="63" y="196"/>
      <point x="53" y="208"/>
      <point x="53" y="234" type="curve" smooth="yes"/>
      <point x="53" y="242" type="line"/>
      <point x="16" y="242" type="line"/>
      <point x="16" y="235" type="line" smooth="yes"/>
      <point x="16" y="190"/>
      <point x="40" y="163"/>
      <point x="84" y="163" type="curve" smooth="yes"/>
      <point x="123" y="163"/>
      <point x="151" y="188"/>
      <point x="151" y="232" type="curve" smooth="yes"/>
      <point x="151" y="259"/>
      <point x="138" y="279"/>
      <point x="119" y="288" type="curve"/>
      <point x="137" y="299"/>
      <point x="148" y="314"/>
      <point x="148" y="339" type="curve" smooth="yes"/>
      <point x="148" y="383"/>
      <point x="122" y="407"/>
      <point x="83" y="407" type="curve" smooth="yes"/>
    </contour>
    <contour>
      <point x="287" y="241" type="line"/>
      <point x="273" y="187"/>
      <point x="251" y="130"/>
      <point x="227" y="86" type="curve"/>
      <point x="227" y="56" type="line"/>
      <point x="314" y="56" type="line"/>
      <point x="314" y="0" type="line"/>
      <point x="351" y="0" type="line"/>
      <point x="351" y="56" type="line"/>
      <point x="374" y="56" type="line"/>
      <point x="374" y="89" type="line"/>
      <point x="351" y="89" type="line"/>
      <point x="351" y="207" type="line"/>
      <point x="335" y="207" type="line"/>
      <point x="330" y="184"/>
      <point x="320" y="156"/>
      <point x="314" y="142" type="curve"/>
      <point x="314" y="89" type="line"/>
      <point x="265" y="89" type="line"/>
      <point x="280" y="115"/>
      <point x="310" y="181"/>
      <point x="324" y="241" type="curve"/>
    </contour>
  </outline>
</glyph>
<glyph name="questiondown" format="1">
  <advance width="292"/>
  <unicode hex="00BF"/>
  <outline>
    <contour>
      <point x="167" y="202" type="line"/>
      <point x="117" y="202" type="line"/>
      <point x="117" y="178" type="line" smooth="yes"/>
      <point x="117" y="107"/>
      <point x="41" y="109"/>
      <point x="41" y="1" type="curve" smooth="yes"/>
      <point x="41" y="-59"/>
      <point x="85" y="-100"/>
      <point x="144" y="-100" type="curve" smooth="yes"/>
      <point x="218" y="-100"/>
      <point x="254" y="-50"/>
      <point x="254" y="18" type="curve" smooth="yes"/>
      <point x="254" y="26"/>
      <point x="252" y="39"/>
      <point x="252" y="39" type="curve" smooth="yes"/>
      <point x="200" y="39" type="line" smooth="yes"/>
      <point x="200" y="39"/>
      <point x="201" y="33"/>
      <point x="201" y="23" type="curve" smooth="yes"/>
      <point x="201" y="-4"/>
      <point x="196" y="-55"/>
      <point x="148" y="-55" type="curve" smooth="yes"/>
      <point x="100" y="-55"/>
      <point x="94" y="-8"/>
      <point x="94" y="7" type="curve" smooth="yes"/>
      <point x="94" y="85"/>
      <point x="167" y="90"/>
      <point x="167" y="169" type="curve" smooth="yes"/>
    </contour>
    <contour>
      <point x="171" y="244" type="line"/>
      <point x="171" y="306" type="line"/>
      <point x="113" y="306" type="line"/>
      <point x="113" y="244" type="line"/>
    </contour>
  </outline>
</glyph>
<glyph name="Agrave" format="1">
  <advance width="503"/>
  <unicode hex="00C0"/>
  <outline>
    <contour>
      <point x="304" y="630" type="line"/>
      <point x="200" y="630" type="line"/>
      <point x="-1" y="0" type="line"/>
      <point x="80" y="0" type="line"/>
      <point x="123" y="140" type="line"/>
      <point x="373" y="140" type="line"/>
      <point x="416" y="0" type="line"/>
      <point x="503" y="0" type="line"/>
    </contour>
    <contour>
      <point x="250" y="565" type="line"/>
      <point x="250" y="565"/>
      <point x="258" y="516"/>
      <point x="265" y="495" type="curve" smooth="yes"/>
      <point x="350" y="214" type="line"/>
      <point x="146" y="214" type="line"/>
      <point x="232" y="495" type="line" smooth="yes"/>
      <point x="238" y="515"/>
      <point x="246" y="565"/>
      <point x="246" y="565" type="curve"/>
    </contour>
    <contour>
      <point x="227" y="812" type="line"/>
      <point x="145" y="812" type="line"/>
      <point x="144" y="809" type="line"/>
      <point x="242" y="691" type="line"/>
      <point x="306" y="691" type="line"/>
    </contour>
  </outline>
</glyph>
<glyph name="Acircumflex" format="1">
  <advance width="503"/>
  <unicode hex="00C2"/>
  <outline>
    <contour>
      <point x="304" y="630" type="line"/>
      <point x="200" y="630" type="line"/>
      <point x="-1" y="0" type="line"/>
      <point x="80" y="0" type="line"/>
      <point x="123" y="140" type="line"/>
      <point x="373" y="140" type="line"/>
      <point x="416" y="0" type="line"/>
      <point x="503" y="0" type="line"/>
    </contour>
    <contour>
      <point x="250" y="565" type="line"/>
      <point x="250" y="565"/>
      <point x="258" y="516"/>
      <point x="265" y="495" type="curve" smooth="yes"/>
      <point x="350" y="214" type="line"/>
      <point x="146" y="214" type="line"/>
      <point x="232" y="495" type="line" smooth="yes"/>
      <point x="238" y="515"/>
      <point x="246" y="565"/>
      <point x="246" y="565" type="curve"/>
    </contour>
    <contour>
      <point x="288" y="811" type="line"/>
      <point x="216" y="811" type="line"/>
      <point x="137" y="686" type="line"/>
      <point x="210" y="686" type="line"/>
      <point x="252" y="759" type="line"/>
      <point x="292" y="686" type="line"/>
      <point x="366" y="686" type="line"/>
    </contour>
  </outline>
</glyph>
<glyph name="Atilde" format="1">
  <advance width="319"/>
  <unicode hex="00C3"/>
  <outline>
    <contour>
      <point x="192" y="399" type="line"/>
      <point x="127" y="399" type="line"/>
      <point x="-1" y="0" type="line"/>
      <point x="51" y="0" type="line"/>
      <point x="78" y="89" type="line"/>
      <point x="237" y="89" type="line"/>
      <point x="264" y="0" type="line"/>
      <point x="319" y="0" type="line"/>
    </contour>
    <contour>
      <point x="158" y="358" type="line"/>
      <point x="158" y="358"/>
      <point x="163" y="327"/>
      <point x="168" y="314" type="curve" smooth="yes"/>
      <point x="222" y="136" type="line"/>
      <point x="92" y="136" type="line"/>
      <point x="147" y="314" type="line" smooth="yes"/>
      <point x="151" y="326"/>
      <point x="156" y="358"/>
      <point x="156" y="358" type="curve"/>
    </contour>
    <contour>
      <point x="210" y="515" type="line"/>
      <point x="208" y="501"/>
      <point x="201" y="497"/>
      <point x="190" y="497" type="curve" smooth="yes"/>
      <point x="168" y="497"/>
      <point x="148" y="515"/>
      <point x="123" y="515" type="curve" smooth="yes"/>
      <point x="88" y="515"/>
      <point x="74" y="480"/>
      <point x="74" y="454" type="curve"/>
      <point x="108" y="454" type="line"/>
      <point x="109" y="467"/>
      <point x="117" y="472"/>
      <point x="128" y="472" type="curve" smooth="yes"/>
      <point x="150" y="472"/>
      <point x="169" y="454"/>
      <point x="194" y="454" type="curve" smooth="yes"/>
      <point x="230" y="454"/>
      <point x="244" y="488"/>
      <point x="244" y="515" type="curve"/>
    </contour>
  </outline>
</glyph>
<glyph name="Aring" format="1">
  <advance width="319"/>
  <unicode hex="00C5"/>
  <outline>
    <contour>
      <point x="192" y="399" type="line"/>
      <point x="127" y="399" type="line"/>
      <point x="-1" y="0" type="line"/>
      <point x="51" y="0" type="line"/>
      <point x="78" y="89" type="line"/>
      <point x="237" y="89" type="line"/>
      <point x="264" y="0" type="line"/>
      <point x="319" y="0" type="line"/>
    </contour>
    <contour>
      <point x="158" y="358" type="line"/>
      <point x="158" y="358"/>
      <point x="163" y="327"/>
      <point x="168" y="314" type="curve" smooth="yes"/>
      <point x="222" y="136" type="line"/>
      <point x="92" y="136" type="line"/>
      <point x="147" y="314" type="line" smooth="yes"/>
      <point x="151" y="326"/>
      <point x="156" y="358"/>
      <point x="156" y="358" type="curve"/>
    </contour>
    <contour>
      <point x="128" y="533"/>
      <point x="103" y="508"/>
      <point x="103" y="477" type="curve" smooth="yes"/>
      <point x="103" y="445"/>
      <point x="129" y="421"/>
      <point x="159" y="421" type="curve" smooth="yes"/>
      <point x="190" y="421"/>
      <point x="215" y="446"/>
      <point x="215" y="477" type="curve" smooth="yes"/>
      <point x="215" y="507"/>
      <point x="191" y="533"/>
      <point x="159" y="533" type="curve" smooth="yes"/>
    </contour>
    <contour>
      <point x="175" y="507"/>
      <point x="188" y="494"/>
      <point x="188" y="477" type="curve" smooth="yes"/>
      <point x="188" y="461"/>
      <point x="175" y="447"/>
      <point x="159" y="447" type="curve" smooth="yes"/>
      <point x="143" y="447"/>
      <point x="129" y="461"/>
      <point x="129" y="477" type="curve" smooth="yes"/>
      <point x="129" y="494"/>
      <point x="143" y="507"/>
      <point x="159" y="507" type="curve" smooth="yes"/>
    </contour>
  </outline>
</glyph>
<glyph name="Ccedilla" format="1">
  <advance width="544"/>
  <unicode hex="00C7"/>
  <outline>
    <contour>
      <point x="123" y="642"/>
      <point x="38" y="535"/>
      <point x="38" y="315" type="curve" smooth="yes"/>
      <point x="38" y="120"/>
      <point x="106" y="12"/>
      <point x="237" y="-7" type="curve"/>
      <point x="227" y="-71" type="line"/>
      <point x="258" y="-71" type="line" smooth="yes"/>
      <point x="282" y="-71"/>
      <point x="289" y="-78"/>
      <point x="289" y="-93" type="curve" smooth="yes"/>
      <point x="289" y="-110"/>
      <point x="276" y="-115"/>
      <point x="256" y="-115" type="curve" smooth="yes"/>
      <point x="186" y="-115" type="line"/>
      <point x="186" y="-160" type="line"/>
      <point x="208" y="-164"/>
      <point x="237" y="-167"/>
      <point x="263" y="-167" type="curve" smooth="yes"/>
      <point x="301" y="-167"/>
      <point x="359" y="-155"/>
      <point x="359" y="-93" type="curve" smooth="yes"/>
      <point x="359" y="-51"/>
      <point x="323" y="-35"/>
      <point x="284" y="-33" type="curve"/>
      <point x="287" y="-11" type="line"/>
      <point x="416" y="-11"/>
      <point x="506" y="63"/>
      <point x="506" y="226" type="curve"/>
      <point x="426" y="226" type="line"/>
      <point x="426" y="116"/>
      <point x="371" y="63"/>
      <point x="287" y="63" type="curve" smooth="yes"/>
      <point x="177" y="63"/>
      <point x="123" y="138"/>
      <point x="123" y="292" type="curve" smooth="yes"/>
      <point x="123" y="338" type="line" smooth="yes"/>
      <point x="123" y="492"/>
      <point x="177" y="567"/>
      <point x="287" y="567" type="curve" smooth="yes"/>
      <point x="369" y="567"/>
      <point x="424" y="513"/>
      <point x="424" y="402" type="curve"/>
      <point x="506" y="402" type="line"/>
      <point x="506" y="564"/>
      <point x="416" y="642"/>
      <point x="287" y="642" type="curve" smooth="yes"/>
    </contour>
  </outline>
</glyph>
<glyph name="Egrave" format="1">
  <advance width="503"/>
  <unicode hex="00C8"/>
  <outline>
    <contour>
      <point x="453" y="630" type="line"/>
      <point x="64" y="630" type="line"/>
      <point x="64" y="0" type="line"/>
      <point x="459" y="0" type="line"/>
      <point x="459" y="74" type="line"/>
      <point x="146" y="74" type="line"/>
      <point x="146" y="286" type="line"/>
      <point x="413" y="286" type="line"/>
      <point x="413" y="360" type="line"/>
      <point x="146" y="360" type="line"/>
      <point x="146" y="557" type="line"/>
      <point x="453" y="557" type="line"/>
    </contour>
    <contour>
      <point x="227" y="812" type="line"/>
      <point x="145" y="812" type="line"/>
      <point x="144" y="809" type="line"/>
      <point x="242" y="691" type="line"/>
      <point x="306" y="691" type="line"/>
    </contour>
  </outline>
</glyph>
<glyph name="Eacute" format="1">
  <advance width="319"/>
  <unicode hex="00C9"/>
  <outline>
    <contour>
      <point x="287" y="399" type="line"/>
      <point x="41" y="399" type="line"/>
      <point x="41" y="0" type="line"/>
      <point x="291" y="0" type="line"/>
      <point x="291" y="47" type="line"/>
      <point x="92" y="47" type="line"/>
      <point x="92" y="181" type="line"/>
      <point x="262" y="181" type="line"/>
      <point x="262" y="228" type="line"/>
      <point x="92" y="228" type="line"/>
      <point x="92" y="353" type="line"/>
      <point x="287" y="353" type="line"/>
    </contour>
    <contour>
      <point x="227" y="515" type="line"/>
      <point x="175" y="515" type="line"/>
      <point x="125" y="438" type="line"/>
      <point x="165" y="438" type="line"/>
      <point x="228" y="513" type="line"/>
    </contour>
  </outline>
</glyph>
<glyph name="Ecircumflex" format="1">
  <advance width="319"/>
  <unicode hex="00CA"/>
  <outline>
    <contour>
      <point x="232" y="435" type="line"/>
      <point x="183" y="514" type="line"/>
      <point x="137" y="514" type="line"/>
      <point x="87" y="435" type="line"/>
      <point x="133" y="435" type="line"/>
      <point x="159" y="481" type="line"/>
      <point x="185" y="435" type="line"/>
    </contour>
    <contour>
      <point x="41" y="0" type="line"/>
      <point x="291" y="0" type="line"/>
      <point x="291" y="47" type="line"/>
      <point x="92" y="47" type="line"/>
      <point x="92" y="181" type="line"/>
      <point x="262" y="181" type="line"/>
      <point x="262" y="228" type="line"/>
      <point x="92" y="228" type="line"/>
      <point x="92" y="353" type="line"/>
      <point x="287" y="353" type="line"/>
      <point x="287" y="399" type="line"/>
      <point x="41" y="399" type="line"/>
    </contour>
  </outline>
</glyph>
<glyph name="Edieresis" format="1">
  <advance width="319"/>
  <unicode hex="00CB"/>
  <outline>
    <contour>
      <point x="287" y="399" type="line"/>
      <point x="41" y="399" type="line"/>
      <point x="41" y="0" type="line"/>
      <point x="291" y="0" type="line"/>
      <point x="291" y="47" type="line"/>
      <point x="92" y="47" type="line"/>
      <point x="92" y="181" type="line"/>
      <point x="262" y="181" type="line"/>
      <point x="262" y="228" type="line"/>
      <point x="92" y="228" type="line"/>
      <point x="92" y="353" type="line"/>
      <point x="287" y="353" type="line"/>
    </contour>
    <contour>
      <point x="141" y="515" type="line"/>
      <point x="90" y="515" type="line"/>
      <point x="90" y="459" type="line"/>
      <point x="141" y="459" type="line"/>
    </contour>
    <contour>
      <point x="229" y="515" type="line"/>
      <point x="178" y="515" type="line"/>
      <point x="178" y="459" type="line"/>
      <point x="229" y="459" type="line"/>
    </contour>
  </outline>
</glyph>
<glyph name="Igrave" format="1">
  <advance width="133"/>
  <unicode hex="00CC"/>
  <outline>
    <contour>
      <point x="92" y="399" type="line"/>
      <point x="41" y="399" type="line"/>
      <point x="41" y="0" type="line"/>
      <point x="92" y="0" type="line"/>
    </contour>
    <contour>
      <point x="51" y="515" type="line"/>
      <point x="-1" y="515" type="line"/>
      <point x="-2" y="513" type="line"/>
      <point x="61" y="438" type="line"/>
      <point x="101" y="438" type="line"/>
    </contour>
  </outline>
</glyph>
<glyph name="Iacute" format="1">
  <advance width="133"/>
  <unicode hex="00CD"/>
  <outline>
    <contour>
      <point x="92" y="399" type="line"/>
      <point x="41" y="399" type="line"/>
      <point x="41" y="0" type="line"/>
      <point x="92" y="0" type="line"/>
    </contour>
    <contour>
      <point x="134" y="515" type="line"/>
      <point x="82" y="515" type="line"/>
      <point x="32" y="438" type="line"/>
      <point x="72" y="438" type="line"/>
      <point x="134" y="513" type="line"/>
    </contour>
  </outline>
</glyph>
<glyph name="Icircumflex" format="1">
  <advance width="210"/>
  <unicode hex="00CE"/>
  <outline>
    <contour>
      <point x="146" y="0" type="line"/>
      <point x="146" y="630" type="line"/>
      <point x="64" y="630" type="line"/>
      <point x="64" y="0" type="line"/>
    </contour>
    <contour>
      <point x="219" y="686" type="line"/>
      <point x="141" y="811" type="line"/>
      <point x="70" y="811" type="line"/>
      <point x="-10" y="686" type="line"/>
      <point x="64" y="686" type="line"/>
      <point x="106" y="759" type="line"/>
      <point x="147" y="686" type="line"/>
    </contour>
  </outline>
</glyph>
<glyph name="Idieresis" format="1">
  <advance width="133"/>
  <unicode hex="00CF"/>
  <outline>
    <contour>
      <point x="92" y="399" type="line"/>
      <point x="41" y="399" type="line"/>
      <point x="41" y="0" type="line"/>
      <point x="92" y="0" type="line"/>
    </contour>
    <contour>
      <point x="48" y="515" type="line"/>
      <point x="-3" y="515" type="line"/>
      <point x="-3" y="459" type="line"/>
      <point x="48" y="459" type="line"/>
    </contour>
    <contour>
      <point x="136" y="515" type="line"/>
      <point x="85" y="515" type="line"/>
      <point x="85" y="459" type="line"/>
      <point x="136" y="459" type="line"/>
    </contour>
  </outline>
</glyph>
<glyph name="Eth" format="1">
  <advance width="345"/>
  <unicode hex="00D0"/>
  <outline>
    <contour>
      <point x="3" y="225" type="line"/>
      <point x="3" y="188" type="line"/>
      <point x="41" y="188" type="line"/>
      <point x="41" y="0" type="line"/>
      <point x="165" y="0" type="line" smooth="yes"/>
      <point x="259" y="0"/>
      <point x="316" y="69"/>
      <point x="316" y="206" type="curve" smooth="yes"/>
      <point x="316" y="334"/>
      <point x="259" y="399"/>
      <point x="165" y="399" type="curve" smooth="yes"/>
      <point x="41" y="399" type="line"/>
      <point x="41" y="225" type="line"/>
    </contour>
    <contour>
      <point x="92" y="353" type="line"/>
      <point x="160" y="353" type="line" smooth="yes"/>
      <point x="223" y="353"/>
      <point x="263" y="309"/>
      <point x="263" y="220" type="curve" smooth="yes"/>
      <point x="263" y="191" type="line" smooth="yes"/>
      <point x="263" y="94"/>
      <point x="223" y="47"/>
      <point x="160" y="47" type="curve" smooth="yes"/>
      <point x="92" y="47" type="line"/>
      <point x="92" y="188" type="line"/>
      <point x="183" y="188" type="line"/>
      <point x="183" y="225" type="line"/>
      <point x="92" y="225" type="line"/>
    </contour>
  </outline>
</glyph>
<glyph name="Ntilde" format="1">
  <advance width="345"/>
  <unicode hex="00D1"/>
  <outline>
    <contour>
      <point x="304" y="399" type="line"/>
      <point x="258" y="399" type="line"/>
      <point x="258" y="148" type="line" smooth="yes"/>
      <point x="258" y="136"/>
      <point x="260" y="96"/>
      <point x="260" y="96" type="curve"/>
      <point x="258" y="95" type="line"/>
      <point x="258" y="95"/>
      <point x="243" y="133"/>
      <point x="233" y="148" type="curve" smooth="yes"/>
      <point x="85" y="399" type="line"/>
      <point x="41" y="399" type="line"/>
      <point x="41" y="0" type="line"/>
      <point x="87" y="0" type="line"/>
      <point x="87" y="254" type="line" smooth="yes"/>
      <point x="87" y="271"/>
      <point x="84" y="308"/>
      <point x="84" y="308" type="curve"/>
      <point x="86" y="308" type="line"/>
      <point x="86" y="308"/>
      <point x="102" y="272"/>
      <point x="112" y="254" type="curve" smooth="yes"/>
      <point x="262" y="0" type="line"/>
      <point x="304" y="0" type="line"/>
    </contour>
    <contour>
      <point x="223" y="515" type="line"/>
      <point x="222" y="501"/>
      <point x="214" y="497"/>
      <point x="204" y="497" type="curve" smooth="yes"/>
      <point x="181" y="497"/>
      <point x="162" y="515"/>
      <point x="137" y="515" type="curve" smooth="yes"/>
      <point x="102" y="515"/>
      <point x="88" y="480"/>
      <point x="88" y="454" type="curve"/>
      <point x="121" y="454" type="line"/>
      <point x="123" y="467"/>
      <point x="130" y="472"/>
      <point x="141" y="472" type="curve" smooth="yes"/>
      <point x="163" y="472"/>
      <point x="183" y="454"/>
      <point x="208" y="454" type="curve" smooth="yes"/>
      <point x="243" y="454"/>
      <point x="258" y="488"/>
      <point x="258" y="515" type="curve"/>
    </contour>
  </outline>
</glyph>
<glyph name="Ocircumflex" format="1">
  <advance width="372"/>
  <unicode hex="00D4"/>
  <outline>
    <contour>
      <point x="88" y="407"/>
      <point x="28" y="339"/>
      <point x="28" y="200" type="curve" smooth="yes"/>
      <point x="28" y="61"/>
      <point x="88" y="-7"/>
      <point x="186" y="-7" type="curve" smooth="yes"/>
      <point x="284" y="-7"/>
      <point x="343" y="61"/>
      <point x="343" y="200" type="curve" smooth="yes"/>
      <point x="343" y="339"/>
      <point x="284" y="407"/>
      <point x="186" y="407" type="curve" smooth="yes"/>
    </contour>
    <contour>
      <point x="250" y="359"/>
      <point x="289" y="312"/>
      <point x="289" y="214" type="curve" smooth="yes"/>
      <point x="289" y="185" type="line" smooth="yes"/>
      <point x="289" y="88"/>
      <point x="250" y="40"/>
      <point x="186" y="40" type="curve" smooth="yes"/>
      <point x="122" y="40"/>
      <point x="82" y="88"/>
      <point x="82" y="185" type="curve" smooth="yes"/>
      <point x="82" y="214" type="line" smooth="yes"/>
      <point x="82" y="312"/>
      <point x="122" y="359"/>
      <point x="186" y="359" type="curve" smooth="yes"/>
    </contour>
    <contour>
      <point x="258" y="435" type="line"/>
      <point x="209" y="514" type="line"/>
      <point x="163" y="514" type="line"/>
      <point x="113" y="435" type="line"/>
      <point x="160" y="435" type="line"/>
      <point x="186" y="481" type="line"/>
      <point x="212" y="435" type="line"/>
    </contour>
  </outline>
</glyph>
<glyph name="Otilde" format="1">
  <advance width="372"/>
  <unicode hex="00D5"/>
  <outline>
    <contour>
      <point x="88" y="407"/>
      <point x="28" y="339"/>
      <point x="28" y="200" type="curve" smooth="yes"/>
      <point x="28" y="61"/>
      <point x="88" y="-7"/>
      <point x="186" y="-7" type="curve" smooth="yes"/>
      <point x="284" y="-7"/>
      <point x="343" y="61"/>
      <point x="343" y="200" type="curve" smooth="yes"/>
      <point x="343" y="339"/>
      <point x="284" y="407"/>
      <point x="186" y="407" type="curve" smooth="yes"/>
    </contour>
    <contour>
      <point x="250" y="359"/>
      <point x="289" y="312"/>
      <point x="289" y="214" type="curve" smooth="yes"/>
      <point x="289" y="185" type="line" smooth="yes"/>
      <point x="289" y="88"/>
      <point x="250" y="40"/>
      <point x="186" y="40" type="curve" smooth="yes"/>
      <point x="122" y="40"/>
      <point x="82" y="88"/>
      <point x="82" y="185" type="curve" smooth="yes"/>
      <point x="82" y="214" type="line" smooth="yes"/>
      <point x="82" y="312"/>
      <point x="122" y="359"/>
      <point x="186" y="359" type="curve" smooth="yes"/>
    </contour>
    <contour>
      <point x="237" y="515" type="line"/>
      <point x="235" y="501"/>
      <point x="228" y="497"/>
      <point x="217" y="497" type="curve" smooth="yes"/>
      <point x="194" y="497"/>
      <point x="175" y="515"/>
      <point x="150" y="515" type="curve" smooth="yes"/>
      <point x="115" y="515"/>
      <point x="101" y="480"/>
      <point x="101" y="454" type="curve"/>
      <point x="134" y="454" type="line"/>
      <point x="136" y="467"/>
      <point x="144" y="472"/>
      <point x="154" y="472" type="curve" smooth="yes"/>
      <point x="177" y="472"/>
      <point x="196" y="454"/>
      <point x="221" y="454" type="curve" smooth="yes"/>
      <point x="256" y="454"/>
      <point x="271" y="488"/>
      <point x="271" y="515" type="curve"/>
    </contour>
  </outline>
</glyph>
<glyph name="Odieresis" format="1">
  <advance width="372"/>
  <unicode hex="00D6"/>
  <outline>
    <contour>
      <point x="88" y="407"/>
      <point x="28" y="339"/>
      <point x="28" y="200" type="curve" smooth="yes"/>
      <point x="28" y="61"/>
      <point x="88" y="-7"/>
      <point x="186" y="-7" type="curve" smooth="yes"/>
      <point x="284" y="-7"/>
      <point x="343" y="61"/>
      <point x="343" y="200" type="curve" smooth="yes"/>
      <point x="343" y="339"/>
      <point x="284" y="407"/>
      <point x="186" y="407" type="curve" smooth="yes"/>
    </contour>
    <contour>
      <point x="250" y="359"/>
      <point x="289" y="312"/>
      <point x="289" y="214" type="curve" smooth="yes"/>
      <point x="289" y="185" type="line" smooth="yes"/>
      <point x="289" y="88"/>
      <point x="250" y="40"/>
      <point x="186" y="40" type="curve" smooth="yes"/>
      <point x="122" y="40"/>
      <point x="82" y="88"/>
      <point x="82" y="185" type="curve" smooth="yes"/>
      <point x="82" y="214" type="line" smooth="yes"/>
      <point x="82" y="312"/>
      <point x="122" y="359"/>
      <point x="186" y="359" type="curve" smooth="yes"/>
    </contour>
    <contour>
      <point x="168" y="515" type="line"/>
      <point x="117" y="515" type="line"/>
      <point x="117" y="459" type="line"/>
      <point x="168" y="459" type="line"/>
    </contour>
    <contour>
      <point x="255" y="515" type="line"/>
      <point x="204" y="515" type="line"/>
      <point x="204" y="459" type="line"/>
      <point x="255" y="459" type="line"/>
    </contour>
  </outline>
</glyph>
<glyph name="multiply" format="1">
  <advance width="279"/>
  <unicode hex="00D7"/>
  <outline>
    <contour>
      <point x="233" y="272" type="line"/>
      <point x="144" y="183" type="line"/>
      <point x="54" y="272" type="line"/>
      <point x="22" y="237" type="line"/>
      <point x="111" y="148" type="line"/>
      <point x="22" y="61" type="line"/>
      <point x="54" y="26" type="line"/>
      <point x="144" y="113" type="line"/>
      <point x="233" y="26" type="line"/>
      <point x="265" y="61" type="line"/>
      <point x="176" y="148" type="line"/>
      <point x="265" y="237" type="line"/>
    </contour>
  </outline>
</glyph>
<glyph name="Oslash" format="1">
  <advance width="372"/>
  <unicode hex="00D8"/>
  <outline>
    <contour>
      <point x="343" y="421" type="line"/>
      <point x="306" y="421" type="line"/>
      <point x="279" y="378" type="line"/>
      <point x="254" y="397"/>
      <point x="223" y="407"/>
      <point x="186" y="407" type="curve" smooth="yes"/>
      <point x="88" y="407"/>
      <point x="28" y="339"/>
      <point x="28" y="200" type="curve" smooth="yes"/>
      <point x="28" y="130"/>
      <point x="43" y="78"/>
      <point x="71" y="44" type="curve"/>
      <point x="29" y="-22" type="line"/>
      <point x="67" y="-22" type="line"/>
      <point x="93" y="22" type="line"/>
      <point x="118" y="3"/>
      <point x="149" y="-7"/>
      <point x="186" y="-7" type="curve" smooth="yes"/>
      <point x="284" y="-7"/>
      <point x="343" y="61"/>
      <point x="343" y="200" type="curve" smooth="yes"/>
      <point x="343" y="269"/>
      <point x="328" y="320"/>
      <point x="301" y="355" type="curve"/>
    </contour>
    <contour>
      <point x="272" y="307" type="line"/>
      <point x="283" y="284"/>
      <point x="289" y="253"/>
      <point x="289" y="214" type="curve" smooth="yes"/>
      <point x="289" y="185" type="line" smooth="yes"/>
      <point x="289" y="88"/>
      <point x="250" y="40"/>
      <point x="186" y="40" type="curve" smooth="yes"/>
      <point x="159" y="40"/>
      <point x="137" y="48"/>
      <point x="120" y="65" type="curve"/>
    </contour>
    <contour>
      <point x="212" y="359"/>
      <point x="234" y="351"/>
      <point x="252" y="334" type="curve"/>
      <point x="100" y="92" type="line"/>
      <point x="88" y="115"/>
      <point x="82" y="146"/>
      <point x="82" y="185" type="curve" smooth="yes"/>
      <point x="82" y="214" type="line" smooth="yes"/>
      <point x="82" y="312"/>
      <point x="122" y="359"/>
      <point x="186" y="359" type="curve" smooth="yes"/>
    </contour>
    <contour>
      <point x="186" y="399" type="move" name="top"/>
    </contour>
  </outline>
</glyph>
<glyph name="Ugrave" format="1">
  <advance width="345"/>
  <unicode hex="00D9"/>
  <outline>
    <contour>
      <point x="304" y="399" type="line"/>
      <point x="253" y="399" type="line"/>
      <point x="253" y="127" type="line" smooth="yes"/>
      <point x="253" y="71"/>
      <point x="223" y="40"/>
      <point x="173" y="40" type="curve" smooth="yes"/>
      <point x="123" y="40"/>
      <point x="92" y="71"/>
      <point x="92" y="127" type="curve" smooth="yes"/>
      <point x="92" y="399" type="line"/>
      <point x="41" y="399" type="line"/>
      <point x="41" y="130" type="line" smooth="yes"/>
      <point x="41" y="40"/>
      <point x="90" y="-7"/>
      <point x="173" y="-7" type="curve" smooth="yes"/>
      <point x="254" y="-7"/>
      <point x="304" y="40"/>
      <point x="304" y="130" type="curve" smooth="yes"/>
    </contour>
    <contour>
      <point x="158" y="515" type="line"/>
      <point x="104" y="515" type="line"/>
      <point x="103" y="513" type="line"/>
      <point x="167" y="438" type="line"/>
      <point x="207" y="438" type="line"/>
    </contour>
  </outline>
</glyph>
<glyph name="Uacute" format="1">
  <advance width="345"/>
  <unicode hex="00DA"/>
  <outline>
    <contour>
      <point x="304" y="399" type="line"/>
      <point x="253" y="399" type="line"/>
      <point x="253" y="127" type="line" smooth="yes"/>
      <point x="253" y="71"/>
      <point x="223" y="40"/>
      <point x="173" y="40" type="curve" smooth="yes"/>
      <point x="123" y="40"/>
      <point x="92" y="71"/>
      <point x="92" y="127" type="curve" smooth="yes"/>
      <point x="92" y="399" type="line"/>
      <point x="41" y="399" type="line"/>
      <point x="41" y="130" type="line" smooth="yes"/>
      <point x="41" y="40"/>
      <point x="90" y="-7"/>
      <point x="173" y="-7" type="curve" smooth="yes"/>
      <point x="254" y="-7"/>
      <point x="304" y="40"/>
      <point x="304" y="130" type="curve" smooth="yes"/>
    </contour>
    <contour>
      <point x="240" y="515" type="line"/>
      <point x="188" y="515" type="line"/>
      <point x="138" y="438" type="line"/>
      <point x="179" y="438" type="line"/>
      <point x="241" y="513" type="line"/>
    </contour>
  </outline>
</glyph>
<glyph name="Ucircumflex" format="1">
  <advance width="544"/>
  <unicode hex="00DB"/>
  <outline>
    <contour>
      <point x="479" y="630" type="line"/>
      <point x="399" y="630" type="line"/>
      <point x="399" y="201" type="line" smooth="yes"/>
      <point x="399" y="111"/>
      <point x="352" y="63"/>
      <point x="272" y="63" type="curve" smooth="yes"/>
      <point x="193" y="63"/>
      <point x="146" y="111"/>
      <point x="146" y="201" type="curve" smooth="yes"/>
      <point x="146" y="630" type="line"/>
      <point x="64" y="630" type="line"/>
      <point x="64" y="205" type="line" smooth="yes"/>
      <point x="64" y="63"/>
      <point x="142" y="-11"/>
      <point x="272" y="-11" type="curve" smooth="yes"/>
      <point x="401" y="-11"/>
      <point x="479" y="63"/>
      <point x="479" y="205" type="curve" smooth="yes"/>
    </contour>
    <contour>
      <point x="308" y="811" type="line"/>
      <point x="236" y="811" type="line"/>
      <point x="157" y="686" type="line"/>
      <point x="231" y="686" type="line"/>
      <point x="274" y="759" type="line"/>
      <point x="313" y="686" type="line"/>
      <point x="387" y="686" type="line"/>
    </contour>
  </outline>
</glyph>
<glyph name="Udieresis" format="1">
  <advance width="345"/>
  <unicode hex="00DC"/>
  <outline>
    <contour>
      <point x="304" y="399" type="line"/>
      <point x="253" y="399" type="line"/>
      <point x="253" y="127" type="line" smooth="yes"/>
      <point x="253" y="71"/>
      <point x="223" y="40"/>
      <point x="173" y="40" type="curve" smooth="yes"/>
      <point x="123" y="40"/>
      <point x="92" y="71"/>
      <point x="92" y="127" type="curve" smooth="yes"/>
      <point x="92" y="399" type="line"/>
      <point x="41" y="399" type="line"/>
      <point x="41" y="130" type="line" smooth="yes"/>
      <point x="41" y="40"/>
      <point x="90" y="-7"/>
      <point x="173" y="-7" type="curve" smooth="yes"/>
      <point x="254" y="-7"/>
      <point x="304" y="40"/>
      <point x="304" y="130" type="curve" smooth="yes"/>
    </contour>
    <contour>
      <point x="154" y="515" type="line"/>
      <point x="103" y="515" type="line"/>
      <point x="103" y="459" type="line"/>
      <point x="154" y="459" type="line"/>
    </contour>
    <contour>
      <point x="242" y="515" type="line"/>
      <point x="190" y="515" type="line"/>
      <point x="190" y="459" type="line"/>
      <point x="242" y="459" type="line"/>
    </contour>
  </outline>
</glyph>
<glyph name="Yacute" format="1">
  <advance width="319"/>
  <unicode hex="00DD"/>
  <outline>
    <contour>
      <point x="314" y="399" type="line"/>
      <point x="264" y="399" type="line"/>
      <point x="165" y="214" type="line"/>
      <point x="163" y="214" type="line"/>
      <point x="61" y="399" type="line"/>
      <point x="5" y="399" type="line"/>
      <point x="134" y="165" type="line"/>
      <point x="134" y="0" type="line"/>
      <point x="185" y="0" type="line"/>
      <point x="185" y="165" type="line"/>
    </contour>
    <contour>
      <point x="227" y="515" type="line"/>
      <point x="175" y="515" type="line"/>
      <point x="125" y="438" type="line"/>
      <point x="165" y="438" type="line"/>
      <point x="228" y="513" type="line"/>
    </contour>
  </outline>
</glyph>
<glyph name="Thorn" format="1">
  <advance width="319"/>
  <unicode hex="00DE"/>
  <outline>
    <contour>
      <point x="92" y="399" type="line"/>
      <point x="41" y="399" type="line"/>
      <point x="41" y="0" type="line"/>
      <point x="92" y="0" type="line"/>
      <point x="92" y="86" type="line"/>
      <point x="183" y="86" type="line" smooth="yes"/>
      <point x="258" y="86"/>
      <point x="303" y="133"/>
      <point x="303" y="204" type="curve" smooth="yes"/>
      <point x="303" y="273"/>
      <point x="262" y="320"/>
      <point x="183" y="320" type="curve" smooth="yes"/>
      <point x="92" y="320" type="line"/>
    </contour>
    <contour>
      <point x="182" y="273" type="line"/>
      <point x="225" y="273"/>
      <point x="249" y="247"/>
      <point x="249" y="204" type="curve" smooth="yes"/>
      <point x="249" y="161"/>
      <point x="223" y="132"/>
      <point x="182" y="132" type="curve" smooth="yes"/>
      <point x="92" y="132" type="line"/>
      <point x="92" y="273" type="line"/>
    </contour>
  </outline>
</glyph>
<glyph name="atilde" format="1">
  <advance width="266"/>
  <unicode hex="00E3"/>
  <outline>
    <contour>
      <point x="72" y="314"/>
      <point x="32" y="284"/>
      <point x="32" y="229" type="curve" smooth="yes"/>
      <point x="32" y="223"/>
      <point x="32" y="219"/>
      <point x="32" y="215" type="curve"/>
      <point x="79" y="215" type="line"/>
      <point x="79" y="223" type="line" smooth="yes"/>
      <point x="79" y="246"/>
      <point x="90" y="271"/>
      <point x="127" y="271" type="curve" smooth="yes"/>
      <point x="165" y="271"/>
      <point x="175" y="250"/>
      <point x="175" y="221" type="curve" smooth="yes"/>
      <point x="175" y="182" type="line"/>
      <point x="86" y="182"/>
      <point x="20" y="163"/>
      <point x="20" y="79" type="curve" smooth="yes"/>
      <point x="20" y="5"/>
      <point x="70" y="-7"/>
      <point x="100" y="-7" type="curve" smooth="yes"/>
      <point x="132" y="-7"/>
      <point x="159" y="8"/>
      <point x="175" y="33" type="curve"/>
      <point x="178" y="33" type="line"/>
      <point x="183" y="11"/>
      <point x="201" y="-5"/>
      <point x="226" y="-5" type="curve" smooth="yes"/>
      <point x="241" y="-5"/>
      <point x="252" y="-1"/>
      <point x="258" y="3" type="curve"/>
      <point x="258" y="36" type="line"/>
      <point x="239" y="36" type="line" smooth="yes"/>
      <point x="231" y="36"/>
      <point x="223" y="42"/>
      <point x="223" y="56" type="curve" smooth="yes"/>
      <point x="223" y="228" type="line" smooth="yes"/>
      <point x="223" y="282"/>
      <point x="192" y="314"/>
      <point x="130" y="314" type="curve" smooth="yes"/>
    </contour>
    <contour>
      <point x="175" y="111" type="line"/>
      <point x="175" y="61"/>
      <point x="142" y="36"/>
      <point x="111" y="36" type="curve" smooth="yes"/>
      <point x="84" y="36"/>
      <point x="70" y="47"/>
      <point x="70" y="82" type="curve" smooth="yes"/>
      <point x="70" y="130"/>
      <point x="113" y="139"/>
      <point x="175" y="139" type="curve"/>
    </contour>
    <contour>
      <point x="184" y="421" type="line"/>
      <point x="183" y="408"/>
      <point x="175" y="403"/>
      <point x="164" y="403" type="curve" smooth="yes"/>
      <point x="142" y="403"/>
      <point x="123" y="421"/>
      <point x="98" y="421" type="curve" smooth="yes"/>
      <point x="63" y="421"/>
      <point x="47" y="387"/>
      <point x="47" y="360" type="curve"/>
      <point x="82" y="360" type="line"/>
      <point x="83" y="374"/>
      <point x="91" y="379"/>
      <point x="101" y="379" type="curve" smooth="yes"/>
      <point x="124" y="379"/>
      <point x="143" y="360"/>
      <point x="168" y="360" type="curve" smooth="yes"/>
      <point x="204" y="360"/>
      <point x="218" y="394"/>
      <point x="218" y="421" type="curve"/>
    </contour>
  </outline>
</glyph>
<glyph name="ae" format="1">
  <advance width="424"/>
  <unicode hex="00E6"/>
  <outline>
    <contour>
      <point x="258" y="314"/>
      <point x="231" y="302"/>
      <point x="212" y="279" type="curve"/>
      <point x="198" y="301"/>
      <point x="171" y="314"/>
      <point x="133" y="314" type="curve" smooth="yes"/>
      <point x="76" y="314"/>
      <point x="35" y="284"/>
      <point x="35" y="229" type="curve" smooth="yes"/>
      <point x="35" y="223"/>
      <point x="35" y="219"/>
      <point x="36" y="215" type="curve"/>
      <point x="83" y="215" type="line"/>
      <point x="83" y="223" type="line" smooth="yes"/>
      <point x="83" y="246"/>
      <point x="94" y="271"/>
      <point x="130" y="271" type="curve" smooth="yes"/>
      <point x="169" y="271"/>
      <point x="179" y="250"/>
      <point x="179" y="221" type="curve" smooth="yes"/>
      <point x="179" y="182" type="line"/>
      <point x="89" y="182"/>
      <point x="23" y="163"/>
      <point x="23" y="79" type="curve" smooth="yes"/>
      <point x="23" y="5"/>
      <point x="74" y="-7"/>
      <point x="113" y="-7" type="curve" smooth="yes"/>
      <point x="148" y="-7"/>
      <point x="179" y="11"/>
      <point x="201" y="40" type="curve"/>
      <point x="220" y="7"/>
      <point x="252" y="-7"/>
      <point x="294" y="-7" type="curve" smooth="yes"/>
      <point x="354" y="-7"/>
      <point x="394" y="36"/>
      <point x="394" y="104" type="curve"/>
      <point x="347" y="104" type="line"/>
      <point x="347" y="62"/>
      <point x="326" y="36"/>
      <point x="295" y="36" type="curve" smooth="yes"/>
      <point x="250" y="36"/>
      <point x="229" y="68"/>
      <point x="229" y="139" type="curve"/>
      <point x="394" y="139" type="line"/>
      <point x="394" y="169" type="line" smooth="yes"/>
      <point x="394" y="272"/>
      <point x="360" y="314"/>
      <point x="294" y="314" type="curve" smooth="yes"/>
    </contour>
    <contour>
      <point x="179" y="107" type="line"/>
      <point x="179" y="59"/>
      <point x="145" y="36"/>
      <point x="115" y="36" type="curve" smooth="yes"/>
      <point x="88" y="36"/>
      <point x="73" y="47"/>
      <point x="73" y="82" type="curve" smooth="yes"/>
      <point x="73" y="130"/>
      <point x="116" y="139"/>
      <point x="179" y="139" type="curve"/>
    </contour>
    <contour>
      <point x="327" y="271"/>
      <point x="344" y="240"/>
      <point x="344" y="182" type="curve"/>
      <point x="229" y="182" type="line"/>
      <point x="233" y="241"/>
      <point x="251" y="271"/>
      <point x="294" y="271" type="curve" smooth="yes"/>
    </contour>
    <contour>
      <point x="213" y="306" type="move" name="top"/>
    </contour>
  </outline>
</glyph>
<glyph name="ccedilla" format="1">
  <advance width="376"/>
  <unicode hex="00E7"/>
  <outline>
    <contour>
      <point x="85" y="495"/>
      <point x="33" y="416"/>
      <point x="33" y="241" type="curve" smooth="yes"/>
      <point x="33" y="93"/>
      <point x="71" y="14"/>
      <point x="154" y="-5" type="curve"/>
      <point x="144" y="-71" type="line"/>
      <point x="174" y="-71" type="line" smooth="yes"/>
      <point x="198" y="-71"/>
      <point x="205" y="-78"/>
      <point x="205" y="-93" type="curve" smooth="yes"/>
      <point x="205" y="-110"/>
      <point x="192" y="-115"/>
      <point x="172" y="-115" type="curve" smooth="yes"/>
      <point x="102" y="-115" type="line"/>
      <point x="102" y="-160" type="line"/>
      <point x="124" y="-164"/>
      <point x="154" y="-167"/>
      <point x="179" y="-167" type="curve" smooth="yes"/>
      <point x="217" y="-167"/>
      <point x="275" y="-155"/>
      <point x="275" y="-93" type="curve" smooth="yes"/>
      <point x="275" y="-51"/>
      <point x="240" y="-35"/>
      <point x="201" y="-33" type="curve"/>
      <point x="203" y="-11" type="line"/>
      <point x="306" y="-8"/>
      <point x="346" y="80"/>
      <point x="346" y="179" type="curve"/>
      <point x="272" y="179" type="line"/>
      <point x="272" y="99"/>
      <point x="253" y="56"/>
      <point x="199" y="56" type="curve" smooth="yes"/>
      <point x="138" y="56"/>
      <point x="112" y="113"/>
      <point x="112" y="225" type="curve" smooth="yes"/>
      <point x="112" y="259" type="line" smooth="yes"/>
      <point x="112" y="370"/>
      <point x="138" y="427"/>
      <point x="199" y="427" type="curve" smooth="yes"/>
      <point x="253" y="427"/>
      <point x="268" y="388"/>
      <point x="268" y="305" type="curve"/>
      <point x="346" y="305" type="line"/>
      <point x="346" y="427"/>
      <point x="304" y="495"/>
      <point x="199" y="495" type="curve" smooth="yes"/>
    </contour>
  </outline>
</glyph>
<glyph name="eacute" format="1">
  <advance width="266"/>
  <unicode hex="00E9"/>
  <outline>
    <contour>
      <point x="63" y="314"/>
      <point x="24" y="264"/>
      <point x="24" y="153" type="curve" smooth="yes"/>
      <point x="24" y="40"/>
      <point x="64" y="-7"/>
      <point x="140" y="-7" type="curve" smooth="yes"/>
      <point x="200" y="-7"/>
      <point x="241" y="36"/>
      <point x="241" y="104" type="curve"/>
      <point x="193" y="104" type="line"/>
      <point x="193" y="62"/>
      <point x="172" y="36"/>
      <point x="142" y="36" type="curve" smooth="yes"/>
      <point x="96" y="36"/>
      <point x="75" y="68"/>
      <point x="74" y="139" type="curve"/>
      <point x="241" y="139" type="line"/>
      <point x="241" y="169" type="line" smooth="yes"/>
      <point x="241" y="272"/>
      <point x="207" y="314"/>
      <point x="140" y="314" type="curve" smooth="yes"/>
    </contour>
    <contour>
      <point x="173" y="271"/>
      <point x="190" y="240"/>
      <point x="190" y="182" type="curve"/>
      <point x="75" y="182" type="line"/>
      <point x="79" y="241"/>
      <point x="98" y="271"/>
      <point x="140" y="271" type="curve" smooth="yes"/>
    </contour>
    <contour>
      <point x="208" y="421" type="line"/>
      <point x="155" y="421" type="line"/>
      <point x="105" y="344" type="line"/>
      <point x="146" y="344" type="line"/>
      <point x="208" y="419" type="line"/>
    </contour>
  </outline>
</glyph>
<glyph name="igrave" format="1">
  <advance width="210"/>
  <unicode hex="00EC"/>
  <outline>
    <contour>
      <point x="142" y="484" type="line"/>
      <point x="68" y="484" type="line"/>
      <point x="68" y="0" type="line"/>
      <point x="142" y="0" type="line"/>
    </contour>
    <contour>
      <point x="81" y="665" type="line"/>
      <point x="-2" y="665" type="line"/>
      <point x="-3" y="661" type="line"/>
      <point x="97" y="543" type="line"/>
      <point x="160" y="543" type="line"/>
    </contour>
  </outline>
</glyph>
<glyph name="iacute" format="1">
  <advance width="133"/>
  <unicode hex="00ED"/>
  <outline>
    <contour>
      <point x="90" y="306" type="line"/>
      <point x="43" y="306" type="line"/>
      <point x="43" y="0" type="line"/>
      <point x="90" y="0" type="line"/>
    </contour>
    <contour>
      <point x="134" y="421" type="line"/>
      <point x="82" y="421" type="line"/>
      <point x="32" y="344" type="line"/>
      <point x="72" y="344" type="line"/>
      <point x="134" y="419" type="line"/>
    </contour>
  </outline>
</glyph>
<glyph name="icircumflex" format="1">
  <advance width="133"/>
  <unicode hex="00EE"/>
  <outline>
    <contour>
      <point x="90" y="0" type="line"/>
      <point x="90" y="306" type="line"/>
      <point x="43" y="306" type="line"/>
      <point x="43" y="0" type="line"/>
    </contour>
    <contour>
      <point x="139" y="342" type="line"/>
      <point x="90" y="420" type="line"/>
      <point x="44" y="420" type="line"/>
      <point x="-7" y="342" type="line"/>
      <point x="41" y="342" type="line"/>
      <point x="67" y="388" type="line"/>
      <point x="93" y="342" type="line"/>
    </contour>
  </outline>
</glyph>
<glyph name="idieresis" format="1">
  <advance width="210"/>
  <unicode hex="00EF"/>
  <outline>
    <contour>
      <point x="142" y="484" type="line"/>
      <point x="68" y="484" type="line"/>
      <point x="68" y="0" type="line"/>
      <point x="142" y="0" type="line"/>
    </contour>
    <contour>
      <point x="76" y="665" type="line"/>
      <point x="-4" y="665" type="line"/>
      <point x="-4" y="577" type="line"/>
      <point x="76" y="577" type="line"/>
    </contour>
    <contour>
      <point x="214" y="665" type="line"/>
      <point x="134" y="665" type="line"/>
      <point x="134" y="577" type="line"/>
      <point x="214" y="577" type="line"/>
    </contour>
  </outline>
</glyph>
<glyph name="eth" format="1">
  <advance width="266"/>
  <unicode hex="00F0"/>
  <outline>
    <contour>
      <point x="69" y="421" type="line"/>
      <point x="68" y="419" type="line"/>
      <point x="78" y="409"/>
      <point x="87" y="398"/>
      <point x="96" y="388" type="curve"/>
      <point x="54" y="384" type="line"/>
      <point x="54" y="349" type="line"/>
      <point x="123" y="355" type="line"/>
      <point x="136" y="338"/>
      <point x="148" y="322"/>
      <point x="157" y="304" type="curve"/>
      <point x="158" y="305" type="line"/>
      <point x="148" y="310"/>
      <point x="138" y="314"/>
      <point x="127" y="314" type="curve" smooth="yes"/>
      <point x="67" y="314"/>
      <point x="23" y="266"/>
      <point x="23" y="153" type="curve" smooth="yes"/>
      <point x="23" y="43"/>
      <point x="61" y="-7"/>
      <point x="133" y="-7" type="curve" smooth="yes"/>
      <point x="204" y="-7"/>
      <point x="243" y="43"/>
      <point x="243" y="153" type="curve" smooth="yes"/>
      <point x="243" y="238"/>
      <point x="215" y="304"/>
      <point x="173" y="360" type="curve"/>
      <point x="215" y="364" type="line"/>
      <point x="215" y="399" type="line"/>
      <point x="147" y="393" type="line"/>
      <point x="138" y="403"/>
      <point x="129" y="412"/>
      <point x="121" y="421" type="curve"/>
    </contour>
    <contour>
      <point x="172" y="271"/>
      <point x="192" y="235"/>
      <point x="192" y="164" type="curve" smooth="yes"/>
      <point x="192" y="142" type="line" smooth="yes"/>
      <point x="192" y="72"/>
      <point x="173" y="36"/>
      <point x="133" y="36" type="curve" smooth="yes"/>
      <point x="93" y="36"/>
      <point x="73" y="72"/>
      <point x="73" y="142" type="curve" smooth="yes"/>
      <point x="73" y="164" type="line" smooth="yes"/>
      <point x="73" y="235"/>
      <point x="93" y="271"/>
      <point x="133" y="271" type="curve" smooth="yes"/>
    </contour>
  </outline>
</glyph>
<glyph name="ntilde" format="1">
  <advance width="266"/>
  <unicode hex="00F1"/>
  <outline>
    <contour>
      <point x="125" y="314"/>
      <point x="98" y="301"/>
      <point x="81" y="271" type="curve"/>
      <point x="78" y="271" type="line"/>
      <point x="71" y="306" type="line"/>
      <point x="35" y="306" type="line"/>
      <point x="35" y="0" type="line"/>
      <point x="83" y="0" type="line"/>
      <point x="83" y="187" type="line" smooth="yes"/>
      <point x="83" y="240"/>
      <point x="109" y="271"/>
      <point x="140" y="271" type="curve" smooth="yes"/>
      <point x="165" y="271"/>
      <point x="183" y="260"/>
      <point x="183" y="217" type="curve" smooth="yes"/>
      <point x="183" y="0" type="line"/>
      <point x="231" y="0" type="line"/>
      <point x="231" y="221" type="line" smooth="yes"/>
      <point x="231" y="289"/>
      <point x="201" y="314"/>
      <point x="155" y="314" type="curve" smooth="yes"/>
    </contour>
    <contour>
      <point x="184" y="421" type="line"/>
      <point x="183" y="408"/>
      <point x="175" y="403"/>
      <point x="164" y="403" type="curve" smooth="yes"/>
      <point x="142" y="403"/>
      <point x="123" y="421"/>
      <point x="98" y="421" type="curve" smooth="yes"/>
      <point x="63" y="421"/>
      <point x="47" y="387"/>
      <point x="47" y="360" type="curve"/>
      <point x="82" y="360" type="line"/>
      <point x="83" y="374"/>
      <point x="91" y="379"/>
      <point x="101" y="379" type="curve" smooth="yes"/>
      <point x="124" y="379"/>
      <point x="143" y="360"/>
      <point x="168" y="360" type="curve" smooth="yes"/>
      <point x="204" y="360"/>
      <point x="218" y="394"/>
      <point x="218" y="421" type="curve"/>
    </contour>
  </outline>
</glyph>
<glyph name="ograve" format="1">
  <advance width="266"/>
  <unicode hex="00F2"/>
  <outline>
    <contour>
      <point x="61" y="314"/>
      <point x="23" y="264"/>
      <point x="23" y="153" type="curve" smooth="yes"/>
      <point x="23" y="43"/>
      <point x="61" y="-7"/>
      <point x="133" y="-7" type="curve" smooth="yes"/>
      <point x="204" y="-7"/>
      <point x="243" y="43"/>
      <point x="243" y="153" type="curve" smooth="yes"/>
      <point x="243" y="264"/>
      <point x="204" y="314"/>
      <point x="133" y="314" type="curve" smooth="yes"/>
    </contour>
    <contour>
      <point x="173" y="271"/>
      <point x="192" y="235"/>
      <point x="192" y="164" type="curve" smooth="yes"/>
      <point x="192" y="142" type="line" smooth="yes"/>
      <point x="192" y="72"/>
      <point x="173" y="36"/>
      <point x="133" y="36" type="curve" smooth="yes"/>
      <point x="93" y="36"/>
      <point x="73" y="72"/>
      <point x="73" y="142" type="curve" smooth="yes"/>
      <point x="73" y="164" type="line" smooth="yes"/>
      <point x="73" y="235"/>
      <point x="93" y="271"/>
      <point x="133" y="271" type="curve" smooth="yes"/>
    </contour>
    <contour>
      <point x="118" y="421" type="line"/>
      <point x="65" y="421" type="line"/>
      <point x="64" y="419" type="line"/>
      <point x="128" y="344" type="line"/>
      <point x="168" y="344" type="line"/>
    </contour>
  </outline>
</glyph>
<glyph name="otilde" format="1">
  <advance width="419"/>
  <unicode hex="00F5"/>
  <outline>
    <contour>
      <point x="97" y="495"/>
      <point x="36" y="416"/>
      <point x="36" y="241" type="curve" smooth="yes"/>
      <point x="36" y="68"/>
      <point x="97" y="-11"/>
      <point x="210" y="-11" type="curve" smooth="yes"/>
      <point x="322" y="-11"/>
      <point x="383" y="68"/>
      <point x="383" y="241" type="curve" smooth="yes"/>
      <point x="383" y="416"/>
      <point x="322" y="495"/>
      <point x="210" y="495" type="curve" smooth="yes"/>
    </contour>
    <contour>
      <point x="272" y="427"/>
      <point x="304" y="370"/>
      <point x="304" y="259" type="curve" smooth="yes"/>
      <point x="304" y="225" type="line" smooth="yes"/>
      <point x="304" y="113"/>
      <point x="272" y="56"/>
      <point x="210" y="56" type="curve" smooth="yes"/>
      <point x="147" y="56"/>
      <point x="115" y="113"/>
      <point x="115" y="225" type="curve" smooth="yes"/>
      <point x="115" y="259" type="line" smooth="yes"/>
      <point x="115" y="370"/>
      <point x="147" y="427"/>
      <point x="210" y="427" type="curve" smooth="yes"/>
    </contour>
    <contour>
      <point x="290" y="665" type="line"/>
      <point x="288" y="644"/>
      <point x="276" y="636"/>
      <point x="259" y="636" type="curve" smooth="yes"/>
      <point x="224" y="636"/>
      <point x="193" y="665"/>
      <point x="154" y="665" type="curve" smooth="yes"/>
      <point x="99" y="665"/>
      <point x="75" y="612"/>
      <point x="75" y="569" type="curve"/>
      <point x="129" y="569" type="line"/>
      <point x="131" y="591"/>
      <point x="144" y="598"/>
      <point x="160" y="598" type="curve" smooth="yes"/>
      <point x="196" y="598"/>
      <point x="226" y="569"/>
      <point x="265" y="569" type="curve" smooth="yes"/>
      <point x="321" y="569"/>
      <point x="344" y="622"/>
      <point x="344" y="665" type="curve"/>
    </contour>
  </outline>
</glyph>
<glyph name="divide" format="1">
  <advance width="320"/>
  <unicode hex="00F7"/>
  <outline>
    <contour>
      <point x="294" y="124" type="line"/>
      <point x="294" y="173" type="line"/>
      <point x="25" y="173" type="line"/>
      <point x="25" y="124" type="line"/>
    </contour>
    <contour>
      <point x="184" y="30" type="line"/>
      <point x="184" y="82" type="line"/>
      <point x="135" y="82" type="line"/>
      <point x="135" y="30" type="line"/>
    </contour>
    <contour>
      <point x="184" y="215" type="line"/>
      <point x="184" y="268" type="line"/>
      <point x="135" y="268" type="line"/>
      <point x="135" y="215" type="line"/>
    </contour>
  </outline>
</glyph>
<glyph name="ugrave" format="1">
  <advance width="266"/>
  <unicode hex="00F9"/>
  <outline>
    <contour>
      <point x="231" y="306" type="line"/>
      <point x="183" y="306" type="line"/>
      <point x="183" y="119" type="line" smooth="yes"/>
      <point x="183" y="67"/>
      <point x="156" y="36"/>
      <point x="126" y="36" type="curve" smooth="yes"/>
      <point x="100" y="36"/>
      <point x="83" y="47"/>
      <point x="83" y="89" type="curve" smooth="yes"/>
      <point x="83" y="306" type="line"/>
      <point x="35" y="306" type="line"/>
      <point x="35" y="86" type="line" smooth="yes"/>
      <point x="35" y="18"/>
      <point x="65" y="-7"/>
      <point x="111" y="-7" type="curve" smooth="yes"/>
      <point x="141" y="-7"/>
      <point x="168" y="5"/>
      <point x="185" y="36" type="curve"/>
      <point x="188" y="36" type="line"/>
      <point x="194" y="0" type="line"/>
      <point x="231" y="0" type="line"/>
    </contour>
    <contour>
      <point x="118" y="421" type="line"/>
      <point x="65" y="421" type="line"/>
      <point x="64" y="419" type="line"/>
      <point x="128" y="344" type="line"/>
      <point x="168" y="344" type="line"/>
    </contour>
  </outline>
</glyph>
<glyph name="ucircumflex" format="1">
  <advance width="266"/>
  <unicode hex="00FB"/>
  <outline>
    <contour>
      <point x="231" y="0" type="line"/>
      <point x="231" y="306" type="line"/>
      <point x="183" y="306" type="line"/>
      <point x="183" y="119" type="line" smooth="yes"/>
      <point x="183" y="67"/>
      <point x="156" y="36"/>
      <point x="126" y="36" type="curve" smooth="yes"/>
      <point x="100" y="36"/>
      <point x="83" y="47"/>
      <point x="83" y="89" type="curve" smooth="yes"/>
      <point x="83" y="306" type="line"/>
      <point x="35" y="306" type="line"/>
      <point x="35" y="86" type="line" smooth="yes"/>
      <point x="35" y="18"/>
      <point x="65" y="-7"/>
      <point x="111" y="-7" type="curve" smooth="yes"/>
      <point x="141" y="-7"/>
      <point x="168" y="5"/>
      <point x="185" y="36" type="curve"/>
      <point x="188" y="36" type="line"/>
      <point x="194" y="0" type="line"/>
    </contour>
    <contour>
      <point x="206" y="342" type="line"/>
      <point x="156" y="420" type="line"/>
      <point x="110" y="420" type="line"/>
      <point x="61" y="342" type="line"/>
      <point x="107" y="342" type="line"/>
      <point x="133" y="388" type="line"/>
      <point x="159" y="342" type="line"/>
    </contour>
  </outline>
</glyph>
<glyph name="thorn" format="1">
  <advance width="266"/>
  <unicode hex="00FE"/>
  <outline>
    <contour>
      <point x="83" y="421" type="line"/>
      <point x="35" y="421" type="line"/>
      <point x="35" y="-101" type="line"/>
      <point x="83" y="-101" type="line"/>
      <point x="83" y="27" type="line"/>
      <point x="86" y="27" type="line"/>
      <point x="96" y="6"/>
      <point x="121" y="-7"/>
      <point x="151" y="-7" type="curve" smooth="yes"/>
      <point x="202" y="-7"/>
      <point x="243" y="42"/>
      <point x="243" y="153" type="curve" smooth="yes"/>
      <point x="243" y="265"/>
      <point x="206" y="314"/>
      <point x="148" y="314" type="curve" smooth="yes"/>
      <point x="121" y="314"/>
      <point x="98" y="300"/>
      <point x="85" y="279" type="curve"/>
      <point x="83" y="279" type="line"/>
    </contour>
    <contour>
      <point x="174" y="271"/>
      <point x="192" y="241"/>
      <point x="192" y="164" type="curve" smooth="yes"/>
      <point x="192" y="142" type="line" smooth="yes"/>
      <point x="192" y="66"/>
      <point x="174" y="36"/>
      <point x="138" y="36" type="curve" smooth="yes"/>
      <point x="101" y="36"/>
      <point x="83" y="72"/>
      <point x="83" y="142" type="curve" smooth="yes"/>
      <point x="83" y="164" type="line" smooth="yes"/>
      <point x="83" y="235"/>
      <point x="101" y="271"/>
      <point x="138" y="271" type="curve" smooth="yes"/>
    </contour>
  </outline>
</glyph>
<glyph name="abreve" format="1">
  <advance width="419"/>
  <unicode hex="0103"/>
  <outline>
    <contour>
      <point x="114" y="495"/>
      <point x="50" y="448"/>
      <point x="50" y="361" type="curve" smooth="yes"/>
      <point x="50" y="353"/>
      <point x="50" y="345"/>
      <point x="51" y="340" type="curve"/>
      <point x="125" y="340" type="line"/>
      <point x="125" y="352" type="line" smooth="yes"/>
      <point x="125" y="388"/>
      <point x="142" y="427"/>
      <point x="200" y="427" type="curve" smooth="yes"/>
      <point x="261" y="427"/>
      <point x="276" y="395"/>
      <point x="276" y="349" type="curve" smooth="yes"/>
      <point x="276" y="287" type="line"/>
      <point x="135" y="287"/>
      <point x="31" y="258"/>
      <point x="31" y="125" type="curve" smooth="yes"/>
      <point x="31" y="8"/>
      <point x="110" y="-11"/>
      <point x="158" y="-11" type="curve" smooth="yes"/>
      <point x="209" y="-11"/>
      <point x="251" y="12"/>
      <point x="276" y="52" type="curve"/>
      <point x="281" y="52" type="line"/>
      <point x="289" y="17"/>
      <point x="317" y="-7"/>
      <point x="357" y="-7" type="curve" smooth="yes"/>
      <point x="381" y="-7"/>
      <point x="398" y="-1"/>
      <point x="407" y="4" type="curve"/>
      <point x="407" y="56" type="line"/>
      <point x="376" y="56" type="line" smooth="yes"/>
      <point x="364" y="56"/>
      <point x="352" y="66"/>
      <point x="352" y="88" type="curve" smooth="yes"/>
      <point x="352" y="360" type="line" smooth="yes"/>
      <point x="352" y="445"/>
      <point x="303" y="495"/>
      <point x="205" y="495" type="curve" smooth="yes"/>
    </contour>
    <contour>
      <point x="276" y="176" type="line"/>
      <point x="276" y="96"/>
      <point x="224" y="56"/>
      <point x="176" y="56" type="curve" smooth="yes"/>
      <point x="133" y="56"/>
      <point x="110" y="75"/>
      <point x="110" y="130" type="curve" smooth="yes"/>
      <point x="110" y="205"/>
      <point x="178" y="219"/>
      <point x="276" y="219" type="curve"/>
    </contour>
    <contour>
      <point x="265" y="665" type="line"/>
      <point x="263" y="652"/>
      <point x="241" y="634"/>
      <point x="210" y="634" type="curve" smooth="yes"/>
      <point x="178" y="634"/>
      <point x="158" y="652"/>
      <point x="155" y="665" type="curve"/>
      <point x="96" y="665" type="line"/>
      <point x="96" y="623"/>
      <point x="139" y="575"/>
      <point x="210" y="575" type="curve" smooth="yes"/>
      <point x="281" y="575"/>
      <point x="323" y="623"/>
      <point x="323" y="665" type="curve"/>
    </contour>
  </outline>
</glyph>
<glyph name="Aogonek" format="1">
  <advance width="319"/>
  <unicode hex="0104"/>
  <outline>
    <contour>
      <point x="264" y="0" type="line"/>
      <point x="319" y="0" type="line"/>
      <point x="192" y="399" type="line"/>
      <point x="127" y="399" type="line"/>
      <point x="-1" y="0" type="line"/>
      <point x="51" y="0" type="line"/>
      <point x="78" y="89" type="line"/>
      <point x="237" y="89" type="line"/>
    </contour>
    <contour>
      <point x="158" y="358" type="line"/>
      <point x="158" y="358"/>
      <point x="163" y="327"/>
      <point x="168" y="314" type="curve" smooth="yes"/>
      <point x="222" y="136" type="line"/>
      <point x="92" y="136" type="line"/>
      <point x="147" y="314" type="line" smooth="yes"/>
      <point x="151" y="326"/>
      <point x="156" y="358"/>
      <point x="156" y="358" type="curve"/>
    </contour>
    <contour>
      <point x="283" y="0" type="line"/>
      <point x="272" y="-14"/>
      <point x="260" y="-27"/>
      <point x="260" y="-53" type="curve" smooth="yes"/>
      <point x="260" y="-94"/>
      <point x="289" y="-106"/>
      <point x="314" y="-106" type="curve" smooth="yes"/>
      <point x="326" y="-106"/>
      <point x="338" y="-103"/>
      <point x="350" y="-98" type="curve"/>
      <point x="350" y="-68" type="line"/>
      <point x="332" y="-68" type="line" smooth="yes"/>
      <point x="312" y="-68"/>
      <point x="305" y="-53"/>
      <point x="305" y="-36" type="curve" smooth="yes"/>
      <point x="305" y="-20"/>
      <point x="313" y="-9"/>
      <point x="319" y="0" type="curve"/>
    </contour>
  </outline>
</glyph>
<glyph name="aogonek" format="1">
  <advance width="266"/>
  <unicode hex="0105"/>
  <outline>
    <contour>
      <point x="287" y="-68" type="line"/>
      <point x="269" y="-68" type="line" smooth="yes"/>
      <point x="249" y="-68"/>
      <point x="243" y="-53"/>
      <point x="243" y="-36" type="curve" smooth="yes"/>
      <point x="243" y="-21"/>
      <point x="250" y="-7"/>
      <point x="258" y="3" type="curve"/>
      <point x="258" y="36" type="line"/>
      <point x="239" y="36" type="line" smooth="yes"/>
      <point x="231" y="36"/>
      <point x="223" y="42"/>
      <point x="223" y="56" type="curve" smooth="yes"/>
      <point x="223" y="228" type="line" smooth="yes"/>
      <point x="223" y="282"/>
      <point x="192" y="314"/>
      <point x="130" y="314" type="curve" smooth="yes"/>
      <point x="72" y="314"/>
      <point x="32" y="284"/>
      <point x="32" y="229" type="curve" smooth="yes"/>
      <point x="32" y="223"/>
      <point x="32" y="219"/>
      <point x="32" y="215" type="curve"/>
      <point x="79" y="215" type="line"/>
      <point x="79" y="223" type="line" smooth="yes"/>
      <point x="79" y="246"/>
      <point x="90" y="271"/>
      <point x="127" y="271" type="curve" smooth="yes"/>
      <point x="165" y="271"/>
      <point x="175" y="250"/>
      <point x="175" y="221" type="curve" smooth="yes"/>
      <point x="175" y="182" type="line"/>
      <point x="86" y="182"/>
      <point x="20" y="163"/>
      <point x="20" y="79" type="curve" smooth="yes"/>
      <point x="20" y="5"/>
      <point x="70" y="-7"/>
      <point x="100" y="-7" type="curve" smooth="yes"/>
      <point x="132" y="-7"/>
      <point x="159" y="8"/>
      <point x="175" y="33" type="curve"/>
      <point x="178" y="33" type="line"/>
      <point x="183" y="14"/>
      <point x="196" y="1"/>
      <point x="214" y="-3" type="curve"/>
      <point x="204" y="-16"/>
      <point x="197" y="-31"/>
      <point x="197" y="-53" type="curve" smooth="yes"/>
      <point x="197" y="-94"/>
      <point x="227" y="-106"/>
      <point x="252" y="-106" type="curve" smooth="yes"/>
      <point x="264" y="-106"/>
      <point x="275" y="-103"/>
      <point x="287" y="-98" type="curve"/>
    </contour>
    <contour>
      <point x="175" y="111" type="line"/>
      <point x="175" y="61"/>
      <point x="142" y="36"/>
      <point x="111" y="36" type="curve" smooth="yes"/>
      <point x="84" y="36"/>
      <point x="70" y="47"/>
      <point x="70" y="82" type="curve" smooth="yes"/>
      <point x="70" y="130"/>
      <point x="113" y="139"/>
      <point x="175" y="139" type="curve"/>
    </contour>
  </outline>
</glyph>
<glyph name="Cdotaccent" format="1">
  <advance width="544"/>
  <unicode hex="010A"/>
  <outline>
    <contour>
      <point x="123" y="642"/>
      <point x="38" y="535"/>
      <point x="38" y="315" type="curve" smooth="yes"/>
      <point x="38" y="97"/>
      <point x="123" y="-11"/>
      <point x="287" y="-11" type="curve" smooth="yes"/>
      <point x="416" y="-11"/>
      <point x="506" y="63"/>
      <point x="506" y="226" type="curve"/>
      <point x="426" y="226" type="line"/>
      <point x="426" y="116"/>
      <point x="371" y="63"/>
      <point x="287" y="63" type="curve" smooth="yes"/>
      <point x="177" y="63"/>
      <point x="123" y="138"/>
      <point x="123" y="292" type="curve" smooth="yes"/>
      <point x="123" y="338" type="line" smooth="yes"/>
      <point x="123" y="492"/>
      <point x="177" y="567"/>
      <point x="287" y="567" type="curve" smooth="yes"/>
      <point x="369" y="567"/>
      <point x="424" y="513"/>
      <point x="424" y="402" type="curve"/>
      <point x="506" y="402" type="line"/>
      <point x="506" y="564"/>
      <point x="416" y="642"/>
      <point x="287" y="642" type="curve" smooth="yes"/>
    </contour>
    <contour>
      <point x="313" y="725" type="line"/>
      <point x="313" y="812" type="line"/>
      <point x="232" y="812" type="line"/>
      <point x="232" y="725" type="line"/>
    </contour>
  </outline>
</glyph>
<glyph name="ccaron" format="1">
  <advance width="239"/>
  <unicode hex="010D"/>
  <outline>
    <contour>
      <point x="54" y="314"/>
      <point x="21" y="264"/>
      <point x="21" y="153" type="curve" smooth="yes"/>
      <point x="21" y="43"/>
      <point x="53" y="-7"/>
      <point x="126" y="-7" type="curve" smooth="yes"/>
      <point x="193" y="-7"/>
      <point x="219" y="49"/>
      <point x="219" y="113" type="curve"/>
      <point x="173" y="113" type="line"/>
      <point x="173" y="63"/>
      <point x="160" y="36"/>
      <point x="126" y="36" type="curve" smooth="yes"/>
      <point x="88" y="36"/>
      <point x="71" y="72"/>
      <point x="71" y="142" type="curve" smooth="yes"/>
      <point x="71" y="164" type="line" smooth="yes"/>
      <point x="71" y="235"/>
      <point x="88" y="271"/>
      <point x="126" y="271" type="curve" smooth="yes"/>
      <point x="160" y="271"/>
      <point x="170" y="246"/>
      <point x="170" y="193" type="curve"/>
      <point x="219" y="193" type="line"/>
      <point x="219" y="271"/>
      <point x="192" y="314"/>
      <point x="126" y="314" type="curve" smooth="yes"/>
    </contour>
    <contour>
      <point x="142" y="343" type="line"/>
      <point x="192" y="421" type="line"/>
      <point x="146" y="421" type="line"/>
      <point x="119" y="375" type="line"/>
      <point x="94" y="421" type="line"/>
      <point x="47" y="421" type="line"/>
      <point x="97" y="343" type="line"/>
    </contour>
  </outline>
</glyph>
<glyph name="Dcaron" format="1">
  <advance width="345"/>
  <unicode hex="010E"/>
  <outline>
    <contour>
      <point x="194" y="436" type="line"/>
      <point x="245" y="515" type="line"/>
      <point x="198" y="515" type="line"/>
      <point x="173" y="469" type="line"/>
      <point x="146" y="515" type="line"/>
      <point x="100" y="515" type="line"/>
      <point x="149" y="436" type="line"/>
    </contour>
    <contour>
      <point x="41" y="0" type="line"/>
      <point x="165" y="0" type="line" smooth="yes"/>
      <point x="259" y="0"/>
      <point x="316" y="69"/>
      <point x="316" y="206" type="curve" smooth="yes"/>
      <point x="316" y="334"/>
      <point x="259" y="399"/>
      <point x="165" y="399" type="curve" smooth="yes"/>
      <point x="41" y="399" type="line"/>
    </contour>
    <contour>
      <point x="92" y="353" type="line"/>
      <point x="160" y="353" type="line" smooth="yes"/>
      <point x="223" y="353"/>
      <point x="263" y="309"/>
      <point x="263" y="220" type="curve" smooth="yes"/>
      <point x="263" y="191" type="line" smooth="yes"/>
      <point x="263" y="94"/>
      <point x="223" y="47"/>
      <point x="160" y="47" type="curve" smooth="yes"/>
      <point x="92" y="47" type="line"/>
    </contour>
  </outline>
</glyph>
<glyph name="dcaron" format="1">
  <advance width="464"/>
  <unicode hex="010F"/>
  <outline>
    <contour>
      <point x="364" y="0" type="line"/>
      <point x="364" y="665" type="line"/>
      <point x="289" y="665" type="line"/>
      <point x="289" y="438" type="line"/>
      <point x="284" y="438" type="line"/>
      <point x="267" y="473"/>
      <point x="228" y="495"/>
      <point x="181" y="495" type="curve" smooth="yes"/>
      <point x="101" y="495"/>
      <point x="36" y="418"/>
      <point x="36" y="242" type="curve" smooth="yes"/>
      <point x="36" y="66"/>
      <point x="95" y="-11"/>
      <point x="186" y="-11" type="curve" smooth="yes"/>
      <point x="231" y="-11"/>
      <point x="269" y="11"/>
      <point x="292" y="56" type="curve"/>
      <point x="297" y="56" type="line"/>
      <point x="307" y="0" type="line"/>
    </contour>
    <contour>
      <point x="260" y="427"/>
      <point x="289" y="369"/>
      <point x="289" y="256" type="curve" smooth="yes"/>
      <point x="289" y="225" type="line" smooth="yes"/>
      <point x="289" y="113"/>
      <point x="260" y="56"/>
      <point x="202" y="56" type="curve" smooth="yes"/>
      <point x="145" y="56"/>
      <point x="115" y="104"/>
      <point x="115" y="225" type="curve" smooth="yes"/>
      <point x="115" y="259" type="line" smooth="yes"/>
      <point x="115" y="380"/>
      <point x="145" y="427"/>
      <point x="202" y="427" type="curve" smooth="yes"/>
    </contour>
    <contour>
      <point x="493" y="540" type="line"/>
      <point x="493" y="630" type="line"/>
      <point x="400" y="630" type="line"/>
      <point x="400" y="531" type="line"/>
      <point x="438" y="531" type="line"/>
      <point x="400" y="417" type="line"/>
      <point x="448" y="417" type="line"/>
    </contour>
  </outline>
</glyph>
<glyph name="Emacron" format="1">
  <advance width="319"/>
  <unicode hex="0112"/>
  <outline>
    <contour>
      <point x="233" y="442" type="line"/>
      <point x="233" y="484" type="line"/>
      <point x="86" y="484" type="line"/>
      <point x="86" y="442" type="line"/>
    </contour>
    <contour>
      <point x="41" y="0" type="line"/>
      <point x="291" y="0" type="line"/>
      <point x="291" y="47" type="line"/>
      <point x="92" y="47" type="line"/>
      <point x="92" y="181" type="line"/>
      <point x="262" y="181" type="line"/>
      <point x="262" y="228" type="line"/>
      <point x="92" y="228" type="line"/>
      <point x="92" y="353" type="line"/>
      <point x="287" y="353" type="line"/>
      <point x="287" y="399" type="line"/>
      <point x="41" y="399" type="line"/>
    </contour>
  </outline>
</glyph>
<glyph name="Ebreve" format="1">
  <advance width="503"/>
  <unicode hex="0114"/>
  <outline>
    <contour>
      <point x="306" y="812" type="line"/>
      <point x="305" y="799"/>
      <point x="282" y="781"/>
      <point x="251" y="781" type="curve" smooth="yes"/>
      <point x="220" y="781"/>
      <point x="200" y="799"/>
      <point x="197" y="812" type="curve"/>
      <point x="138" y="812" type="line"/>
      <point x="138" y="771"/>
      <point x="181" y="723"/>
      <point x="251" y="723" type="curve" smooth="yes"/>
      <point x="321" y="723"/>
      <point x="365" y="771"/>
      <point x="365" y="812" type="curve"/>
    </contour>
    <contour>
      <point x="64" y="0" type="line"/>
      <point x="459" y="0" type="line"/>
      <point x="459" y="74" type="line"/>
      <point x="146" y="74" type="line"/>
      <point x="146" y="286" type="line"/>
      <point x="413" y="286" type="line"/>
      <point x="413" y="360" type="line"/>
      <point x="146" y="360" type="line"/>
      <point x="146" y="557" type="line"/>
      <point x="453" y="557" type="line"/>
      <point x="453" y="630" type="line"/>
      <point x="64" y="630" type="line"/>
    </contour>
  </outline>
</glyph>
